<svg width="39" height="25" viewBox="0 0 39 25" fill="none" xmlns="http://www.w3.org/2000/svg">
<g clip-path="url(#clip0_918_4962)">
<path d="M25.2079 10.2484C24.1814 6.88178 20.4569 1.67618 19.9726 1.00799L19.5 0.356934L19.0273 1.00799C18.5431 1.67618 14.8171 6.88178 13.7906 10.2499C5.73399 11.1879 0.362427 13.9849 0.362427 17.2844C0.362427 21.4106 8.76845 24.6431 19.5 24.6431C30.2315 24.6431 38.6375 21.4106 38.6375 17.2844C38.6375 13.9763 33.2732 11.185 25.2079 10.2484ZM25.0629 13.8321C28.0858 14.4874 30.1402 15.6753 30.1402 16.8104C30.1402 18.4823 25.7704 20.3441 19.5 20.3441C13.2295 20.3441 8.85979 18.4823 8.85979 16.8104C8.85979 15.6596 10.875 14.4903 13.937 13.8292C14.8026 16.0266 16.9671 17.5899 19.5014 17.5899C22.0357 17.5899 24.1988 16.0266 25.0644 13.8307L25.0629 13.8321ZM19.5 2.33723C21.1818 4.75156 24.3119 9.66875 24.3119 11.7104C24.3119 14.3232 22.1531 16.4492 19.5 16.4492C16.8468 16.4492 14.688 14.3232 14.688 11.7104C14.688 9.66875 17.8182 4.75156 19.5 2.33723ZM19.5 23.5009C8.7467 23.5009 1.52228 20.2855 1.52228 17.2844C1.52228 14.723 6.52414 12.3187 13.5412 11.4349C13.5325 11.5291 13.5282 11.6219 13.5282 11.7104C13.5282 12.0588 13.5644 12.3972 13.6239 12.7284C9.8993 13.5408 7.69849 15.0443 7.69849 16.8104C7.69849 19.8472 13.779 21.4863 19.4985 21.4863C25.218 21.4863 31.2986 19.8472 31.2986 16.8104C31.2986 15.0385 29.1006 13.5394 25.3732 12.7284C25.4326 12.3972 25.4689 12.0588 25.4689 11.7104C25.4689 11.6219 25.4631 11.5291 25.4558 11.4335C32.4831 12.3187 37.4748 14.7144 37.4748 17.2844C37.4748 20.287 30.2503 23.5009 19.4971 23.5009H19.5Z" fill="#1D1D1B"/>
<path d="M19.5 25C14.2662 25 9.3919 24.2347 5.77461 22.8441C2.05149 21.4121 0 19.4375 0 17.2844C0 13.8007 5.29617 10.9209 13.5166 9.9229C14.6562 6.48058 18.3126 1.38207 18.733 0.800971L19.2057 0.149914C19.2738 0.0556825 19.384 0 19.5 0C19.616 0 19.7276 0.0556825 19.7943 0.149914L20.267 0.800971C20.6888 1.38207 24.3438 6.47915 25.4834 9.92147C33.7024 10.918 39 13.7978 39 17.2844C39 19.4375 36.9485 21.4121 33.2254 22.8441C29.6096 24.2347 24.7353 25 19.5 25ZM19.5 0.970874L19.3231 1.21502C18.8998 1.79897 15.1549 7.02027 14.1386 10.3512C14.0965 10.4869 13.9777 10.5868 13.8341 10.6025C5.99353 11.5163 0.724907 14.2019 0.724907 17.2844C0.724907 19.1234 2.61257 20.8609 6.03848 22.1788C9.57312 23.538 14.3532 24.2861 19.5 24.2861C24.6468 24.2861 29.4269 23.538 32.9615 22.1788C36.3889 20.8609 38.2751 19.1234 38.2751 17.2844C38.2751 14.199 33.0065 11.5134 25.1659 10.6025C25.0223 10.5854 24.9035 10.4869 24.8614 10.3512C23.8451 7.02027 20.1017 1.8004 19.6783 1.21502L19.5014 0.970874H19.5ZM19.5 23.8578C8.17115 23.8578 1.15985 20.4455 1.15985 17.2844C1.15985 14.5046 6.11677 12.0103 13.4949 11.0808C13.6036 11.068 13.7123 11.1022 13.7921 11.1779C13.8718 11.2536 13.9124 11.3578 13.9023 11.4663C13.8936 11.5591 13.8907 11.6405 13.8907 11.7119C13.8907 12.0146 13.9197 12.3272 13.9806 12.6685C14.0139 12.8569 13.8907 13.0368 13.7022 13.0782C10.1704 13.8478 8.06097 15.2441 8.06097 16.8118C8.06097 19.5146 13.8762 21.1308 19.4986 21.1308C25.1209 21.1308 30.9361 19.516 30.9361 16.8118C30.9361 15.2427 28.8281 13.8464 25.2964 13.0782C25.1064 13.0368 24.9846 12.8555 25.018 12.6685C25.0789 12.3272 25.1079 12.0146 25.1079 11.7119C25.1079 11.6391 25.1035 11.5591 25.0963 11.4649C25.0876 11.3578 25.1267 11.2521 25.2065 11.1765C25.2862 11.1022 25.3935 11.0665 25.5037 11.0794C32.8818 12.0089 37.8401 14.5017 37.8401 17.2844C37.8401 20.4455 30.8288 23.8578 19.5 23.8578ZM13.1672 11.8432C6.6039 12.7384 1.88476 15.0029 1.88476 17.2844C1.88476 20.0557 9.11933 23.1439 19.5 23.1439C24.4381 23.1439 29.0166 22.4486 32.3932 21.185C35.3508 20.0785 37.1152 18.6208 37.1152 17.2844C37.1152 15.0014 32.3961 12.737 25.8328 11.8432C25.8284 12.0417 25.8125 12.2444 25.7849 12.4557C29.5269 13.331 31.6639 14.9101 31.6639 16.8118C31.6639 18.3824 30.2823 19.7016 27.6683 20.6239C25.4732 21.3992 22.4953 21.8432 19.5 21.8432C13.4557 21.8432 7.33751 20.1142 7.33751 16.8104C7.33751 14.9101 9.47454 13.331 13.2165 12.4543C13.189 12.2444 13.173 12.0417 13.1687 11.8432H13.1672ZM19.5 20.701C13.5355 20.701 8.49736 18.9192 8.49736 16.8104C8.49736 15.4697 10.5517 14.1947 13.8588 13.4809C14.0328 13.4437 14.2096 13.5365 14.2749 13.7007C15.1085 15.8138 17.2078 17.2344 19.5014 17.2344C21.7951 17.2344 23.8929 15.8152 24.7266 13.7022C24.7918 13.538 24.9672 13.4452 25.1427 13.4823C28.4497 14.2005 30.5041 15.4754 30.5041 16.8104C30.5041 18.9192 25.4645 20.701 19.5014 20.701H19.5ZM13.7196 14.2447C10.6329 14.9586 9.22227 16.0637 9.22227 16.8104C9.22227 17.3315 9.93993 18.1453 11.9523 18.8678C13.9588 19.5888 16.6395 19.9857 19.5 19.9857C22.3605 19.9857 25.0412 19.5888 27.0477 18.8678C29.0615 18.1439 29.7777 17.3301 29.7777 16.8104C29.7777 16.0451 28.2337 14.9358 25.279 14.2461C24.267 16.472 21.9835 17.9483 19.4986 17.9483C17.0136 17.9483 14.7287 16.472 13.7181 14.2447H13.7196ZM19.5 16.8061C16.6468 16.8061 14.3256 14.5203 14.3256 11.7105C14.3256 9.26042 18.3865 3.30383 19.2013 2.13449C19.2695 2.03741 19.3811 1.97887 19.5 1.97887C19.6189 1.97887 19.732 2.03741 19.7987 2.13449C20.6135 3.30383 24.6744 9.25899 24.6744 11.7105C24.6744 14.5203 22.3532 16.8061 19.5 16.8061ZM19.5 2.97259C17.3818 6.06796 15.0505 10.0528 15.0505 11.7119C15.0505 14.1276 17.0469 16.0937 19.5 16.0937C21.9531 16.0937 23.9495 14.1276 23.9495 11.7119C23.9495 10.0528 21.6182 6.06796 19.5 2.97259Z" fill="#1D1D1B"/>
</g>
<defs>
<clipPath id="clip0_918_4962">
<rect width="39" height="25" fill="white"/>
</clipPath>
</defs>
</svg>
