<svg width="30" height="31" viewBox="0 0 30 31" fill="none" xmlns="http://www.w3.org/2000/svg">
<path d="M10.0974 1.90525C9.24763 1.47189 8.2853 1.22668 7.26514 1.22668C3.80524 1.22746 1 4.0327 1 7.4926C1 8.7942 1.39711 10.0033 2.07645 11.0049C2.07645 11.0049 2.08493 11.0157 2.08647 11.018C2.14662 11.1059 2.21293 11.1885 2.27693 11.2733C2.99945 12.2641 5.4176 15.8829 4.372 18.6418C3.15058 21.8666 1.23056 27.8557 5.15774 29.2382C5.15774 29.2382 6.54802 29.5845 6.99063 27.7639C7.86351 24.1706 10.1321 21.6823 12.2264 21.6823C14.3207 21.6823 16.5892 24.1706 17.4621 27.7639C17.9039 29.5845 19.295 29.2382 19.295 29.2382C23.2222 27.8564 21.3021 21.8666 20.08 18.6418C20.019 18.4822 19.9712 18.3172 19.935 18.1483" stroke="black" stroke-width="1.6" stroke-linecap="round" stroke-linejoin="round"/>
<path d="M20.6102 4.92255H12.2207L20.6102 15.4688" stroke="black" stroke-width="1.6" stroke-linecap="round" stroke-linejoin="round"/>
<path d="M14.5918 1L18.0039 4.92256" stroke="black" stroke-width="1.6" stroke-linecap="round" stroke-linejoin="round"/>
<path d="M12.2207 4.92256L14.5918 1" stroke="black" stroke-width="1.6" stroke-linecap="round" stroke-linejoin="round"/>
<path d="M18.0039 4.92255L20.6102 15.4688" stroke="black" stroke-width="1.6" stroke-linecap="round" stroke-linejoin="round"/>
<path d="M20.6104 4.92255H29.0006L20.6104 15.4688" stroke="black" stroke-width="1.6" stroke-linecap="round" stroke-linejoin="round"/>
<path d="M23.2165 4.92256L20.6148 1L18.0039 4.92256" stroke="black" stroke-width="1.6" stroke-linecap="round" stroke-linejoin="round"/>
<path d="M29 4.92256L26.6289 1" stroke="black" stroke-width="1.6" stroke-linecap="round" stroke-linejoin="round"/>
<path d="M14.5918 1H26.6294" stroke="black" stroke-width="1.6" stroke-linecap="round" stroke-linejoin="round"/>
<path d="M23.2157 4.92261L20.6094 15.4689" stroke="black" stroke-width="1.6" stroke-linecap="round" stroke-linejoin="round"/>
<path d="M26.6385 1L23.2256 4.92256" stroke="black" stroke-width="1.6" stroke-linecap="round" stroke-linejoin="round"/>
</svg>
