<svg width="21" height="28" viewBox="0 0 21 28" fill="none" xmlns="http://www.w3.org/2000/svg">
<path d="M9.90703 0.238737L7.7111 2.43467C7.39057 2.75519 7.39057 3.27348 7.7111 3.59174C8.03162 3.91226 8.54991 3.91226 8.86816 3.59174L9.66606 2.79384V7.55623C9.66606 8.0086 10.0321 8.37459 10.4844 8.37459C10.489 8.37459 10.4912 8.37459 10.4958 8.37459C10.5003 8.37459 10.5026 8.37459 10.5072 8.37459C10.9595 8.37459 11.3255 8.0086 11.3255 7.55623V2.79384L12.1234 3.59174C12.4439 3.91226 12.9622 3.91226 13.2805 3.59174C13.601 3.27121 13.601 2.75292 13.2805 2.43467L11.0891 0.238737C10.9254 0.0750649 10.7117 -0.00222453 10.4981 4.8692e-05C10.2844 -0.00222453 10.0707 0.0750649 9.90703 0.238737Z" fill="black"/>
<path d="M7.61067 22.805C7.61067 22.3526 7.24468 21.9866 6.79231 21.9866H5.5625C5.11013 21.9866 4.74414 22.3526 4.74414 22.805C4.74414 23.2574 5.11013 23.6234 5.5625 23.6234H6.79231C7.24468 23.6234 7.61067 23.2574 7.61067 22.805Z" fill="black"/>
<path d="M20.1816 9.18841C20.634 9.18841 21 8.82243 21 8.37006C21 7.91768 20.634 7.5517 20.1816 7.5517C17.4424 7.5517 16.0012 8.39506 14.7327 9.1384C13.6052 9.79764 12.5368 10.4228 10.5 10.4932C8.46092 10.4228 7.39251 9.79764 6.26727 9.1384C4.99654 8.39506 3.55759 7.5517 0.818359 7.5517C0.365988 7.5517 0 7.91768 0 8.37006C0 8.82243 0.365988 9.18841 0.818359 9.18841C3.11431 9.18841 4.2441 9.84992 5.43981 10.5501C6.64689 11.257 8.0131 12.0527 10.5 12.1277C12.9892 12.0527 14.3531 11.257 15.5602 10.5501C16.7559 9.84992 17.8857 9.18841 20.1816 9.18841Z" fill="black"/>
<path d="M20.1816 27.4401C20.634 27.4401 21 27.0741 21 26.6217V12.4255C21 11.9731 20.634 11.6071 20.1816 11.6071C17.4424 11.6071 16.0012 12.4505 14.7327 13.1938C13.6052 13.8531 12.5368 14.4782 10.5 14.5487C8.46092 14.4782 7.39251 13.8531 6.26727 13.1938C4.99654 12.4505 3.55759 11.6071 0.818359 11.6071C0.365988 11.6071 0 11.9731 0 12.4255V26.6217C0 27.0741 0.365988 27.4401 0.818359 27.4401H20.1862H20.1816ZM1.63217 13.2757C3.39619 13.4143 4.39186 13.9963 5.43527 14.6078C6.64235 15.3147 8.00855 16.1104 10.4955 16.1854C12.9846 16.1104 14.3486 15.3147 15.5556 14.6078C16.6013 13.9963 17.5947 13.4143 19.3587 13.2757V25.8034H1.63217V13.2757Z" fill="black"/>
<path d="M15.4329 21.9866H14.2031C13.7508 21.9866 13.3848 22.3526 13.3848 22.805C13.3848 23.2574 13.7508 23.6234 14.2031 23.6234H15.4329C15.8853 23.6234 16.2513 23.2574 16.2513 22.805C16.2513 22.3526 15.8853 21.9866 15.4329 21.9866Z" fill="black"/>
<path d="M10.5094 20.1044H11.7392C12.1916 20.1044 12.5575 19.7384 12.5575 19.286C12.5575 18.8336 12.1916 18.4677 11.7392 18.4677H10.5094C10.5094 18.4677 10.5026 18.4677 10.498 18.4677C10.4935 18.4677 10.4912 18.4677 10.4866 18.4677H9.25684C8.80447 18.4677 8.43848 18.8336 8.43848 19.286C8.43848 19.7384 8.80447 20.1044 9.25684 20.1044H10.4866C10.4866 20.1044 10.4935 20.1044 10.498 20.1044C10.5026 20.1044 10.5048 20.1044 10.5094 20.1044Z" fill="black"/>
</svg>
