<svg width="30" height="30" viewBox="0 0 30 30" fill="none" xmlns="http://www.w3.org/2000/svg">
<g clip-path="url(#clip0_918_4236)">
<path d="M15 0.278809C6.88215 0.278809 0.278809 6.88215 0.278809 15C0.278809 23.1178 6.88215 29.7212 15 29.7212C23.1178 29.7212 29.7212 23.1178 29.7212 15C29.7212 6.88215 23.1178 0.278809 15 0.278809ZM15 28.829C7.37398 28.829 1.171 22.626 1.171 15C1.171 7.37398 7.37398 1.171 15 1.171C22.626 1.171 28.829 7.37398 28.829 15C28.829 22.626 22.626 28.829 15 28.829Z" fill="#1D1D1B"/>
<path d="M15 30C6.72937 30 0 23.2706 0 15C0 6.72937 6.72937 0 15 0C23.2706 0 30 6.72937 30 15C30 23.2706 23.2706 30 15 30ZM15 0.557621C7.03606 0.557621 0.557621 7.03606 0.557621 15C0.557621 22.9639 7.03606 29.4424 15 29.4424C22.9639 29.4424 29.4424 22.9639 29.4424 15C29.4424 7.03606 22.9639 0.557621 15 0.557621ZM15 29.1078C7.22119 29.1078 0.892193 22.7788 0.892193 15C0.892193 7.22119 7.22119 0.892193 15 0.892193C22.7788 0.892193 29.1078 7.22119 29.1078 15C29.1078 22.7788 22.7788 29.1078 15 29.1078ZM15 1.44981C7.52788 1.44981 1.44981 7.52788 1.44981 15C1.44981 22.4721 7.52788 28.5502 15 28.5502C22.4721 28.5502 28.5502 22.4721 28.5502 15C28.5502 7.52788 22.4721 1.44981 15 1.44981Z" fill="#1D1D1B"/>
<path d="M13.9082 15.9335C14.0576 15.9848 14.216 16.0182 14.3833 16.0182C15.2041 16.0182 15.8699 15.3524 15.8699 14.5316C15.8699 14.3699 15.8376 14.2171 15.7896 14.071C16.8591 13.0361 17.9587 12.0134 19.0907 11.003C19.2837 11.0956 19.4978 11.1513 19.7264 11.1513C20.5472 11.1513 21.213 10.4855 21.213 9.66471C21.213 9.50746 21.1818 9.35914 21.1372 9.2175C21.7896 8.66211 22.4476 8.10895 23.1179 7.56248L22.5547 6.87103C21.9 7.40412 21.2599 7.94389 20.6219 8.4859C20.3721 8.29631 20.0643 8.17921 19.7264 8.17921C18.9056 8.17921 18.2398 8.84501 18.2398 9.66583C18.2398 9.93014 18.3145 10.1755 18.4361 10.3907C17.3487 11.3621 16.2926 12.3458 15.2621 13.3394C15.0156 13.1565 14.7134 13.0461 14.3833 13.0461C13.5625 13.0461 12.8967 13.7119 12.8967 14.5327C12.8967 14.8584 13.0048 15.1573 13.1822 15.4015C12.1037 16.5 11.0521 17.6075 10.045 18.7294C9.83756 18.6201 9.60559 18.5521 9.35466 18.5521C8.53384 18.5521 7.86804 19.2179 7.86804 20.0387C7.86804 20.361 7.97288 20.6576 8.14797 20.9008C7.55243 21.6045 6.97139 22.3104 6.40485 23.022L7.10299 23.5774C7.67511 22.8591 8.26395 22.1454 8.86507 21.435C9.01897 21.4885 9.1818 21.5242 9.35466 21.5242C10.1755 21.5242 10.8413 20.8584 10.8413 20.0376C10.8413 19.7933 10.7766 19.5669 10.6729 19.364C11.7112 18.2075 12.7952 17.0655 13.9093 15.9335H13.9082Z" fill="#1D1D1B"/>
<path d="M7.10187 23.8561C7.04054 23.8561 6.9792 23.836 6.9279 23.7959L6.22976 23.2405C6.17176 23.1948 6.13496 23.1268 6.12604 23.0543C6.11823 22.9807 6.13942 22.907 6.18515 22.8491C6.70485 22.1966 7.24797 21.5342 7.80225 20.8773C7.66173 20.6197 7.58812 20.3331 7.58812 20.0398C7.58812 19.0662 8.37994 18.2743 9.35355 18.2743C9.56433 18.2743 9.77176 18.3134 9.97362 18.3926C10.8424 17.4312 11.7792 16.4375 12.8286 15.3647C12.6904 15.1082 12.6179 14.826 12.6179 14.5338C12.6179 13.5602 13.4097 12.7684 14.3833 12.7684C14.6799 12.7684 14.9677 12.8431 15.2275 12.9881C16.1844 12.068 17.1469 11.1736 18.0937 10.3249C18.0056 10.113 17.961 9.89218 17.961 9.6669C17.961 8.69329 18.7528 7.90147 19.7264 7.90147C20.0342 7.90147 20.3331 7.98289 20.6008 8.13902C21.1037 7.71188 21.7327 7.18214 22.3773 6.65686C22.4342 6.61002 22.5078 6.58772 22.5814 6.59552C22.655 6.60333 22.7231 6.63902 22.7688 6.69701L23.332 7.38846C23.429 7.50779 23.4112 7.68288 23.2918 7.78103C22.7409 8.22935 22.1532 8.72118 21.4495 9.31783C21.4762 9.43828 21.4896 9.55426 21.4896 9.6669C21.4896 10.6405 20.6978 11.4323 19.7242 11.4323C19.5279 11.4323 19.3327 11.3978 19.1431 11.3297C18.1327 12.2342 17.1112 13.1844 16.1008 14.158C16.1309 14.2873 16.1465 14.4111 16.1465 14.5338C16.1465 15.5074 15.3547 16.2992 14.3811 16.2992C14.2528 16.2992 14.1223 16.2836 13.9885 16.2502C12.8911 17.3676 11.9097 18.407 10.9985 19.4175C11.0777 19.6204 11.1167 19.829 11.1167 20.0398C11.1167 21.0134 10.3249 21.8052 9.35132 21.8052C9.22083 21.8052 9.09147 21.7896 8.95764 21.7561C8.38886 22.4297 7.83793 23.1 7.31823 23.7524C7.26358 23.8215 7.18217 23.8572 7.09964 23.8572L7.10187 23.8561ZM6.7963 22.9773L7.05838 23.1859C7.56693 22.5524 8.10225 21.9044 8.65206 21.2554C8.72678 21.1673 8.84834 21.1349 8.95652 21.1728C9.09704 21.2219 9.22753 21.2465 9.35355 21.2465C10.0193 21.2465 10.5614 20.7044 10.5614 20.0386C10.5614 19.8546 10.5145 19.6706 10.4242 19.4922C10.3718 19.3896 10.3874 19.2647 10.4643 19.1788C11.4469 18.0836 12.5086 16.9584 13.7097 15.7394C13.7844 15.6636 13.897 15.6368 13.9974 15.6714C14.1357 15.7182 14.2617 15.7416 14.3822 15.7416C15.048 15.7416 15.59 15.1996 15.59 14.5338C15.59 14.4178 15.5688 14.2963 15.5242 14.1602C15.4907 14.0587 15.5186 13.9472 15.5956 13.8725C16.693 12.8108 17.8071 11.7769 18.9045 10.7966C18.9881 10.7219 19.1086 10.7052 19.2101 10.7531C19.3785 10.8334 19.5513 10.8736 19.7264 10.8736C20.3922 10.8736 20.9342 10.3316 20.9342 9.66578C20.9342 9.55314 20.9141 9.43828 20.8718 9.30333C20.8383 9.19627 20.8718 9.07917 20.9565 9.00668C21.6301 8.43344 22.1989 7.95612 22.7264 7.52452L22.5145 7.26467C21.8799 7.78549 21.2732 8.2985 20.8026 8.69887C20.7022 8.78363 20.5573 8.78809 20.4535 8.70891C20.2383 8.54497 19.9874 8.45909 19.7275 8.45909C19.0617 8.45909 18.5197 9.0011 18.5197 9.6669C18.5197 9.86876 18.5733 10.0662 18.6803 10.2546C18.745 10.3684 18.7205 10.5123 18.6234 10.5992C17.5796 11.5316 16.5145 12.5208 15.4573 13.5412C15.3591 13.636 15.2075 13.6461 15.0982 13.5647C14.8863 13.4085 14.6398 13.326 14.3844 13.326C13.7186 13.326 13.1766 13.868 13.1766 14.5338C13.1766 14.7859 13.2569 15.0301 13.4086 15.2386C13.4889 15.3491 13.4766 15.5007 13.3818 15.5978C12.2197 16.781 11.1959 17.8662 10.2524 18.9167C10.1666 19.0115 10.0272 19.036 9.91451 18.9769C9.73273 18.881 9.54425 18.832 9.35466 18.832C8.68886 18.832 8.14686 19.374 8.14686 20.0398C8.14686 20.2896 8.22604 20.5316 8.37436 20.7401C8.44909 20.8439 8.44351 20.9855 8.36098 21.0825C7.82678 21.7137 7.3015 22.3505 6.79741 22.9795L6.7963 22.9773Z" fill="#1D1D1B"/>
<path d="M20.894 17.894C21.0379 17.9409 21.1896 17.9721 21.3491 17.9721C22.1699 17.9721 22.8357 17.3063 22.8357 16.4855C22.8357 16.3617 22.8156 16.2424 22.7877 16.1275C23.8639 15.1584 24.939 14.2472 26.0097 13.3952L25.4543 12.697C24.4093 13.529 23.3598 14.4178 22.3093 15.3591C22.0494 15.1383 21.7182 15 21.3502 15C20.5294 15 19.8636 15.6658 19.8636 16.4866C19.8636 16.8178 19.9751 17.1201 20.158 17.3665C19.1297 18.358 18.1004 19.3974 17.0721 20.4881C16.8725 20.3888 16.6505 20.3275 16.413 20.3275C15.5922 20.3275 14.9264 20.9933 14.9264 21.8141C14.9264 22.0996 15.0111 22.3628 15.1494 22.5892C14.2829 23.5606 13.4163 24.5576 12.5543 25.597L13.2412 26.1669C14.0989 25.1342 14.9598 24.1427 15.8219 23.1769C16.0037 23.2561 16.2033 23.3007 16.413 23.3007C17.2338 23.3007 17.8996 22.6349 17.8996 21.8141C17.8996 21.5576 17.8282 21.3201 17.7145 21.1093C18.7751 19.9851 19.8357 18.9134 20.8963 17.8952L20.894 17.894Z" fill="#1D1D1B"/>
<path d="M13.239 26.4435C13.1766 26.4435 13.113 26.4223 13.0606 26.3788L12.3736 25.8089C12.3167 25.7621 12.281 25.694 12.2744 25.6204C12.2677 25.5468 12.29 25.4732 12.3379 25.4163C13.0952 24.5052 13.9048 23.565 14.8104 22.5468C14.7022 22.3149 14.6454 22.0639 14.6454 21.8119C14.6454 20.8383 15.4372 20.0465 16.4108 20.0465C16.6104 20.0465 16.8089 20.0821 17.0019 20.1535C17.9197 19.1844 18.8587 18.2342 19.7989 17.323C19.6573 17.0643 19.5837 16.7788 19.5837 16.4855C19.5837 15.5119 20.3755 14.7201 21.3491 14.7201C21.6814 14.7201 22.0082 14.8182 22.2915 15C23.2985 14.1033 24.3022 13.2557 25.2792 12.4784C25.3996 12.3825 25.5747 12.4026 25.6706 12.523L26.226 13.2212C26.2718 13.2792 26.2929 13.3528 26.2851 13.4264C26.2762 13.5 26.2394 13.5669 26.1814 13.6126C25.1654 14.4212 24.126 15.3 23.0911 16.2279C23.1056 16.3171 23.1134 16.403 23.1134 16.4855C23.1134 17.4591 22.3216 18.2509 21.348 18.2509C21.2253 18.2509 21.1015 18.2353 20.971 18.2052C19.9985 19.142 19.0149 20.1357 18.0446 21.1606C18.1316 21.3714 18.1751 21.5899 18.1751 21.813C18.1751 22.7866 17.3833 23.5784 16.4097 23.5784C16.2357 23.5784 16.0651 23.5528 15.9 23.5026C15.0045 24.5096 14.2026 25.4398 13.4521 26.3431C13.3974 26.4089 13.3171 26.4435 13.2379 26.4435H13.239ZM12.9457 25.5591L13.2034 25.7732C13.9416 24.8899 14.7323 23.9766 15.6112 22.9907C15.6915 22.9004 15.8197 22.8725 15.9301 22.9204C16.084 22.9873 16.2457 23.0208 16.4108 23.0208C17.0766 23.0208 17.6186 22.4788 17.6186 21.813C17.6186 21.6189 17.5673 21.426 17.4669 21.2409C17.4089 21.1349 17.4268 21.0044 17.5093 20.9163C18.5665 19.7955 19.6405 18.7104 20.7011 17.6922C20.7747 17.6208 20.8818 17.5963 20.9799 17.6275C21.1149 17.671 21.2353 17.6922 21.3491 17.6922C22.0149 17.6922 22.5569 17.1502 22.5569 16.4844C22.5569 16.3963 22.5446 16.3037 22.5167 16.1933C22.4922 16.0929 22.5245 15.987 22.6004 15.9189C23.6086 15.0111 24.6234 14.1479 25.6171 13.3494L25.4086 13.0873C24.4539 13.8546 23.4747 14.6866 22.4944 15.5654C22.3907 15.6591 22.2335 15.6602 22.1275 15.5699C21.9022 15.378 21.6335 15.2766 21.3491 15.2766C20.6833 15.2766 20.1413 15.8186 20.1413 16.4844C20.1413 16.7398 20.2238 16.9862 20.381 17.1992C20.4647 17.3119 20.4513 17.4691 20.3498 17.5662C19.316 18.5621 18.281 19.6093 17.2729 20.6777C17.1881 20.7669 17.0554 20.7914 16.945 20.7357C16.7699 20.6487 16.5903 20.6041 16.4097 20.6041C15.7439 20.6041 15.2019 21.1461 15.2019 21.8119C15.2019 22.0294 15.2643 22.2468 15.3837 22.4409C15.4483 22.5457 15.4361 22.6807 15.3547 22.7721C14.4725 23.7613 13.6818 24.6747 12.9435 25.558L12.9457 25.5591Z" fill="#1D1D1B"/>
<path d="M6.21301 9.01782C6.38141 9.08362 6.56208 9.12265 6.7539 9.12265C7.57472 9.12265 8.24052 8.45685 8.24052 7.63604C8.24052 7.42191 8.19368 7.21894 8.11227 7.03492C8.85725 6.33232 9.6 5.71559 10.3372 5.19923L9.82528 4.46875C9.05911 5.00518 8.28959 5.6431 7.52007 6.36801C7.29591 6.23195 7.03606 6.15053 6.75502 6.15053C5.9342 6.15053 5.2684 6.81633 5.2684 7.63715C5.2684 7.94161 5.36096 8.22377 5.51821 8.4602C5.05204 8.99663 4.58699 9.5654 4.12305 10.1676L4.83011 10.7119C5.2907 10.1141 5.75241 9.54979 6.21412 9.01894L6.21301 9.01782Z" fill="#1D1D1B"/>
<path d="M4.82785 10.9896C4.76651 10.9896 4.70629 10.9695 4.65722 10.9316L3.95016 10.3874C3.82859 10.2937 3.80517 10.1186 3.89885 9.99592C4.31595 9.45391 4.74421 8.9264 5.17469 8.42677C5.05201 8.18254 4.98733 7.91265 4.98733 7.63607C4.98733 6.66246 5.77915 5.87064 6.75276 5.87064C6.99811 5.87064 7.24346 5.92529 7.47209 6.029C8.21261 5.3409 8.94978 4.73979 9.66354 4.24016C9.72376 4.19778 9.7996 4.18105 9.87209 4.19332C9.94458 4.20558 10.0093 4.24685 10.0516 4.30819L10.5635 5.03867C10.6059 5.09889 10.6226 5.17361 10.6104 5.24722C10.5981 5.31971 10.5568 5.3844 10.4955 5.42677C9.82859 5.89406 9.13603 6.4606 8.43677 7.11079C8.4903 7.28142 8.51819 7.45651 8.51819 7.63495C8.51819 8.60856 7.72636 9.40038 6.75276 9.40038C6.6022 9.40038 6.45053 9.38031 6.30108 9.33904C5.88287 9.82417 5.46242 10.3416 5.04867 10.8803C5.00406 10.9394 4.93714 10.9773 4.86354 10.9863C4.85127 10.9874 4.84012 10.9885 4.82785 10.9885V10.9896ZM4.51335 10.1164L4.77878 10.3205C5.18473 9.80187 5.59514 9.30224 6.00332 8.83495C6.08138 8.74573 6.20629 8.71562 6.31558 8.758C6.46168 8.81488 6.60889 8.84387 6.75499 8.84387C7.42079 8.84387 7.9628 8.30187 7.9628 7.63607C7.9628 7.46878 7.92711 7.30484 7.85796 7.14871C7.81001 7.04053 7.83566 6.91451 7.92153 6.83309C8.6074 6.18514 9.28882 5.61413 9.95127 5.13347L9.75945 4.85912C9.09142 5.34425 8.40443 5.91971 7.71187 6.57101C7.62042 6.65689 7.48324 6.67138 7.37618 6.6067C7.18101 6.48848 6.97246 6.42938 6.75499 6.42938C6.08919 6.42938 5.54718 6.97138 5.54718 7.63718C5.54718 7.87585 5.61744 8.1067 5.75016 8.30521C5.8193 8.41005 5.81149 8.54834 5.72897 8.64313C5.3219 9.11153 4.91372 9.6067 4.51558 10.1175L4.51335 10.1164Z" fill="#1D1D1B"/>
<path d="M22.316 21.0413C22.1186 20.9442 21.8989 20.884 21.6636 20.884C20.8428 20.884 20.177 21.5498 20.177 22.3706C20.177 22.6249 20.2472 22.8613 20.3599 23.0699C19.8569 23.6431 19.355 24.252 18.8554 24.9L19.5625 25.4442C20.0398 24.823 20.5193 24.2409 20.9989 23.6922C21.1996 23.7937 21.4227 23.8561 21.6636 23.8561C22.4844 23.8561 23.1502 23.1903 23.1502 22.3695C23.1502 22.1097 23.0777 21.8699 22.9606 21.6569C23.6666 20.9989 24.3703 20.4223 25.0706 19.9316L24.5588 19.2011C23.8138 19.723 23.0654 20.3398 22.3171 21.039L22.316 21.0413Z" fill="#1D1D1B"/>
<path d="M19.5625 25.7241C19.5011 25.7241 19.4409 25.7041 19.3918 25.6662L18.6848 25.1219C18.5632 25.0282 18.5398 24.8531 18.6335 24.7316C19.084 24.1461 19.5524 23.5728 20.0286 23.0253C19.9417 22.8134 19.897 22.5948 19.897 22.3717C19.897 21.3981 20.6889 20.6063 21.6625 20.6063C21.8643 20.6063 22.064 20.6431 22.258 20.7145C22.9785 20.0509 23.6967 19.4654 24.3959 18.9758C24.5219 18.8877 24.6959 18.9178 24.784 19.0439L25.2959 19.7743C25.3383 19.8346 25.355 19.9093 25.3428 19.9829C25.3305 20.0554 25.2892 20.1201 25.2279 20.1624C24.5956 20.6052 23.9476 21.1305 23.2985 21.7249C23.3833 21.9346 23.4268 22.1509 23.4268 22.3717C23.4268 23.3453 22.635 24.1372 21.6614 24.1372C21.4628 24.1372 21.2654 24.1015 21.0736 24.0312C20.6353 24.5386 20.2015 25.0706 19.7811 25.616C19.7353 25.6751 19.6695 25.713 19.5959 25.723C19.5837 25.7241 19.5725 25.7253 19.5602 25.7253L19.5625 25.7241ZM19.248 24.8509L19.5134 25.055C19.9294 24.5219 20.3588 24.0033 20.7904 23.5104C20.874 23.4145 21.0123 23.3877 21.126 23.4446C21.3022 23.5327 21.4829 23.5784 21.6647 23.5784C22.3305 23.5784 22.8725 23.0364 22.8725 22.3706C22.8725 22.1732 22.8201 21.9792 22.7175 21.7929C22.6561 21.6814 22.6785 21.542 22.7721 21.4539C23.4134 20.8572 24.0558 20.3241 24.6848 19.8658L24.493 19.5925C23.8428 20.0654 23.1759 20.6197 22.5089 21.2442C22.4242 21.3234 22.2993 21.3424 22.1956 21.2911C22.0227 21.2063 21.8443 21.1628 21.6658 21.1628C21 21.1628 20.458 21.7048 20.458 22.3706C20.458 22.5636 20.5082 22.7543 20.6075 22.9383C20.6632 23.0409 20.6487 23.1669 20.5718 23.2539C20.1223 23.7658 19.6785 24.3022 19.2502 24.8509H19.248Z" fill="#1D1D1B"/>
<path d="M6.75389 15.2587C7.57471 15.2587 8.2405 14.5929 8.2405 13.7721C8.2405 13.4398 8.12675 13.1353 7.94274 12.8877C9.55314 11.1413 11.1658 9.51635 12.7762 8.01747C12.9769 8.11895 13.2 8.18029 13.4398 8.18029C14.2606 8.18029 14.9264 7.51449 14.9264 6.69368C14.9264 6.50966 14.8885 6.33568 14.8271 6.17286C15.5476 5.54944 16.2669 4.94163 16.9851 4.37063L16.4297 3.67249C15.7149 4.24126 14.9978 4.84683 14.2795 5.46691C14.0409 5.30297 13.752 5.20594 13.4409 5.20594C12.6201 5.20594 11.9543 5.87174 11.9543 6.69256C11.9543 6.94683 12.0245 7.18215 12.1372 7.39182C10.4955 8.92193 8.85166 10.5814 7.21114 12.3636C7.06616 12.3167 6.9156 12.2844 6.755 12.2844C5.93419 12.2844 5.26839 12.9502 5.26839 13.771C5.26839 13.9885 5.31746 14.1926 5.4011 14.3788C4.77656 15.0937 4.15203 15.8208 3.52972 16.5691L4.21671 17.139C4.81114 16.4242 5.40556 15.7282 6.00221 15.0457C6.22415 15.1762 6.47842 15.2565 6.755 15.2565L6.75389 15.2587Z" fill="#1D1D1B"/>
<path d="M4.2156 17.4201C4.15315 17.4201 4.08958 17.3989 4.03716 17.3554L3.35018 16.7855C3.2933 16.7387 3.25761 16.6707 3.25092 16.5971C3.24423 16.5234 3.26653 16.4498 3.31449 16.393C3.85092 15.7472 4.42861 15.0692 5.0788 14.3242C5.01858 14.1446 4.98847 13.9595 4.98847 13.7721C4.98847 12.7985 5.78029 12.0067 6.75389 12.0067C6.87322 12.0067 6.99367 12.0212 7.12081 12.0502C8.66876 10.3729 10.2413 8.7859 11.7981 7.32716C11.7167 7.12196 11.6743 6.90895 11.6743 6.69371C11.6743 5.7201 12.4662 4.92828 13.4398 4.92828C13.723 4.92828 13.9996 4.99631 14.2483 5.12568C15.0089 4.47103 15.6491 3.93683 16.2546 3.45504C16.3751 3.35913 16.5502 3.37921 16.6461 3.49965L17.2015 4.1978C17.2472 4.25579 17.2684 4.32939 17.2606 4.403C17.2517 4.47661 17.2149 4.54352 17.1569 4.58925C16.5546 5.0688 15.9134 5.603 15.1472 6.26434C15.1851 6.4082 15.2041 6.55207 15.2041 6.69371C15.2041 7.66731 14.4123 8.45913 13.4387 8.45913C13.2323 8.45913 13.0294 8.42122 12.8308 8.34649C11.3242 9.75616 9.7985 11.293 8.29293 12.919C8.44125 13.1822 8.51821 13.4733 8.51821 13.7733C8.51821 14.7469 7.72638 15.5387 6.75278 15.5387C6.51635 15.5387 6.28661 15.4907 6.06802 15.3959C5.4736 16.0796 4.93605 16.7108 4.42973 17.3208C4.37508 17.3866 4.29479 17.4212 4.2156 17.4212V17.4201ZM3.92229 16.5357L4.17992 16.7498C4.67731 16.1543 5.20705 15.5353 5.79144 14.8651C5.87954 14.7636 6.02787 14.7402 6.14386 14.8082C6.33679 14.9231 6.54311 14.9811 6.75389 14.9811C7.41969 14.9811 7.9617 14.4391 7.9617 13.7733C7.9617 13.5168 7.87806 13.2681 7.71858 13.055C7.63828 12.948 7.64609 12.7974 7.73754 12.6993C9.3446 10.9562 10.9762 9.31229 12.5855 7.81341C12.6714 7.73423 12.7963 7.71527 12.9011 7.7688C13.0773 7.8569 13.258 7.90263 13.4398 7.90263C14.1056 7.90263 14.6476 7.36062 14.6476 6.69482C14.6476 6.55765 14.6208 6.41601 14.5662 6.27215C14.5249 6.16285 14.5561 6.04017 14.6442 5.96322C15.3847 5.32196 16.0104 4.79668 16.5926 4.32828L16.384 4.0662C15.8074 4.53014 15.1896 5.04872 14.4602 5.67884C14.3643 5.76248 14.2249 5.77029 14.1201 5.6978C13.9182 5.55951 13.6829 5.4859 13.4387 5.4859C12.7729 5.4859 12.2308 6.02791 12.2308 6.69371C12.2308 6.88664 12.281 7.07735 12.3803 7.26136C12.4405 7.37289 12.4171 7.51118 12.3245 7.59705C10.6907 9.11936 9.03902 10.7878 7.41412 12.5532C7.34051 12.6335 7.22676 12.6625 7.12304 12.6301C6.98809 12.5866 6.86653 12.5655 6.75278 12.5655C6.08698 12.5655 5.54497 13.1075 5.54497 13.7733C5.54497 13.9417 5.58177 14.1078 5.65315 14.2673C5.69776 14.3666 5.68103 14.4837 5.60854 14.5651C4.98847 15.2744 4.43419 15.9223 3.92118 16.5357H3.92229Z" fill="#1D1D1B"/>
</g>
<defs>
<clipPath id="clip0_918_4236">
<rect width="30" height="30" fill="white"/>
</clipPath>
</defs>
</svg>
