<svg width="22" height="30" viewBox="0 0 22 30" fill="none" xmlns="http://www.w3.org/2000/svg">
<g clip-path="url(#clip0_918_5244)">
<path d="M9.99796 28.8414C5.1068 28.8414 1.1265 24.7488 1.1265 19.7172C1.1265 15.2086 8.31357 4.29787 9.99796 1.80413C11.2661 3.68216 15.6594 10.338 17.7483 15.4469L18.54 15.1048C16.0585 9.0371 10.4035 0.860696 10.3466 0.779042L9.99688 0.275879L9.64713 0.779042C9.26519 1.33076 0.268219 14.3556 0.268219 19.7183C0.268219 25.0809 4.6326 29.7253 9.99796 29.7253C13.975 29.7253 17.5133 27.2779 19.0132 23.4898L18.2182 23.1566C16.8514 26.6103 13.6242 28.8414 9.99796 28.8414Z" fill="#1D1D1B"/>
<path d="M9.99795 30C4.48454 30 0 25.3877 0 19.7183C0 14.0488 9.04526 1.17294 9.43041 0.619023L9.78016 0.11586C9.83059 0.0430337 9.91212 0 9.99795 0C10.0838 0 10.1653 0.0430337 10.2157 0.11586L10.5655 0.619023C10.6224 0.70178 16.3021 8.92121 18.7868 14.9989C18.8447 15.139 18.7804 15.3012 18.643 15.3597L17.8513 15.7018C17.7858 15.7305 17.7118 15.7305 17.6463 15.7018C17.5809 15.6742 17.5283 15.6212 17.5004 15.5528C15.5317 10.7375 11.5032 4.5373 9.99795 2.28741C8.12904 5.08239 1.39471 15.4469 1.39471 19.7183C1.39471 24.5976 5.25378 28.5666 9.99795 28.5666C13.5148 28.5666 16.6432 26.4028 17.9693 23.0528C18.0251 22.9116 18.1817 22.8443 18.319 22.9016L19.114 23.2349C19.1795 23.2625 19.232 23.3154 19.2599 23.3827C19.2878 23.4501 19.2878 23.5262 19.261 23.5935C17.7204 27.4853 14.0845 30.0011 9.99795 30.0011V30ZM9.99795 0.750331L9.86706 0.939017C9.76622 1.08467 7.36516 4.54943 5.04565 8.58467C2.09529 13.7156 0.536428 17.5655 0.536428 19.7183C0.536428 25.0842 4.78065 29.4494 9.99795 29.4494C13.7755 29.4494 17.1464 27.1785 18.6591 23.6398L18.3609 23.5152C16.8975 26.9281 13.6435 29.1184 9.99688 29.1184C4.95767 29.1184 0.857213 24.9022 0.857213 19.7183C0.857213 15.2074 7.6838 4.74584 9.77587 1.64742C9.8263 1.57349 9.90783 1.52935 9.99581 1.52935C10.0838 1.52935 10.1664 1.57349 10.2157 1.64742C11.4892 3.53318 15.7549 10.0004 17.8877 15.0872L18.1849 14.9592C15.6734 8.96315 10.1846 1.01957 10.1288 0.939017L9.99795 0.750331Z" fill="#1D1D1B"/>
<path d="M21.7318 18.5663H19.3758V16.1431H18.5175V18.5663H16.1615V19.449H18.5175V21.8721H19.3758V19.449H21.7318V18.5663Z" fill="#1D1D1B"/>
<path d="M19.3758 22.148H18.5175C18.3695 22.148 18.2493 22.0244 18.2493 21.8722V19.7249H16.1615C16.0135 19.7249 15.8933 19.6013 15.8933 19.449V18.5663C15.8933 18.414 16.0135 18.2904 16.1615 18.2904H18.2493V16.1432C18.2493 15.9909 18.3695 15.8673 18.5175 15.8673H19.3758C19.5239 15.8673 19.644 15.9909 19.644 16.1432V18.2904H21.7318C21.8799 18.2904 22 18.414 22 18.5663V19.449C22 19.6013 21.8799 19.7249 21.7318 19.7249H19.644V21.8722C19.644 22.0244 19.5239 22.148 19.3758 22.148ZM18.7857 21.5963H19.1076V19.449C19.1076 19.2968 19.2278 19.1732 19.3758 19.1732H21.4636V18.8422H19.3758C19.2278 18.8422 19.1076 18.7186 19.1076 18.5663V16.419H18.7857V18.5663C18.7857 18.7186 18.6656 18.8422 18.5175 18.8422H16.4297V19.1732H18.5175C18.6656 19.1732 18.7857 19.2968 18.7857 19.449V21.5963Z" fill="#1D1D1B"/>
<path d="M2.59311 19.7183C2.59311 23.9168 5.91467 27.3341 9.99797 27.3341V26.4514C6.38888 26.4514 3.45139 23.4313 3.45139 19.7183H2.59311Z" fill="#1D1D1B"/>
<path d="M9.99796 27.6089C5.76769 27.6089 2.32489 24.0691 2.32489 19.7171C2.32489 19.5649 2.44505 19.4413 2.5931 19.4413H3.45139C3.59944 19.4413 3.7196 19.5649 3.7196 19.7171C3.7196 23.2779 6.53585 26.1744 9.99796 26.1744C10.146 26.1744 10.2662 26.298 10.2662 26.4503V27.333C10.2662 27.4853 10.146 27.6089 9.99796 27.6089ZM2.86668 19.9941C3.00508 23.8219 6.00801 26.9104 9.72975 27.0527V26.7217C6.18503 26.5794 3.32694 23.6398 3.18854 19.9941H2.86668Z" fill="#1D1D1B"/>
</g>
<defs>
<clipPath id="clip0_918_5244">
<rect width="22" height="30" fill="white"/>
</clipPath>
</defs>
</svg>
