<svg width="30" height="30" viewBox="0 0 30 30" fill="none" xmlns="http://www.w3.org/2000/svg">
<g clip-path="url(#clip0_918_2325)">
<path d="M21.8203 21.7907H18.5648V18.697C18.5648 17.3788 17.4523 16.3048 16.0842 16.3048H8.51278V14.6108C8.51278 13.3093 7.41414 12.2498 6.06454 12.2498H2.8056C1.41784 12.2498 0.289124 13.3394 0.289124 14.6777V29.7201H25.1741V25.0249C25.1741 23.2416 23.6695 21.7907 21.8203 21.7907ZM24.2489 28.829H1.2143V14.6788C1.2143 13.8323 1.92784 13.1431 2.8056 13.1431H6.06454C6.90413 13.1431 7.58761 13.8022 7.58761 14.6119V17.1981H16.0842C16.9411 17.1981 17.6396 17.8706 17.6396 18.6981V22.684H21.8203C23.1595 22.684 24.2489 23.7346 24.2489 25.026V28.829Z" fill="#1D1D1B"/>
<path d="M25.174 30H0.289118C0.129525 30 0 29.8751 0 29.7212V14.6788C0 13.1866 1.25824 11.9721 2.8056 11.9721H6.06453C7.57373 11.9721 8.8019 13.1565 8.8019 14.6119V16.0271H16.0842C17.6107 16.0271 18.8539 17.2249 18.8539 18.6981V21.513H21.8203C23.8291 21.513 25.4632 23.0888 25.4632 25.026V29.7212C25.4632 29.8751 25.3336 30 25.174 30ZM0.578235 29.4424H24.8849V25.026C24.8849 23.3966 23.5099 22.0706 21.8203 22.0706H18.5648C18.4052 22.0706 18.2757 21.9457 18.2757 21.7918V18.6981C18.2757 17.5327 17.2927 16.5847 16.0842 16.5847H8.51278C8.35319 16.5847 8.22366 16.4598 8.22366 16.3059V14.6119C8.22366 13.4643 7.2557 12.5297 6.06453 12.5297H2.8056C1.57743 12.5297 0.578235 13.4933 0.578235 14.6788V29.4424ZM24.2489 29.1078H1.21429C1.0547 29.1078 0.925176 28.9829 0.925176 28.829V14.6788C0.925176 13.6784 1.7694 12.8643 2.8056 12.8643H6.06453C7.06372 12.8643 7.87672 13.6483 7.87672 14.6119V16.9193H16.0842C17.1007 16.9193 17.9288 17.7167 17.9288 18.6981V22.4052H21.8203C23.3191 22.4052 24.538 23.5807 24.538 25.026V28.829C24.538 28.9829 24.4085 29.1078 24.2489 29.1078ZM1.50341 28.5502H23.9598V25.026C23.9598 23.8885 22.9999 22.9628 21.8203 22.9628H17.6396C17.4801 22.9628 17.3505 22.8379 17.3505 22.684V18.6981C17.3505 18.0245 16.7827 17.4769 16.0842 17.4769H7.5876C7.42801 17.4769 7.29849 17.352 7.29849 17.1981V14.6119C7.29849 13.9561 6.74454 13.4219 6.06453 13.4219H2.8056C2.08743 13.4219 1.50341 13.9851 1.50341 14.6788V28.5502Z" fill="#1D1D1B"/>
<path d="M6.08769 9.33789C6.93076 9.33789 7.6177 8.67655 7.6177 7.86243C7.6177 7.0483 6.93191 6.38696 6.08769 6.38696C5.24347 6.38696 4.55768 7.0483 4.55768 7.86243C4.55768 8.67655 5.24347 9.33789 6.08769 9.33789ZM6.08769 7.28027C6.42075 7.28027 6.69252 7.54124 6.69252 7.86354C6.69252 8.18585 6.42191 8.44681 6.08769 8.44681C5.75347 8.44681 5.48285 8.18585 5.48285 7.86354C5.48285 7.54124 5.75463 7.28027 6.08769 7.28027Z" fill="#1D1D1B"/>
<path d="M6.08768 9.6167C5.08502 9.6167 4.26855 8.83046 4.26855 7.86243C4.26855 6.8944 5.08502 6.10815 6.08768 6.10815C7.09034 6.10815 7.90681 6.8944 7.90681 7.86243C7.90681 8.83046 7.0915 9.6167 6.08768 9.6167ZM6.08768 6.66689C5.40305 6.66689 4.84679 7.20332 4.84679 7.86354C4.84679 8.52377 5.40305 9.0602 6.08768 9.0602C6.77231 9.0602 7.32858 8.52377 7.32858 7.86354C7.32858 7.20332 6.77231 6.66689 6.08768 6.66689ZM6.08768 8.72451C5.59503 8.72451 5.19373 8.33752 5.19373 7.86243C5.19373 7.38734 5.59503 7.00035 6.08768 7.00035C6.58034 7.00035 6.98163 7.38734 6.98163 7.86243C6.98163 8.33752 6.58034 8.72451 6.08768 8.72451ZM6.08768 7.55908C5.91421 7.55908 5.77197 7.69514 5.77197 7.86354C5.77197 8.03195 5.91306 8.16801 6.08768 8.16801C6.26231 8.16801 6.4034 8.03195 6.4034 7.86354C6.4034 7.69514 6.26231 7.55908 6.08768 7.55908Z" fill="#1D1D1B"/>
<path d="M14.9347 7.2792C16.9354 7.2792 18.5637 5.70894 18.5637 3.77845C18.5637 1.84797 16.9354 0.27771 14.9347 0.27771C12.934 0.27771 11.3045 1.84797 11.3045 3.77845C11.3045 5.70894 12.9328 7.2792 14.9347 7.2792ZM14.9347 1.17102C16.4254 1.17102 17.6385 2.34091 17.6385 3.77957C17.6385 5.21823 16.4254 6.38812 14.9347 6.38812C13.444 6.38812 12.2297 5.21823 12.2297 3.77957C12.2297 2.34091 13.4428 1.17102 14.9347 1.17102Z" fill="#1D1D1B"/>
<path d="M14.9347 7.55799C12.7732 7.55799 11.0154 5.86283 11.0154 3.77844C11.0154 1.69405 12.7744 0 14.9347 0C17.0949 0 18.8528 1.69517 18.8528 3.77955C18.8528 5.86394 17.0949 7.55911 14.9347 7.55911V7.55799ZM14.9347 0.557621C13.0924 0.557621 11.5936 2.00297 11.5936 3.77955C11.5936 5.55613 13.0924 7.00149 14.9347 7.00149C16.7769 7.00149 18.2745 5.55613 18.2745 3.77955C18.2745 2.00297 16.7758 0.557621 14.9347 0.557621ZM14.9347 6.6658C13.2844 6.6658 11.9406 5.371 11.9406 3.77844C11.9406 2.18587 13.2832 0.891078 14.9347 0.891078C16.5861 0.891078 17.9276 2.18587 17.9276 3.77844C17.9276 5.371 16.5849 6.6658 14.9347 6.6658ZM14.9347 1.44981C13.6024 1.44981 12.5188 2.4948 12.5188 3.77955C12.5188 5.06431 13.6024 6.10929 14.9347 6.10929C16.2669 6.10929 17.3494 5.06431 17.3494 3.77955C17.3494 2.4948 16.2658 1.44981 14.9347 1.44981Z" fill="#1D1D1B"/>
<path d="M15.5742 12.271C15.5742 13.0662 16.245 13.713 17.0695 13.713C17.8941 13.713 18.5649 13.0662 18.5649 12.271C18.5649 11.4758 17.8941 10.829 17.0695 10.829C16.245 10.829 15.5742 11.4758 15.5742 12.271ZM17.6397 12.271C17.6397 12.5743 17.3841 12.8208 17.0695 12.8208C16.755 12.8208 16.4994 12.5743 16.4994 12.271C16.4994 11.9676 16.755 11.7212 17.0695 11.7212C17.3841 11.7212 17.6397 11.9676 17.6397 12.271Z" fill="#1D1D1B"/>
<path d="M17.0695 13.9918C16.0854 13.9918 15.2851 13.2201 15.2851 12.271C15.2851 11.3219 16.0854 10.5502 17.0695 10.5502C18.0537 10.5502 18.854 11.3219 18.854 12.271C18.854 13.2201 18.0537 13.9918 17.0695 13.9918ZM17.0695 11.1078C16.4046 11.1078 15.8633 11.6297 15.8633 12.271C15.8633 12.9123 16.4046 13.4342 17.0695 13.4342C17.7345 13.4342 18.2757 12.9123 18.2757 12.271C18.2757 11.6297 17.7345 11.1078 17.0695 11.1078ZM17.0695 13.0996C16.5954 13.0996 16.2103 12.7282 16.2103 12.271C16.2103 11.8137 16.5954 11.4424 17.0695 11.4424C17.5437 11.4424 17.9288 11.8137 17.9288 12.271C17.9288 12.7282 17.5437 13.0996 17.0695 13.0996ZM17.0695 12C16.9146 12 16.7885 12.1215 16.7885 12.271C16.7885 12.4204 16.9146 12.542 17.0695 12.542C17.2245 12.542 17.3506 12.4204 17.3506 12.271C17.3506 12.1215 17.2245 12 17.0695 12Z" fill="#1D1D1B"/>
<path d="M26.43 6.38696C24.6201 6.38696 23.1479 7.80667 23.1479 9.55202C23.1479 11.2974 24.6201 12.7171 26.43 12.7171C28.2398 12.7171 29.712 11.2974 29.712 9.55202C29.712 7.80667 28.2398 6.38696 26.43 6.38696ZM26.43 11.8249C25.1301 11.8249 24.0731 10.8056 24.0731 9.55202C24.0731 8.29849 25.1301 7.27916 26.43 7.27916C27.7298 7.27916 28.7868 8.29849 28.7868 9.55202C28.7868 10.8056 27.7298 11.8249 26.43 11.8249Z" fill="#1D1D1B"/>
<path d="M26.43 12.9959C24.4605 12.9959 22.8588 11.4513 22.8588 9.55202C22.8588 7.65276 24.4605 6.10815 26.43 6.10815C28.3995 6.10815 30.0012 7.65276 30.0012 9.55202C30.0012 11.4513 28.3995 12.9959 26.43 12.9959ZM26.43 6.66578C24.7797 6.66578 23.4371 7.96057 23.4371 9.55202C23.4371 11.1435 24.7797 12.4383 26.43 12.4383C28.0803 12.4383 29.423 11.1435 29.423 9.55202C29.423 7.96057 28.0803 6.66578 26.43 6.66578ZM26.43 12.1037C24.9705 12.1037 23.784 10.9595 23.784 9.55202C23.784 8.14459 24.9705 7.00035 26.43 7.00035C27.8895 7.00035 29.076 8.14459 29.076 9.55202C29.076 10.9595 27.8895 12.1037 26.43 12.1037ZM26.43 7.55797C25.2897 7.55797 24.3622 8.45239 24.3622 9.55202C24.3622 10.6516 25.2897 11.5461 26.43 11.5461C27.5703 11.5461 28.4978 10.6516 28.4978 9.55202C28.4978 8.45239 27.5703 7.55797 26.43 7.55797Z" fill="#1D1D1B"/>
<path d="M25.8818 15.1517C24.3737 15.1517 23.1467 16.3349 23.1467 17.7881C23.1467 19.2413 24.3737 20.4256 25.8818 20.4256C27.3898 20.4256 28.6168 19.2424 28.6168 17.7881C28.6168 16.3338 27.3898 15.1517 25.8818 15.1517ZM25.8818 19.5335C24.8837 19.5335 24.0719 18.7506 24.0719 17.7881C24.0719 16.8257 24.8837 16.0439 25.8818 16.0439C26.8798 16.0439 27.6917 16.8268 27.6917 17.7881C27.6917 18.7494 26.8798 19.5335 25.8818 19.5335Z" fill="#1D1D1B"/>
<path d="M25.8818 20.7045C24.2142 20.7045 22.8577 19.3963 22.8577 17.7881C22.8577 16.1799 24.2142 14.8729 25.8818 14.8729C27.5495 14.8729 28.906 16.181 28.906 17.7881C28.906 19.3952 27.5495 20.7045 25.8818 20.7045ZM25.8818 15.4305C24.5334 15.4305 23.4359 16.4888 23.4359 17.7881C23.4359 19.0874 24.5334 20.1468 25.8818 20.1468C27.2303 20.1468 28.3278 19.0885 28.3278 17.7881C28.3278 16.4877 27.2303 15.4305 25.8818 15.4305ZM25.8818 19.8123C24.7242 19.8123 23.7828 18.9045 23.7828 17.7881C23.7828 16.6717 24.7242 15.7651 25.8818 15.7651C27.0395 15.7651 27.9808 16.6729 27.9808 17.7881C27.9808 18.9033 27.0395 19.8123 25.8818 19.8123ZM25.8818 16.3227C25.0434 16.3227 24.3611 16.9807 24.3611 17.7881C24.3611 18.5955 25.0434 19.2546 25.8818 19.2546C26.7203 19.2546 27.4026 18.5967 27.4026 17.7881C27.4026 16.9796 26.7203 16.3227 25.8818 16.3227Z" fill="#1D1D1B"/>
</g>
<defs>
<clipPath id="clip0_918_2325">
<rect width="30" height="30" fill="white"/>
</clipPath>
</defs>
</svg>
