<svg width="27" height="23" viewBox="0 0 27 23" fill="none" xmlns="http://www.w3.org/2000/svg">
<path d="M7.63814 3.36038L7.61243 3.3861V1.19465C7.61243 0.642829 7.16544 0.197815 6.6156 0.197815C6.06576 0.197815 5.61876 0.644807 5.61876 1.19465V3.3861L5.59305 3.36038C5.20342 2.97075 4.57249 2.97075 4.18285 3.36038C3.79322 3.75002 3.79322 4.38095 4.18285 4.77058L5.91148 6.49922C6.10531 6.69305 6.36243 6.79194 6.61757 6.79194C6.87272 6.79194 7.12786 6.69503 7.32366 6.49922L9.0523 4.77058C9.44193 4.38095 9.44193 3.75002 9.0523 3.36038C8.66266 2.97075 8.03173 2.97075 7.6421 3.36038H7.63814Z" fill="black"/>
<path d="M21.8051 3.16257L21.7794 3.18828V0.996832C21.7794 0.445015 21.3324 0 20.7826 0C20.2327 0 19.7858 0.446992 19.7858 0.996832V3.18828L19.76 3.16257C19.3704 2.77293 18.7395 2.77293 18.3498 3.16257C17.9602 3.5522 17.9602 4.18313 18.3498 4.57277L20.0785 6.3014C20.2723 6.49523 20.5294 6.59412 20.7846 6.59412C21.0397 6.59412 21.2949 6.49721 21.4907 6.3014L23.2193 4.57277C23.6089 4.18313 23.6089 3.5522 23.2193 3.16257C22.8297 2.77293 22.1987 2.77293 21.8091 3.16257H21.8051Z" fill="black"/>
<path d="M8.65305 16.1708C8.29111 15.9295 7.80258 15.9553 7.46635 16.2302C7.1578 16.4814 7.02726 16.9125 7.14594 17.2903C7.27054 17.6938 7.64237 17.9845 8.06761 17.9964C8.48493 18.0102 8.87259 17.7531 9.02686 17.3655C9.19893 16.9323 9.03873 16.428 8.65305 16.1689V16.1708Z" fill="black"/>
<path d="M20.2731 16.1708C19.9329 15.9434 19.478 15.9513 19.1437 16.1866C18.8055 16.424 18.6513 16.8611 18.7581 17.2586C18.8649 17.6582 19.215 17.9529 19.6263 17.9924C20.0516 18.0339 20.4649 17.7887 20.635 17.3971C20.8249 16.958 20.6687 16.4378 20.2731 16.1708Z" fill="black"/>
<path d="M10.2762 11.6475C9.86283 11.6772 9.50286 11.9699 9.38815 12.3674C9.27343 12.7689 9.4277 13.208 9.76591 13.4513C10.0982 13.6906 10.559 13.6965 10.9012 13.4711C11.2928 13.212 11.4491 12.6938 11.2691 12.2606C11.1089 11.869 10.6995 11.6159 10.2762 11.6475Z" fill="black"/>
<path d="M19.7205 11.6475C19.3072 11.6772 18.9492 11.9699 18.8325 12.3674C18.7178 12.767 18.872 13.21 19.2103 13.4513C19.5425 13.6906 20.0034 13.6985 20.3436 13.4711C20.7332 13.21 20.8914 12.6938 20.7114 12.2606C20.5512 11.869 20.1418 11.6159 19.7205 11.6475Z" fill="black"/>
<path d="M13.5522 20.2967H1.98976V8.39401C2.29237 8.53246 2.56729 8.70453 2.87188 8.89836C3.72828 9.43831 4.69742 10.0495 6.56451 10.0495C8.43159 10.0495 9.40271 9.43831 10.2571 8.89836C11.0048 8.42763 11.5942 8.0558 12.8857 8.0558C13.1309 8.0558 13.3505 8.06964 13.5522 8.09536V6.08982C13.3426 6.07202 13.1211 6.06213 12.8857 6.06213C11.0166 6.06213 10.0475 6.67329 9.19306 7.21324C8.44741 7.68396 7.85604 8.05778 6.56451 8.05778C5.27298 8.05778 4.6816 7.68594 3.93595 7.21522C3.23382 6.77218 2.43675 6.26981 1.10962 6.11356C0.826787 6.07993 0.543956 6.16894 0.330349 6.35881C0.116742 6.54868 -0.00390625 6.81965 -0.00390625 7.10446V21.2994C-0.00390625 21.8512 0.443086 22.2963 0.992926 22.2963H13.5542V20.3006L13.5522 20.2967Z" fill="black"/>
<path d="M13.4434 20.2967H25.0058V8.39401C24.7032 8.53246 24.4283 8.70453 24.1237 8.89836C23.2673 9.43831 22.2982 10.0495 20.4311 10.0495C18.564 10.0495 17.5929 9.43831 16.7385 8.89836C15.9908 8.42763 15.4014 8.0558 14.1099 8.0558C13.8647 8.0558 13.6451 8.06964 13.4434 8.09536V6.08982C13.653 6.07202 13.8746 6.06213 14.1099 6.06213C15.979 6.06213 16.9481 6.67329 17.8025 7.21324C18.5482 7.68396 19.1396 8.05778 20.4311 8.05778C21.7226 8.05778 22.314 7.68594 23.0597 7.21522C23.7618 6.77218 24.5589 6.26981 25.886 6.11356C26.1688 6.07993 26.4517 6.16894 26.6653 6.35881C26.8789 6.54868 26.9995 6.81965 26.9995 7.10446V21.2994C26.9995 21.8512 26.5525 22.2963 26.0027 22.2963H13.4414V20.3006L13.4434 20.2967Z" fill="black"/>
</svg>
