<svg width="36" height="30" viewBox="0 0 36 30" fill="none" xmlns="http://www.w3.org/2000/svg">
<g clip-path="url(#clip0_918_6738)">
<path d="M26.3697 23.9487V24.5002C26.3697 26.7338 24.5517 28.551 22.3173 28.551C20.0828 28.551 18.2648 26.7338 18.2648 24.5002V23.9487H0.344849V25.0517H17.1917C17.4676 27.6355 19.6621 29.654 22.3186 29.654C24.9752 29.654 27.1683 27.6355 27.4455 25.0517H35.6566V23.9487H26.3711H26.3697Z" fill="#1D1D1B"/>
<path d="M22.3172 30C19.6028 30 17.3228 28.0422 16.8897 25.3978H0.344828C0.154483 25.3978 0 25.2434 0 25.0531V23.9501C0 23.7598 0.154483 23.6054 0.344828 23.6054H18.2648C18.4552 23.6054 18.6097 23.7598 18.6097 23.9501V24.5016C18.6097 26.5449 20.2731 28.2076 22.3172 28.2076C24.3614 28.2076 26.0248 26.5449 26.0248 24.5016V23.9501C26.0248 23.7598 26.1793 23.6054 26.3697 23.6054H35.6552C35.8455 23.6054 36 23.7598 36 23.9501V25.0531C36 25.2434 35.8455 25.3978 35.6552 25.3978H27.7448C27.3117 28.0422 25.0317 30 22.3172 30ZM0.689655 24.707H17.1917C17.3683 24.707 17.5159 24.8394 17.5352 25.0145C17.7972 27.4631 19.8538 29.3093 22.3186 29.3093C24.7834 29.3093 26.84 27.4631 27.1021 25.0145C27.1214 24.8394 27.269 24.707 27.4455 24.707H35.3117V24.2934H26.7159V24.5002C26.7159 26.924 24.7434 28.8956 22.3186 28.8956C19.8938 28.8956 17.9214 26.924 17.9214 24.5002V24.2934H0.689655V24.707Z" fill="#1D1D1B"/>
<path d="M22.2704 27.5073C23.0897 27.5073 23.9324 27.0867 24.5269 26.3836C25.1628 25.6308 25.4331 24.6519 25.2704 23.7006C24.0952 16.8344 26.3366 3.64541 26.7986 1.0713C26.851 0.770736 26.68 0.479822 26.3917 0.380553C26.0993 0.279905 25.7807 0.403992 25.6345 0.675603C18.5352 13.9377 19.2303 23.4414 19.2607 23.7943C19.2607 25.8417 20.6097 27.5086 22.269 27.5086L22.2704 27.5073ZM25.1945 4.00388C24.411 9.08867 23.2441 18.3993 24.1835 23.8867C24.291 24.5168 24.109 25.1689 23.6841 25.6722C23.2979 26.1299 22.7697 26.4043 22.2717 26.4043C21.2221 26.4043 20.3669 25.2323 20.3655 23.7474C20.3586 23.6606 19.7738 15.4971 25.1959 4.0025L25.1945 4.00388Z" fill="#1D1D1B"/>
<path d="M22.2703 27.8519C20.4262 27.8519 18.9241 26.0389 18.9172 23.8081C18.8689 23.2276 18.2137 13.8067 25.331 0.511488C25.5586 0.0882145 26.0524 -0.10343 26.5048 0.053746C26.9544 0.208165 27.2206 0.66177 27.1379 1.13054C26.6786 3.695 24.4441 16.8302 25.6096 23.6426C25.7889 24.696 25.491 25.7755 24.7889 26.6069C24.131 27.3873 23.1889 27.8533 22.2689 27.8533L22.2703 27.8519ZM26.1862 0.689345C26.0855 0.689345 25.9889 0.744495 25.9393 0.83687C18.8441 14.0907 19.5972 23.6674 19.6055 23.7626C19.6055 23.7722 19.6055 23.7832 19.6055 23.7929C19.6055 25.6501 20.8 27.1625 22.2689 27.1625C22.9875 27.1625 23.7324 26.7889 24.262 26.1616C24.8317 25.486 25.0758 24.6105 24.9296 23.7584C23.7434 16.833 25.9944 3.59297 26.4579 1.00921C26.4813 0.876854 26.4055 0.748631 26.2786 0.704511C26.2482 0.693481 26.2165 0.687966 26.1848 0.687966L26.1862 0.689345ZM22.2703 26.7489C21.0124 26.7489 20.0262 25.4377 20.0193 23.7598C19.9917 23.3558 19.5351 15.1909 24.8827 3.85631C24.9558 3.70189 25.131 3.6233 25.2951 3.67432C25.4593 3.72395 25.5613 3.88664 25.5351 4.05623C24.7572 9.10517 23.5917 18.3868 24.5227 23.8287C24.6482 24.5595 24.4386 25.3136 23.9462 25.8955C23.4951 26.4304 22.8689 26.7503 22.2703 26.7503V26.7489ZM24.4937 6.41801C20.2151 16.5862 20.7006 23.6454 20.7075 23.7212C20.7075 23.7295 20.7075 23.7391 20.7075 23.7488C20.7089 25.0241 21.4096 26.0609 22.2689 26.0609C22.6662 26.0609 23.0965 25.8334 23.4179 25.4515C23.7779 25.0255 23.9324 24.4767 23.8413 23.9459C23.0317 19.2127 23.771 11.6848 24.4924 6.41939L24.4937 6.41801Z" fill="#1D1D1B"/>
<path d="M8.79175 17.6354C8.79175 17.044 8.55865 16.6235 8.17658 16.367C7.81796 16.1106 7.3283 16.0016 6.84554 16.0016C6.7214 16.0016 6.62761 16.0016 6.51865 16.0168L6.62761 15.2392H8.59037V14.2658H5.80278L5.46761 16.9199C5.67727 16.8882 5.87313 16.873 6.15313 16.873C7.16554 16.873 7.57796 17.1929 7.57796 17.714C7.57796 18.2352 7.05658 18.4848 6.56554 18.4848C6.10623 18.4848 5.64692 18.3441 5.42071 18.2352L5.21106 19.1231C5.49106 19.2706 6.00554 19.4113 6.62071 19.4113C7.98347 19.4113 8.79313 18.5785 8.79313 17.6368L8.79175 17.6354Z" fill="#1D1D1B"/>
<path d="M6.61934 19.7546C6.02486 19.7546 5.43865 19.6319 5.04969 19.4265C4.91038 19.3534 4.83865 19.1948 4.87452 19.0418L5.08417 18.1553C5.10762 18.0532 5.17659 17.9678 5.27176 17.9236C5.36555 17.8781 5.4759 17.8795 5.56969 17.9236C5.749 18.0091 6.16141 18.1387 6.56417 18.1387C6.59176 18.1387 7.23176 18.1332 7.23176 17.7127C7.23176 17.5776 7.23176 17.2163 6.15176 17.2163C5.90624 17.2163 5.72693 17.2288 5.51727 17.2591C5.40969 17.2742 5.3021 17.2398 5.22624 17.1639C5.149 17.0881 5.11176 16.982 5.12555 16.8744L5.46072 14.2203C5.48279 14.048 5.629 13.9184 5.80279 13.9184H8.59038C8.78072 13.9184 8.93521 14.0728 8.93521 14.2631V15.2365C8.93521 15.4267 8.78072 15.5812 8.59038 15.5812H6.92831L6.91728 15.6556C7.48969 15.6666 8.00693 15.8183 8.37796 16.0858C8.72003 16.316 9.13659 16.7765 9.13659 17.6355C9.13659 18.6888 8.27176 19.7546 6.61934 19.7546ZM5.61383 18.9163C5.85934 18.9963 6.20969 19.0652 6.61934 19.0652C7.52693 19.0652 8.44693 18.5744 8.44693 17.6355C8.44693 17.1901 8.29107 16.8592 7.98486 16.6524C7.70486 16.4525 7.30348 16.345 6.84555 16.345C6.72831 16.345 6.65107 16.345 6.56555 16.3574C6.45796 16.3726 6.35038 16.3367 6.27452 16.2595C6.19865 16.1837 6.16141 16.0747 6.17659 15.9686L6.28555 15.191C6.309 15.02 6.45521 14.8945 6.62762 14.8945H8.24555V14.6105H6.10624L5.86348 16.5352C5.95452 16.5311 6.04831 16.5284 6.15314 16.5284C6.81383 16.5284 7.92279 16.6828 7.92279 17.7141C7.92279 18.3703 7.36417 18.8295 6.56555 18.8295C6.25521 18.8295 5.93383 18.7716 5.66624 18.6944L5.61383 18.9177V18.9163Z" fill="#1D1D1B"/>
<path d="M10.9903 17.9622L9.78343 18.0408C9.67446 18.7481 9.4648 19.5574 9.22205 20.2509L10.0083 20.1806C10.382 19.574 10.7324 18.7564 10.9889 17.9622H10.9903Z" fill="#1D1D1B"/>
<path d="M9.22346 20.5956C9.11725 20.5956 9.01656 20.5473 8.95173 20.4632C8.88001 20.3709 8.85932 20.2482 8.89794 20.1379C9.14208 19.4375 9.3407 18.6543 9.44415 17.9884C9.46898 17.8285 9.60139 17.7071 9.76277 17.6975L10.9697 17.6189C11.0828 17.6134 11.1945 17.6616 11.2635 17.7513C11.3338 17.8409 11.3545 17.9608 11.3186 18.0697C11.0386 18.9328 10.669 19.7684 10.3035 20.3626C10.2469 20.455 10.149 20.5156 10.04 20.5253L9.2538 20.5956C9.24415 20.5956 9.23311 20.5956 9.22346 20.5956ZM10.0786 18.3676C9.99173 18.8446 9.86484 19.3616 9.71311 19.8621L9.80415 19.8538C10.0455 19.4347 10.2869 18.9053 10.4952 18.3414L10.0786 18.3689V18.3676Z" fill="#1D1D1B"/>
<path d="M15.1421 17.6354C15.1421 17.044 14.909 16.6235 14.5269 16.367C14.1683 16.1106 13.6786 16.0016 13.1959 16.0016C13.0717 16.0016 12.978 16.0016 12.869 16.0168L12.978 15.2392H14.9407V14.2658H12.1531L11.818 16.9199C12.0276 16.8882 12.2235 16.873 12.5035 16.873C13.5159 16.873 13.9283 17.1929 13.9283 17.714C13.9283 18.2352 13.4069 18.4848 12.9159 18.4848C12.4566 18.4848 11.9973 18.3441 11.7711 18.2352L11.5614 19.1231C11.8414 19.2706 12.3559 19.4113 12.9711 19.4113C14.3338 19.4113 15.1435 18.5785 15.1435 17.6368L15.1421 17.6354Z" fill="#1D1D1B"/>
<path d="M12.9697 19.7546C12.3752 19.7546 11.789 19.6319 11.4 19.4265C11.2607 19.3534 11.189 19.1948 11.2249 19.0418L11.4345 18.1553C11.458 18.0532 11.5269 17.9678 11.6221 17.9236C11.7159 17.8795 11.8262 17.8795 11.92 17.9236C12.0993 18.0105 12.5118 18.1387 12.9145 18.1387C12.9421 18.1387 13.5821 18.1332 13.5821 17.7127C13.5821 17.5776 13.5821 17.2163 12.5021 17.2163C12.2566 17.2163 12.0773 17.2288 11.8662 17.2591C11.76 17.2742 11.6511 17.2398 11.5752 17.1639C11.498 17.0881 11.4607 16.982 11.4745 16.8744L11.8097 14.2203C11.8318 14.048 11.978 13.9184 12.1518 13.9184H14.9393C15.1297 13.9184 15.2842 14.0728 15.2842 14.2631V15.2365C15.2842 15.4267 15.1297 15.5812 14.9393 15.5812H13.2773L13.2662 15.6556C13.8387 15.6666 14.3559 15.8183 14.7269 16.0858C15.069 16.316 15.4855 16.7765 15.4855 17.6355C15.4855 18.6888 14.6207 19.7546 12.9683 19.7546H12.9697ZM11.9642 18.9163C12.2097 18.9963 12.56 19.0652 12.9697 19.0652C13.8773 19.0652 14.7973 18.5744 14.7973 17.6355C14.7973 17.1901 14.6414 16.8592 14.3352 16.6524C14.0552 16.4525 13.6538 16.345 13.1959 16.345C13.0787 16.345 13.0014 16.345 12.9159 16.3574C12.8083 16.3726 12.7007 16.3367 12.6249 16.2595C12.549 16.1837 12.5118 16.0747 12.5269 15.9686L12.6359 15.191C12.6593 15.02 12.8055 14.8945 12.978 14.8945H14.5959V14.6105H12.4566L12.2138 16.5352C12.3049 16.5311 12.3987 16.5284 12.5035 16.5284C13.1642 16.5284 14.2731 16.6828 14.2731 17.7141C14.2731 18.3703 13.7145 18.8295 12.9159 18.8295C12.6055 18.8295 12.2842 18.7716 12.018 18.6944L11.9655 18.9177L11.9642 18.9163Z" fill="#1D1D1B"/>
</g>
<defs>
<clipPath id="clip0_918_6738">
<rect width="36" height="30" fill="white"/>
</clipPath>
</defs>
</svg>
