<svg width="26" height="23" viewBox="0 0 26 23" fill="none" xmlns="http://www.w3.org/2000/svg">
<path d="M23.4722 2.42713C22.103 1.05436 20.288 0.216499 18.355 0.0648955C16.4221 -0.0867076 14.4986 0.457944 12.9322 1.60047C11.2887 0.378083 9.24315 -0.176205 7.20739 0.0492241C5.17163 0.274654 3.29689 1.26306 1.96071 2.81539C0.624522 4.36772 -0.0738619 6.36868 0.00619406 8.41532C0.08625 10.462 0.938799 12.4022 2.39216 13.8455L10.4134 21.8796C11.0851 22.5407 11.9897 22.9112 12.9322 22.9112C13.8746 22.9112 14.7792 22.5407 15.4509 21.8796L23.4722 13.8455C24.9803 12.3281 25.8268 10.2757 25.8268 8.1363C25.8268 5.99695 24.9803 3.9445 23.4722 2.42713ZM21.6509 12.063L13.6297 20.0842C13.5384 20.1764 13.4297 20.2495 13.31 20.2995C13.1903 20.3494 13.0619 20.3751 12.9322 20.3751C12.8024 20.3751 12.674 20.3494 12.5543 20.2995C12.4346 20.2495 12.3259 20.1764 12.2347 20.0842L4.21341 12.0242C3.20043 10.9887 2.6332 9.59778 2.6332 8.14922C2.6332 6.70066 3.20043 5.30969 4.21341 4.27422C5.24565 3.25508 6.63783 2.68362 8.08841 2.68362C9.53899 2.68362 10.9312 3.25508 11.9634 4.27422C12.0835 4.39528 12.2263 4.49138 12.3837 4.55695C12.5411 4.62253 12.71 4.65629 12.8805 4.65629C13.051 4.65629 13.2198 4.62253 13.3772 4.55695C13.5346 4.49138 13.6775 4.39528 13.7976 4.27422C14.8298 3.25508 16.222 2.68362 17.6726 2.68362C19.1232 2.68362 20.5153 3.25508 21.5476 4.27422C22.5745 5.29612 23.1603 6.67955 23.1796 8.12815C23.199 9.57674 22.6502 10.9753 21.6509 12.0242V12.063Z" fill="white"/>
</svg>
