<svg width="13" height="30" viewBox="0 0 13 30" fill="none" xmlns="http://www.w3.org/2000/svg">
<g clip-path="url(#clip0_918_1264)">
<path d="M12.0252 13.4688L9.83397 10.839C10.7146 10.6283 11.3727 9.85093 11.3727 8.92082V7.21896C11.3727 6.12714 10.4694 5.2394 9.3585 5.2394H8.35082V2.09777C8.35082 1.09405 7.52016 0.278809 6.5 0.278809C5.47983 0.278809 4.64918 1.09517 4.64918 2.09777V5.2394H3.6415C2.53055 5.2394 1.62727 6.12714 1.62727 7.21896V8.92082C1.62727 9.85093 2.28544 10.6271 3.16602 10.839L0.97477 13.4688C0.528803 14.003 0.283691 14.6788 0.283691 15.3703V29.7212H12.7163V15.3703C12.7163 14.6788 12.4712 14.003 12.0252 13.4688ZM5.557 2.09777C5.557 1.58699 5.98027 1.171 6.5 1.171C7.01973 1.171 7.443 1.58699 7.443 2.09777V5.2394H5.557V2.09777ZM3.6415 10.0082C3.03099 10.0082 2.53509 9.5197 2.53509 8.92082V7.21896C2.53509 6.61896 3.03212 6.1316 3.6415 6.1316H9.35964C9.97015 6.1316 10.466 6.62007 10.466 7.21896V8.92082C10.466 9.52082 9.96901 10.0082 9.35964 10.0082H9.14289L9.13722 10.0015L9.12814 10.0082H3.87299L3.86391 10.0015L3.85824 10.0082H3.6415ZM5.557 10.9004H7.443V24.7082C7.443 25.219 7.01973 25.6349 6.5 25.6349C5.98027 25.6349 5.557 25.219 5.557 24.7082V10.9004ZM11.8085 28.829H1.19151V15.3703C1.19151 14.884 1.364 14.41 1.6772 14.0342L4.28832 10.9015H4.64918V24.7093C4.64918 25.713 5.47983 26.5282 6.5 26.5282C7.52016 26.5282 8.35082 25.7119 8.35082 24.7093V10.9015H8.71168L11.3228 14.0342C11.636 14.41 11.8085 14.884 11.8085 15.3703V28.829Z" fill="#1D1D1B"/>
<path d="M12.7163 30H0.283694C0.127095 30 0 29.8751 0 29.7212V15.3703C0 14.6141 0.268942 13.8758 0.755761 13.2914L2.68942 10.9706C1.87919 10.6104 1.34358 9.81747 1.34358 8.92082V7.21896C1.34358 5.97323 2.37395 4.96059 3.6415 4.96059H4.36549V2.09777C4.36549 0.941264 5.32324 0 6.5 0C7.67676 0 8.63451 0.941264 8.63451 2.09777V4.96059H9.3585C10.626 4.96059 11.6564 5.97323 11.6564 7.21896V8.92082C11.6564 9.81747 11.1197 10.6104 10.3106 10.9706L12.2442 13.2914C12.7311 13.8758 13 14.6141 13 15.3691V29.7201C13 29.874 12.8729 29.9989 12.7163 29.9989V30ZM0.567388 29.4424H12.4326V15.3703C12.4326 14.7424 12.2102 14.1301 11.8051 13.645L9.61383 11.0152C9.55255 10.9405 9.53326 10.8413 9.5639 10.7498C9.59454 10.6584 9.67057 10.5903 9.76589 10.5669C10.5443 10.3807 11.089 9.7026 11.089 8.9197V7.21784C11.089 6.27993 10.3128 5.5171 9.3585 5.5171H8.35082C8.19422 5.5171 8.06713 5.39219 8.06713 5.23829V2.09665C8.06713 1.24684 7.36356 0.556506 6.5 0.556506C5.63644 0.556506 4.93287 1.24796 4.93287 2.09665V5.23829C4.93287 5.39219 4.80578 5.5171 4.64918 5.5171H3.6415C2.68715 5.5171 1.91096 6.27993 1.91096 7.21784V8.9197C1.91096 9.7026 2.45452 10.3807 3.23411 10.5669C3.3283 10.5892 3.40546 10.6584 3.4361 10.7498C3.46674 10.8413 3.44859 10.9405 3.38617 11.0152L1.19492 13.645C0.789804 14.1301 0.567388 14.7424 0.567388 15.3703V29.4424ZM11.8085 29.1078H1.19152C1.03492 29.1078 0.907821 28.9829 0.907821 28.829V15.3703C0.907821 14.8193 1.103 14.2829 1.45819 13.8569L4.06817 10.7242C4.12264 10.6595 4.20321 10.6216 4.28719 10.6216H4.64804C4.80464 10.6216 4.93174 10.7465 4.93174 10.9004V24.7082C4.93174 25.558 5.6353 26.2483 6.49887 26.2483C7.36243 26.2483 8.06599 25.5569 8.06599 24.7082V10.9004C8.06599 10.7465 8.19309 10.6216 8.34969 10.6216H8.71054C8.79565 10.6216 8.87622 10.6595 8.92956 10.7242L11.5407 13.8569C11.8947 14.2818 12.091 14.8193 12.091 15.3691V28.8279C12.091 28.9818 11.9639 29.1067 11.8074 29.1067L11.8085 29.1078ZM1.47521 28.5502H11.5248V15.3703C11.5248 14.9487 11.375 14.5372 11.1038 14.2104L8.63565 11.2483V24.7082C8.63565 25.8647 7.6779 26.8059 6.50113 26.8059C5.32437 26.8059 4.36662 25.8647 4.36662 24.7082V11.2483L1.89848 14.2104C1.62613 14.5361 1.47634 14.9476 1.47634 15.3703V28.5502H1.47521ZM6.5 25.9138C5.82367 25.9138 5.27331 25.3729 5.27331 24.7082V10.9004C5.27331 10.7465 5.4004 10.6216 5.557 10.6216H7.443C7.5996 10.6216 7.72669 10.7465 7.72669 10.9004V24.7082C7.72669 25.3729 7.17633 25.9138 6.5 25.9138ZM5.84069 11.1792V24.7082C5.84069 25.0662 6.13687 25.3561 6.5 25.3561C6.86313 25.3561 7.15931 25.0651 7.15931 24.7082V11.1792H5.84069ZM9.35964 10.287H9.14289C9.14289 10.287 9.13382 10.287 9.12814 10.287H3.87299C3.87299 10.287 3.86391 10.287 3.85824 10.287H3.6415C2.87552 10.287 2.2514 9.67361 2.2514 8.92082V7.21896C2.2514 6.46617 2.87552 5.85279 3.6415 5.85279H9.35964C10.1256 5.85279 10.7497 6.46617 10.7497 7.21896V8.92082C10.7497 9.67361 10.1256 10.287 9.35964 10.287ZM9.17694 9.72937H9.35964C9.81355 9.72937 10.1824 9.36691 10.1824 8.92082V7.21896C10.1824 6.77286 9.81355 6.41041 9.35964 6.41041H3.6415C3.18759 6.41041 2.81878 6.77286 2.81878 7.21896V8.92082C2.81878 9.36691 3.18759 9.72937 3.6415 9.72937H3.81739C3.81739 9.72937 3.8276 9.72825 3.83328 9.72714C3.86051 9.72491 3.88661 9.72491 3.91384 9.72937H9.09296C9.11566 9.72602 9.13949 9.72491 9.16219 9.72714C9.16786 9.72714 9.17353 9.72825 9.17921 9.72937H9.17694ZM7.443 5.51822H5.557C5.4004 5.51822 5.27331 5.39331 5.27331 5.23941V2.09777C5.27331 1.43309 5.82367 0.892193 6.5 0.892193C7.17633 0.892193 7.72669 1.43309 7.72669 2.09777V5.23941C7.72669 5.39331 7.5996 5.51822 7.443 5.51822ZM5.84069 4.96059H7.15931V2.09777C7.15931 1.73978 6.86313 1.44981 6.5 1.44981C6.13687 1.44981 5.84069 1.74089 5.84069 2.09777V4.96059Z" fill="#1D1D1B"/>
</g>
<defs>
<clipPath id="clip0_918_1264">
<rect width="13" height="30" fill="white"/>
</clipPath>
</defs>
</svg>
