<svg width="35" height="34" viewBox="0 0 35 34" fill="none" xmlns="http://www.w3.org/2000/svg">
<mask id="mask0_1118_8222" style="mask-type:luminance" maskUnits="userSpaceOnUse" x="0" y="0" width="35" height="34">
<path d="M34.9981 0H0V33.4896H34.9981V0Z" fill="white"/>
</mask>
<g mask="url(#mask0_1118_8222)">
<path d="M14.0356 15.2391L15.2386 14.0361L16.4417 15.2391L15.2386 16.4421L14.0356 15.2391ZM12.4549 14.8862L6.4834 8.91463L9.62002 7.19167L10.4644 8.03607L9.76993 8.73056C9.50237 8.99812 9.50237 9.43075 9.76993 9.69641C9.90275 9.82924 10.0792 9.89755 10.2538 9.89755C10.4284 9.89755 10.6029 9.83113 10.7377 9.69641L11.4322 9.00191L12.6352 10.2049L11.9407 10.8994C11.6732 11.167 11.6732 11.5996 11.9407 11.8653C12.0735 11.9981 12.25 12.0664 12.4246 12.0664C12.5991 12.0664 12.7737 12 12.9084 11.8653L13.6029 11.1708L14.8857 12.4516L12.4568 14.8805L12.4549 14.8862ZM4.58776 7.01709L7.0166 4.58825L8.61433 6.18597L5.4777 7.90893L4.58776 7.01899V7.01709ZM2.74146 3.97155L3.97296 2.74005L5.45304 4.22013L4.83824 4.83493L4.22343 5.44973L2.74336 3.96965L2.74146 3.97155ZM16.2064 17.408L16.324 17.2903L20.176 21.1423C20.3088 21.2752 20.4853 21.3435 20.6599 21.3435C20.8344 21.3435 21.009 21.2771 21.1437 21.1423C21.4113 20.8748 21.4113 20.4421 21.1437 20.1765L17.2917 16.3245L17.4094 16.2068C17.9426 15.6736 17.9426 14.8065 17.4094 14.2733L16.138 13.0019C16.3544 12.5029 16.2614 11.8975 15.8515 11.4896L7.98435 3.62051C7.58207 3.21823 6.98814 3.11956 6.49099 3.32639L4.9388 1.77421L5.54602 1.167C5.81357 0.899445 5.81357 0.466807 5.54602 0.201152C5.27846 -0.0663998 4.84583 -0.0663998 4.58017 0.201152L0.200664 4.58066C-0.066888 4.84821 -0.066888 5.28085 0.200664 5.5465C0.333491 5.67933 0.509962 5.74764 0.684535 5.74764C0.859108 5.74764 1.03368 5.68123 1.16841 5.5465L1.77562 4.93929L3.3278 6.49148C3.12097 6.98673 3.21964 7.58066 3.62192 7.98483L11.4891 15.852C11.7547 16.1177 12.1058 16.2524 12.4549 16.2524C12.6409 16.2524 12.8268 16.2144 12.9995 16.1385L14.2709 17.4099C14.5365 17.6755 14.8876 17.8103 15.2367 17.8103C15.5859 17.8103 15.9369 17.6774 16.2026 17.4099L16.2064 17.408Z" fill="black"/>
</g>
<path d="M23.6835 23.7875C23.7916 23.6546 23.8467 23.4839 23.8353 23.3131C23.7916 22.6224 23.7347 20.8045 24.1351 18.8368C24.5165 16.962 25.1996 15.4497 26.1711 14.3226C25.9624 15.2846 25.7347 16.463 25.5601 17.7192C25.2452 19.9829 25.1863 21.871 25.3856 23.3321C25.4045 23.4725 25.4672 23.6034 25.5639 23.7059C25.8637 24.0266 26.0364 24.4896 26.0364 24.9715C26.0364 25.8994 25.4178 26.6546 24.6588 26.6546C23.8998 26.6546 23.2812 25.8994 23.2812 24.9715C23.2812 24.5256 23.4235 24.1044 23.6835 23.7856V23.7875ZM24.6588 28.0247C26.173 28.0247 27.4045 26.6565 27.4045 24.9734C27.4045 24.2182 27.1617 23.5085 26.7157 22.9507C26.3552 19.8273 27.323 15.3207 27.7632 13.5009C27.8675 13.0721 27.6854 12.6262 27.3116 12.3928C26.9359 12.1575 26.452 12.1897 26.1104 12.4744C22.4596 15.499 22.3628 21.1252 22.4577 23.1499C22.1047 23.6755 21.9131 24.3131 21.9131 24.9753C21.9131 26.6584 23.1446 28.0266 24.6588 28.0266V28.0247Z" fill="black"/>
<path d="M33.6315 23.0607H30.1116C29.7302 23.0607 29.364 23.222 29.1078 23.5029C28.8478 23.7875 28.7188 24.1708 28.7511 24.556C28.7624 24.6945 28.77 24.8349 28.77 24.9734C28.77 27.408 26.9256 29.3909 24.66 29.3909C22.3943 29.3909 20.548 27.4099 20.548 24.9734C20.548 24.8349 20.5537 24.6945 20.567 24.556C20.6011 24.1708 20.4702 23.7875 20.2103 23.5029C19.9522 23.222 19.586 23.0607 19.2065 23.0607H15.6865C14.9332 23.0607 14.3203 23.6736 14.3203 24.427V32.1215C14.3203 32.8748 14.9332 33.4877 15.6865 33.4877H21.5442C21.9218 33.4877 22.2273 33.1822 22.2273 32.8046C22.2273 32.427 21.9218 32.1215 21.5442 32.1215H15.6865V24.427H19.2027C19.2027 24.427 19.2046 24.4327 19.2046 24.4364C19.1894 24.6129 19.1818 24.7932 19.1818 24.9716C19.1818 28.1613 21.6391 30.7552 24.66 30.7552C27.6808 30.7552 30.1381 28.1613 30.1381 24.9716C30.1381 24.7932 30.1306 24.6129 30.1154 24.4346C30.1154 24.4327 30.1154 24.427 30.1154 24.4251H33.6334V32.1196H27.7757C27.3981 32.1196 27.0926 32.4251 27.0926 32.8027C27.0926 33.1803 27.3981 33.4858 27.7757 33.4858H33.6334C34.3867 33.4858 34.9996 32.8729 34.9996 32.1196V24.4251C34.9996 23.6717 34.3867 23.0588 33.6334 23.0588L33.6315 23.0607Z" fill="black"/>
<path d="M24.6587 32.1215C24.2811 32.1215 23.9756 32.427 23.9756 32.8046C23.9756 33.1822 24.2811 33.4877 24.6587 33.4877C25.0363 33.4877 25.3418 33.1822 25.3418 32.8046C25.3418 32.427 25.0363 32.1215 24.6587 32.1215Z" fill="black"/>
</svg>
