<svg width="30" height="30" viewBox="0 0 30 30" fill="none" xmlns="http://www.w3.org/2000/svg">
<path d="M23.5321 18.9406C23.025 18.9406 22.8094 18.8008 22.4826 18.5896C22.0766 18.3272 21.5717 18 20.6256 18C19.6794 18 19.1742 18.3272 18.7682 18.5896C18.4418 18.8008 18.2261 18.9406 17.719 18.9406C17.2119 18.9406 16.9963 18.8008 16.6702 18.5896C16.2643 18.3268 15.7594 18 14.8132 18C13.8671 18 13.3618 18.3268 12.9558 18.5896C12.6298 18.8008 12.4142 18.9406 11.9071 18.9406C11.4 18.9406 11.1843 18.8012 10.8579 18.5896C10.4523 18.3268 9.94744 18 9.0009 18C8.05437 18 7.54987 18.3268 7.14389 18.5896C6.81784 18.8008 6.60221 18.9406 6.09511 18.9406C5.68504 18.9406 5.35156 19.2741 5.35156 19.6841C5.35156 20.0942 5.68504 20.4277 6.09511 20.4277C7.04091 20.4277 7.54615 20.1005 7.95213 19.8381C8.27817 19.6269 8.4938 19.4871 9.0009 19.4871C9.50801 19.4871 9.72363 19.6265 10.0497 19.8381C10.4557 20.1009 10.9605 20.4277 11.9067 20.4277C12.8529 20.4277 13.3581 20.1005 13.7637 19.8381C14.0901 19.6269 14.3058 19.4871 14.8129 19.4871C15.32 19.4871 15.5356 19.6269 15.862 19.8381C16.268 20.1009 16.7729 20.4277 17.719 20.4277C18.6652 20.4277 19.1704 20.1005 19.5764 19.8381C19.9028 19.6269 20.1185 19.4871 20.6256 19.4871C21.1327 19.4871 21.3483 19.6269 21.6751 19.8381C22.0811 20.1009 22.5859 20.4277 23.5321 20.4277C23.9422 20.4277 24.2756 20.0942 24.2756 19.6841C24.2756 19.2741 23.9422 18.9406 23.5321 18.9406Z" fill="#262424"/>
<path d="M9.90723 15.9178C9.90723 16.1576 10.0002 16.3825 10.1693 16.5516C10.3385 16.7208 10.5634 16.8137 10.8032 16.8137C11.043 16.8137 11.2679 16.7208 11.4371 16.5516L14.8143 13.1744L18.1915 16.5516C18.3606 16.7208 18.5856 16.8137 18.8254 16.8137C19.0652 16.8137 19.2901 16.7208 19.4592 16.5516C19.8087 16.2022 19.8087 15.6337 19.4592 15.2843L16.082 11.9071L19.4592 8.52985C19.6284 8.3607 19.7213 8.13577 19.7213 7.89598C19.7213 7.65618 19.6284 7.43126 19.4592 7.2621C19.2901 7.09294 19.0652 7 18.8254 7C18.5856 7 18.3606 7.09294 18.1915 7.2621L14.8143 10.6393L11.4371 7.2621C11.2679 7.09294 11.043 7 10.8032 7C10.5634 7 10.3385 7.09294 10.1693 7.2621C9.81986 7.61157 9.81986 8.18001 10.1693 8.52948L13.5465 11.9067L10.1693 15.2839C10.0002 15.453 9.90723 15.678 9.90723 15.9178Z" fill="#262424"/>
<path d="M15 0C6.72912 0 0 6.72912 0 15C0 23.2709 6.72912 30 15 30C23.2709 30 30 23.2712 30 15C30 6.72875 23.2709 0 15 0ZM15 28.5185C7.54591 28.5185 1.48115 22.4541 1.48115 15C1.48115 7.54591 7.54591 1.48115 15 1.48115C22.4541 1.48115 28.5185 7.54554 28.5185 15C28.5185 22.4545 22.4541 28.5185 15 28.5185Z" fill="#262424"/>
<path d="M19.3106 22.3437H10.6898C10.2798 22.3437 9.94629 22.6772 9.94629 23.0872C9.94629 23.4973 10.2798 23.8308 10.6898 23.8308H19.3106C19.7206 23.8308 20.0541 23.4973 20.0541 23.0872C20.0541 22.6772 19.7206 22.3437 19.3106 22.3437Z" fill="#262424"/>
</svg>
