<svg width="16" height="16" viewBox="0 0 16 16" fill="none" xmlns="http://www.w3.org/2000/svg">
<path d="M15.8432 6.73252C15.9197 6.34972 15.6135 5.89036 15.2307 5.89036L10.8668 5.27788L8.87625 1.29678C8.79969 1.14366 8.72313 1.0671 8.57001 0.990543C8.18722 0.760864 7.72786 0.913984 7.49818 1.29678L5.58419 5.27788L1.22029 5.89036C0.990608 5.89036 0.837489 5.96692 0.760929 6.12004C0.45469 6.42628 0.45469 6.88564 0.760929 7.19188L3.89987 10.2543L3.13428 14.6182C3.13428 14.7713 3.13428 14.9244 3.21084 15.0775C3.44052 15.4603 3.89987 15.6134 4.28267 15.3838L8.18722 13.3166L12.0918 15.3838C12.1683 15.4603 12.3214 15.4603 12.4746 15.4603C12.5511 15.4603 12.5511 15.4603 12.6277 15.4603C13.0105 15.3838 13.3167 15.001 13.2402 14.5416L12.4746 10.1777L15.6135 7.11532C15.7666 7.03876 15.8432 6.88564 15.8432 6.73252Z" fill="#E9082A"/>
</svg>
