<svg width="29" height="31" viewBox="0 0 29 31" fill="none" xmlns="http://www.w3.org/2000/svg">
<g clip-path="url(#clip0_918_4949)">
<path d="M28.5456 15.6689C28.3149 15.2256 27.943 14.9218 27.4716 14.7892C26.2056 14.4332 24.5732 15.3809 24.3641 15.5079L20.8598 17.9679C20.1295 17.29 18.6758 16.6676 16.8728 17.8511C15.1941 18.9507 13.2192 18.4655 11.6332 18.0756C11.2172 17.9735 10.8227 17.876 10.4587 17.8126C8.5935 17.4861 6.05908 19.4949 5.67473 19.8111L4.89022 20.3077L3.98587 18.5619L0.282593 20.5775L5.48821 30.7166L9.56567 28.3394L8.77437 26.8146C9.5001 26.7908 10.1591 26.4462 10.5164 26.258C10.6181 26.2036 10.6984 26.1583 10.7549 26.139C11.1313 26.0132 13.5143 25.579 15.1997 25.3126C16.7959 25.0598 19.7599 23.4682 20.4822 22.8232C21.1571 22.2223 28.359 16.2912 28.4325 16.2312L28.7174 15.9976L28.5467 15.6711L28.5456 15.6689ZM5.85673 29.4526L1.49215 20.9516L3.60831 19.7998L4.31483 21.1635C4.37474 21.2871 5.50856 23.6122 6.70455 25.562C6.97812 26.0075 7.27994 26.3045 7.59194 26.5006L8.36515 27.9913L5.85673 29.4537V29.4526ZM19.882 22.1441C19.2523 22.7053 16.407 24.2016 15.0584 24.4159C13.6883 24.6324 10.9821 25.1063 10.4689 25.2786C10.3615 25.3137 10.2439 25.3772 10.0936 25.4566C9.17906 25.9395 8.22385 26.3102 7.47438 25.0881C6.55647 23.5918 5.67021 21.8596 5.30282 21.1216L6.18343 20.565L6.22977 20.531C6.93177 19.9483 9.02984 18.4882 10.305 18.7093C10.6384 18.7671 11.0171 18.86 11.4184 18.9598C13.0836 19.369 15.3614 19.929 17.369 18.614C18.6837 17.7513 19.6095 18.1424 20.0832 18.5018C18.3174 19.6683 15.7875 21.2055 14.9748 21.3495C13.7641 21.5637 12.3013 21.3495 12.2866 21.3472L12.1532 22.2439C12.2188 22.2541 13.7731 22.4819 15.1319 22.2416C16.4884 22.0013 20.5862 19.2579 21.0486 18.9462L21.4442 18.6798L21.4386 18.673L24.8581 16.272C25.2594 16.0305 26.4667 15.4524 27.2286 15.6655C27.3416 15.6972 27.4389 15.7448 27.5214 15.8117C26.0631 17.0134 20.4935 21.6034 19.8831 22.1475L19.882 22.1441Z" fill="#1D1D1B"/>
<path d="M5.48822 31C5.46109 31 5.43509 30.9966 5.40909 30.9886C5.33448 30.9671 5.27231 30.915 5.23727 30.8469L0.0316447 20.7067C-0.0384419 20.5695 0.0124274 20.4018 0.148079 20.3281L3.85136 18.3136C3.91806 18.2774 3.99606 18.2694 4.0684 18.2921C4.14075 18.3148 4.20179 18.3646 4.23684 18.4327L4.99988 19.9041L5.51083 19.581C6.03422 19.1525 8.55733 17.1913 10.5085 17.5337C10.8849 17.5995 11.2817 17.6969 11.7011 17.8001C13.235 18.1765 15.1432 18.6458 16.719 17.6131C17.5861 17.044 18.4565 16.8139 19.3077 16.9295C20.0244 17.027 20.558 17.3523 20.879 17.6085L24.2036 15.2744C24.2036 15.2744 24.2138 15.2676 24.2194 15.2642C24.4138 15.1463 26.157 14.1238 27.5497 14.5149C28.099 14.6702 28.5297 15.0227 28.7976 15.5363L28.9683 15.8627C29.0305 15.9818 29.0011 16.128 28.8971 16.213L28.6123 16.4466C28.5422 16.5044 21.3436 22.4321 20.671 23.0306C19.9091 23.7108 16.9157 25.3239 15.2449 25.5881C13.4363 25.8738 11.1754 26.2932 10.8453 26.4043C10.8238 26.4111 10.7617 26.4451 10.7131 26.4712L10.6498 26.5052C10.3671 26.6548 9.83698 26.9348 9.2175 27.0482L9.81889 28.2056C9.88898 28.3394 9.84037 28.5049 9.71037 28.582L5.63292 30.9592C5.58883 30.9841 5.54022 30.9977 5.49048 30.9977L5.48822 31ZM0.660163 20.6942L5.60352 30.3209L9.19037 28.2294L8.52342 26.945C8.4782 26.8589 8.48159 26.7557 8.5302 26.6707C8.57881 26.5857 8.66811 26.5335 8.76533 26.5301C9.43341 26.5086 10.0518 26.181 10.3841 26.0053L10.444 25.9735C10.5299 25.927 10.5978 25.8908 10.6644 25.8681C11.0997 25.7218 13.6556 25.2673 15.1556 25.0303C16.6783 24.7889 19.6107 23.2199 20.2946 22.6089C20.9728 22.0047 28.1838 16.0668 28.2539 16.009L28.3602 15.9217L28.2957 15.7993C28.1024 15.4274 27.7904 15.1724 27.3948 15.0601C26.2395 14.7348 24.6569 15.661 24.5178 15.7437L21.0214 18.198C20.9129 18.2751 20.7648 18.2649 20.6676 18.1742C20.3013 17.8341 18.955 16.8218 17.0265 18.0869C15.2449 19.2545 13.2045 18.7523 11.5654 18.3499C11.1551 18.249 10.7673 18.1538 10.4101 18.0914C8.6489 17.7831 6.13483 19.7987 5.85448 20.0299C5.84544 20.0379 5.83639 20.0447 5.82622 20.0503L5.0417 20.5469C4.97501 20.5888 4.89362 20.6013 4.81675 20.5809C4.74101 20.5605 4.67657 20.5083 4.63927 20.438L3.86719 18.9485L0.660163 20.6931V20.6942ZM5.85674 29.736C5.82961 29.736 5.80361 29.7326 5.77761 29.7247C5.703 29.7031 5.64083 29.651 5.60578 29.583L1.24007 21.0808C1.16999 20.9436 1.22085 20.7759 1.35651 20.7022L3.47267 19.5504C3.53936 19.5141 3.61736 19.5062 3.68971 19.5289C3.76206 19.5515 3.8231 19.6014 3.85814 19.6694L4.56466 21.0332C4.61553 21.1375 5.74935 23.4659 6.94421 25.4135C7.17708 25.7921 7.43708 26.0699 7.74116 26.2603C7.78412 26.2875 7.81916 26.3249 7.84177 26.3691L8.61498 27.8599C8.68507 27.9936 8.63646 28.1591 8.50646 28.2351L5.99804 29.6975C5.95396 29.7224 5.90535 29.736 5.85561 29.736H5.85674ZM1.86972 21.0683L5.97204 29.0581L7.98986 27.8814L7.37603 26.6968C7.02899 26.4632 6.72265 26.1322 6.46378 25.7094C5.25422 23.7391 4.1091 21.3857 4.06049 21.2871L3.48962 20.1852L1.86972 21.0672V21.0683ZM8.72464 26.1957C8.21255 26.1957 7.68125 25.9656 7.2336 25.2355C6.29648 23.7074 5.39439 21.9378 5.04961 21.2474C4.98405 21.1171 5.02814 20.9584 5.15135 20.8813L6.05683 20.3054C6.21509 20.1762 8.73481 18.1481 10.3525 18.4281C10.6972 18.4882 11.0793 18.5823 11.4851 18.6821C13.0994 19.0788 15.3094 19.6218 17.213 18.3737C18.6939 17.4022 19.7531 17.8931 20.2527 18.2728C20.3262 18.3284 20.368 18.4157 20.3647 18.5086C20.3613 18.6004 20.3138 18.6855 20.238 18.7365C19.5587 19.1854 16.112 21.4334 15.0234 21.6261C14.0896 21.7916 13.027 21.7134 12.5251 21.6601L12.4754 21.9968C12.9841 22.0523 14.0919 22.1362 15.0833 21.9616C16.1448 21.7734 19.2331 19.8293 20.8903 18.7104L21.2294 18.4814C21.243 18.4655 21.2588 18.4519 21.2758 18.4395L24.6953 16.0385C24.6953 16.0385 24.7066 16.0305 24.7123 16.0271C24.7281 16.0181 26.27 15.101 27.3043 15.3912C27.4536 15.4331 27.5858 15.4989 27.6966 15.5873C27.7633 15.6406 27.8029 15.721 27.804 15.8072C27.804 15.8934 27.7667 15.9738 27.7011 16.0283C23.2506 19.6955 20.4698 22.0024 20.0719 22.3573C19.406 22.9513 16.5223 24.4726 15.1048 24.6971C13.5572 24.9419 11.0171 25.3954 10.5604 25.5484C10.4757 25.5767 10.3683 25.6334 10.2315 25.706C9.8528 25.9066 9.30228 26.1968 8.7269 26.1968L8.72464 26.1957ZM5.67022 21.2225C6.07039 22.016 6.87978 23.577 7.71516 24.9385C8.2849 25.867 8.91907 25.757 9.96245 25.2049C10.1264 25.1188 10.253 25.0519 10.3807 25.0088C10.9335 24.824 13.7177 24.3411 15.0155 24.1359C16.2962 23.933 19.1008 22.4627 19.6954 21.9322C20.2211 21.464 24.311 18.0869 26.9607 15.9024C26.3344 15.8559 25.4098 16.2686 25.0107 16.5055L21.6545 18.8623C21.6386 18.8804 21.6217 18.8974 21.6013 18.9111L21.2057 19.1775C20.4438 19.6921 16.5732 22.2711 15.1805 22.5171C13.7822 22.7642 12.1781 22.5307 12.1114 22.5205C12.0368 22.5092 11.9701 22.4695 11.926 22.4094C11.8808 22.3493 11.8627 22.2734 11.874 22.1986L12.0074 21.3019C12.03 21.1488 12.1724 21.0423 12.325 21.0627C12.3872 21.0717 13.7901 21.2678 14.925 21.0661C15.5852 20.9493 17.7104 19.7035 19.5485 18.5097C19.0737 18.3023 18.4 18.2728 17.5228 18.8476C15.4134 20.2306 13.0655 19.6536 11.3517 19.2319C10.955 19.1344 10.5819 19.0426 10.2564 18.9859C9.21863 18.8056 7.34551 19.971 6.40952 20.7475C6.405 20.7509 6.40048 20.7555 6.39595 20.7589L6.34961 20.7929C6.34961 20.7929 6.33943 20.7997 6.33378 20.8031L5.67022 21.2225Z" fill="#1D1D1B"/>
<path d="M14.5158 15.6167C17.3905 15.6167 19.7282 13.2713 19.7282 10.3885C19.7282 7.50569 15.0822 1.07805 14.8844 0.800317L14.517 0.283386L14.1496 0.800317C13.9518 1.07805 9.30457 7.63832 9.30457 10.3885C9.30457 13.1386 11.6434 15.6167 14.517 15.6167H14.5158ZM14.5158 1.85459C15.991 4.00393 18.8239 8.51574 18.8239 10.3885C18.8239 12.7714 16.8909 14.7098 14.5158 14.7098C12.1408 14.7098 10.2078 12.7714 10.2078 10.3885C10.2078 8.51688 13.0406 4.00393 14.5158 1.85459Z" fill="#1D1D1B"/>
<path d="M14.5159 15.9002C11.4852 15.9002 9.02087 13.4277 9.02087 10.3885C9.02087 7.59526 13.4171 1.33994 13.919 0.635961L14.2864 0.11903C14.3395 0.0442112 14.4254 0 14.517 0C14.6086 0 14.6945 0.0442112 14.7476 0.11903L15.115 0.635961C15.6158 1.33994 20.012 7.59526 20.012 10.3885C20.012 13.4277 17.5466 15.9002 14.517 15.9002H14.5159ZM14.5159 0.771996L14.378 0.965845C14.326 1.03953 13.0882 2.78077 11.8944 4.81222C10.3842 7.38214 9.58496 9.31043 9.58496 10.3896C9.58496 13.116 11.7961 15.3345 14.5148 15.3345C17.2334 15.3345 19.4445 13.116 19.4445 10.3896C19.4445 9.31043 18.6465 7.38214 17.1351 4.81222C15.9414 2.78077 14.7035 1.03953 14.6515 0.965845L14.5136 0.771996H14.5159ZM14.5159 14.9933C11.9849 14.9933 9.92522 12.9278 9.92522 10.3885C9.92522 8.1564 13.5561 2.75357 14.283 1.69363C14.3361 1.61654 14.4232 1.5712 14.5159 1.5712C14.6086 1.5712 14.6956 1.61654 14.7488 1.69363C15.4767 2.75357 19.1066 8.15527 19.1066 10.3885C19.1066 12.9278 17.0469 14.9933 14.5159 14.9933ZM14.5159 2.35793C12.9186 4.72833 10.4904 8.75836 10.4904 10.3885C10.4904 12.6149 12.2969 14.4265 14.5159 14.4265C16.7349 14.4265 18.5413 12.6149 18.5413 10.3885C18.5413 8.75722 16.1132 4.7272 14.5159 2.35793Z" fill="#1D1D1B"/>
</g>
<defs>
<clipPath id="clip0_918_4949">
<rect width="29" height="31" fill="white"/>
</clipPath>
</defs>
</svg>
