<svg width="31" height="31" viewBox="0 0 31 31" fill="none" xmlns="http://www.w3.org/2000/svg">
<g clip-path="url(#clip0_918_3551)">
<path d="M28.5373 2.45936C25.6829 -0.39547 21.0384 -0.39547 18.1827 2.45936C16.179 4.46346 15.5878 7.34881 16.3977 9.87937L4.22627 22.0528C3.25998 23.0192 2.84804 24.3036 3.01714 25.4455L0.854435 27.6085C0.548021 27.9163 0.358578 28.3118 0.324249 28.7225C0.287378 29.1599 0.432321 29.5783 0.723478 29.8682L1.13288 30.2777C1.40369 30.5486 1.76605 30.6821 2.14239 30.6821C2.58104 30.6821 3.03875 30.5015 3.39348 30.1467L5.56 27.9786C5.72528 28.0028 5.89057 28.0231 6.05967 28.0231C7.06283 28.0231 8.12193 27.5996 8.94709 26.7744L21.1185 14.601C21.847 14.8337 22.6022 14.957 23.36 14.957C25.2354 14.957 27.1095 14.2436 28.5373 12.8156C29.9206 11.432 30.6822 9.59325 30.6822 7.63747C30.6822 5.68169 29.9206 3.8429 28.5373 2.45936ZM2.67385 29.427C2.42084 29.68 2.03559 29.7436 1.85251 29.558L1.44311 29.1485C1.33504 29.0417 1.33122 28.8891 1.33758 28.8077C1.35156 28.6373 1.43802 28.4631 1.57406 28.327L3.38204 26.5175C3.50918 26.7438 3.66429 26.9562 3.85374 27.1457C4.04445 27.3364 4.2606 27.4839 4.48818 27.6111L2.67385 29.4257V29.427ZM17.2063 17.0756L16.0442 15.9133L15.3246 16.633L16.4867 17.7953L13.8624 20.42L12.7003 19.2577L11.9807 19.9774L13.1428 21.1397L10.1524 24.1306L8.99031 22.9683L8.27068 23.6881L9.43277 24.8504L8.22746 26.0559C7.68074 26.6027 6.98908 26.9371 6.27963 26.9969C5.60322 27.0554 4.99675 26.8532 4.5721 26.4285C3.66684 25.5231 3.83467 23.8826 4.94462 22.7725L16.8121 10.903C17.1554 11.5935 17.6081 12.2421 18.1827 12.8156C18.7574 13.3904 19.4059 13.8431 20.095 14.1864L17.205 17.0768L17.2063 17.0756ZM27.8189 12.0946C26.6276 13.2861 25.0447 13.941 23.3613 13.941C21.6779 13.941 20.0937 13.2848 18.9036 12.0946C16.446 9.63648 16.446 5.63591 18.9036 3.17656C20.095 1.98504 21.6779 1.33014 23.3613 1.33014C25.0447 1.33014 26.6289 1.98631 27.8189 3.17656C29.0102 4.36809 29.6663 5.95128 29.6663 7.63493C29.6663 9.31857 29.0102 10.903 27.8189 12.0933V12.0946Z" fill="#1D1D1B"/>
<path d="M2.1425 31C1.66698 31 1.22834 30.8232 0.907937 30.5028L0.498537 30.0933C0.141265 29.736 -0.0380067 29.2273 0.00776479 28.6958C0.0484505 28.21 0.269679 27.7446 0.629494 27.3835L2.68285 25.3298C2.55317 24.0874 3.03885 22.7903 4.00133 21.8277L16.0379 9.79034C15.2484 7.09701 15.9757 4.21802 17.9591 2.23554C19.3983 0.793502 21.3169 0 23.3601 0C25.4033 0 27.3219 0.793502 28.7624 2.23427C30.2055 3.67758 31.0001 5.59648 31.0001 7.63746C31.0001 9.67844 30.2055 11.5973 28.7624 13.0407C27.3219 14.4814 25.4033 15.2749 23.3601 15.2749C22.6405 15.2749 21.917 15.1694 21.2089 14.9621L9.17223 26.9994C8.3191 27.8527 7.18499 28.3423 6.05977 28.3423C5.925 28.3423 5.79531 28.3308 5.67326 28.3168L3.61735 30.3731C3.21812 30.7724 2.68031 31.0013 2.1425 31.0013V31ZM23.3601 0.635819C21.5661 0.635819 19.7734 1.31869 18.4079 2.68443C16.5491 4.54356 15.8943 7.2636 16.7004 9.78271C16.7372 9.89589 16.7067 10.0205 16.6228 10.1044L4.45141 22.2778C3.58938 23.14 3.17108 24.3074 3.33255 25.3984C3.34781 25.4976 3.31348 25.5981 3.24228 25.6693L1.07958 27.8323C0.825294 28.0867 0.67018 28.4122 0.640937 28.7492C0.611694 29.0938 0.72358 29.4194 0.948623 29.6432L1.35802 30.0526C1.55891 30.2535 1.83735 30.3629 2.1425 30.3629C2.51375 30.3629 2.88755 30.2014 3.16854 29.9204L5.33505 27.7522C5.40626 27.681 5.5067 27.648 5.60587 27.6619C5.75081 27.6836 5.90593 27.7026 6.05977 27.7026C7.01843 27.7026 7.98853 27.2817 8.72341 26.5467L20.8948 14.3733C20.9787 14.2894 21.1033 14.2589 21.2165 14.2958C21.9221 14.5221 22.643 14.6366 23.3614 14.6366C25.2342 14.6366 26.9926 13.9092 28.3136 12.5879C29.6372 11.2642 30.3657 9.5055 30.3657 7.63492C30.3657 5.76434 29.6372 4.00439 28.3136 2.68189C26.9481 1.31615 25.1554 0.633276 23.3614 0.633276L23.3601 0.635819ZM2.13995 29.984C1.93779 29.984 1.75598 29.9127 1.62757 29.7843L1.21817 29.3748C1.07068 29.2286 1.00075 29.0175 1.02109 28.7823C1.04144 28.5394 1.16095 28.2927 1.34912 28.1032L3.15837 26.2937C3.2283 26.2237 3.32747 26.1894 3.42664 26.2034C3.52454 26.2174 3.61227 26.2759 3.66058 26.3623C3.78137 26.5747 3.9225 26.7642 4.08015 26.9219C4.22891 27.0706 4.40818 27.2016 4.64594 27.3351C4.7324 27.3835 4.79088 27.4699 4.80487 27.5691C4.81885 27.667 4.78453 27.7662 4.7146 27.8374L2.90027 29.6521C2.69302 29.8593 2.4095 29.9827 2.14122 29.9827L2.13995 29.984ZM3.32874 27.021L1.79794 28.5521C1.71529 28.6348 1.66189 28.7403 1.65299 28.8357C1.64918 28.8814 1.65808 28.9158 1.66571 28.9234L2.07511 29.3342C2.07511 29.3342 2.10054 29.3481 2.13868 29.3481C2.21497 29.3481 2.34084 29.31 2.44764 29.2032L3.98098 27.6696C3.84875 27.5755 3.73305 27.4776 3.62753 27.372C3.52073 27.2652 3.42028 27.1482 3.32747 27.021H3.32874ZM6.05087 27.325C5.38337 27.325 4.7858 27.091 4.34715 26.6523C3.31857 25.6222 3.48512 23.7809 4.71968 22.5474L16.5872 10.6779C16.6597 10.6055 16.7627 10.5724 16.8631 10.5889C16.9636 10.6055 17.0513 10.669 17.0958 10.7606C17.4365 11.446 17.8777 12.0615 18.4066 12.5905C18.9355 13.1195 19.5509 13.5608 20.2362 13.9015C20.3278 13.9473 20.3913 14.0338 20.4079 14.1355C20.4244 14.236 20.3913 14.339 20.3189 14.4115L17.4289 17.3019C17.3691 17.3617 17.289 17.3947 17.2039 17.3947C17.1199 17.3947 17.0386 17.3617 16.9788 17.3019L16.0418 16.3647L15.7722 16.6343L16.7093 17.5728C16.8339 17.6974 16.8339 17.8983 16.7093 18.0229L14.085 20.6476C14.0253 20.7074 13.9452 20.7404 13.86 20.7404C13.7761 20.7404 13.6947 20.7074 13.6349 20.6476L12.6979 19.7091L12.4284 19.9787L13.3654 20.9172C13.49 21.0418 13.49 21.2427 13.3654 21.3673L10.375 24.3582C10.2504 24.4829 10.0495 24.4829 9.92492 24.3582L8.9866 23.421L8.71706 23.6906L9.65537 24.6278C9.71513 24.6876 9.74819 24.7677 9.74819 24.8529C9.74819 24.9381 9.71513 25.0182 9.65537 25.078L8.45006 26.2835C7.84994 26.8837 7.08836 27.2499 6.30516 27.3173C6.2187 27.325 6.13351 27.3288 6.04833 27.3288L6.05087 27.325ZM16.7334 11.4308L5.16977 22.9963C4.18314 23.9831 4.01658 25.4213 4.79851 26.2034C5.15706 26.562 5.67326 26.7324 6.2543 26.6802C6.89001 26.6268 7.51047 26.3242 8.00506 25.8308L8.9866 24.8491L8.04829 23.9119C7.98853 23.8521 7.95547 23.772 7.95547 23.6868C7.95547 23.6016 7.98853 23.5215 8.04829 23.4617L8.76791 22.742C8.89252 22.6174 9.0934 22.6174 9.218 22.742L10.1563 23.6792L12.6966 21.1384L11.7596 20.2C11.635 20.0754 11.635 19.8744 11.7596 19.7498L12.4792 19.0301C12.539 18.9703 12.6191 18.9372 12.7043 18.9372C12.7882 18.9372 12.8695 18.9703 12.9293 19.0301L13.8663 19.9685L16.0405 17.794L15.1034 16.8556C14.9788 16.7309 14.9788 16.53 15.1034 16.4054L15.8231 15.6857C15.8828 15.6259 15.9629 15.5928 16.0481 15.5928C16.132 15.5928 16.2134 15.6259 16.2732 15.6857L17.2102 16.6229L19.5725 14.2602C18.9788 13.9219 18.4397 13.5112 17.9629 13.0356C17.4861 12.56 17.0767 12.0195 16.7385 11.4257L16.7334 11.4308ZM23.3601 14.2614C21.5916 14.2614 19.9285 13.5722 18.6774 12.3209C16.0952 9.73821 16.0952 5.53671 18.6774 2.95402C19.9285 1.70272 21.5916 1.01477 23.3601 1.01477C25.1287 1.01477 26.7917 1.704 28.0428 2.95402C29.2939 4.20531 29.983 5.86861 29.983 7.63746C29.983 9.40631 29.2939 11.0696 28.0428 12.3209C26.7917 13.5722 25.1287 14.2614 23.3601 14.2614ZM23.3601 1.65059C21.7607 1.65059 20.2578 2.27369 19.1275 3.40418C16.7932 5.7389 16.7932 9.53729 19.1275 11.872C20.2591 13.0025 21.7619 13.6256 23.3601 13.6256C24.9583 13.6256 26.4624 13.0025 27.5927 11.872C28.7243 10.7403 29.346 9.23718 29.346 7.63746C29.346 6.03774 28.723 4.53466 27.5927 3.40418C26.4624 2.27369 24.9583 1.65059 23.3601 1.65059Z" fill="#1D1D1B"/>
<path d="M20.0009 4.27652L20.7205 4.99627C21.4376 4.27906 22.3911 3.88485 23.4045 3.88485C24.4178 3.88485 25.3714 4.28033 26.0885 4.99627L26.8081 4.27652C25.899 3.3673 24.6899 2.86627 23.4045 2.86627C22.1191 2.86627 20.9099 3.3673 20.0009 4.27652Z" fill="#1D1D1B"/>
<path d="M26.0885 5.31415C26.0072 5.31415 25.9258 5.28363 25.8635 5.22132C25.2062 4.56389 24.3327 4.20274 23.4033 4.20274C22.4738 4.20274 21.6004 4.56516 20.9443 5.22132C20.8248 5.34086 20.6137 5.34086 20.4942 5.22132L19.7746 4.50158C19.65 4.37696 19.65 4.17604 19.7746 4.05142C20.7434 3.08243 22.0314 2.54834 23.402 2.54834C24.7726 2.54834 26.0606 3.08243 27.0307 4.05142C27.0904 4.11118 27.1235 4.1913 27.1235 4.2765C27.1235 4.3617 27.0904 4.44181 27.0307 4.50158L26.311 5.22132C26.2487 5.28363 26.1674 5.31415 26.086 5.31415H26.0885ZM23.4045 3.56692C24.3962 3.56692 25.3358 3.91535 26.0809 4.55626L26.3517 4.2854C25.5342 3.57328 24.4992 3.18543 23.4058 3.18543C22.3124 3.18543 21.2774 3.57328 20.4599 4.2854L20.7307 4.55626C21.4758 3.91662 22.4141 3.56692 23.4058 3.56692H23.4045Z" fill="#1D1D1B"/>
</g>
<defs>
<clipPath id="clip0_918_3551">
<rect width="31" height="31" fill="white"/>
</clipPath>
</defs>
</svg>
