<svg width="25" height="30" viewBox="0 0 25 30" fill="none" xmlns="http://www.w3.org/2000/svg">
<g clip-path="url(#clip0_918_4954)">
<path d="M17.121 13.3499C15.5274 9.26953 13.2331 5.58752 10.2832 1.33838L10.2887 1.33397L9.53746 0.275818L9.53306 0.281335L9.52867 0.275818L8.77745 1.33397L8.78294 1.33838C5.36072 6.26831 2.15816 11.2236 0.581038 17.6321C-0.139429 20.4336 0.430574 23.4017 2.10324 25.5732C3.68586 27.6255 6.04605 28.7553 8.75109 28.7553H10.3172C11.0124 28.7553 11.6923 28.677 12.3403 28.528C13.5736 29.2806 15.0156 29.723 16.5609 29.723C21.0627 29.723 24.7244 26.0443 24.7244 21.5215C24.7244 16.9988 21.3615 13.64 17.121 13.3488V13.3499ZM10.9784 15.5555C9.64509 15.8203 8.27664 15.3205 6.95432 14.8317C6.38212 14.6199 5.79015 14.4014 5.20916 14.248C4.09332 13.9556 3.04996 14.4223 2.28336 14.9608C3.79459 10.5583 6.16027 6.65891 9.50231 1.84704L9.53416 1.80291L9.56272 1.84373C12.3952 5.92185 14.6104 9.47034 16.1688 13.341C14.1645 13.4381 12.3512 14.259 10.9795 15.5555H10.9784ZM10.3161 27.8737H8.75C6.32281 27.8737 4.20864 26.8652 2.79735 25.0336C1.28833 23.0773 0.777629 20.3928 1.4311 17.8495C1.53544 17.4258 1.64856 17.0098 1.76717 16.5982C2.05712 16.2683 3.51453 14.7181 4.98621 15.1031C5.52547 15.2455 6.07241 15.4463 6.6501 15.6603C7.76814 16.0741 8.91584 16.4945 10.1097 16.5155C9.03994 17.9024 8.39635 19.637 8.39635 21.5237C8.39635 24.0483 9.53856 26.308 11.3298 27.8131C10.9982 27.8528 10.6588 27.8737 10.315 27.8737H10.3161ZM16.5609 28.8414C12.5445 28.8414 9.27607 25.5588 9.27607 21.5226C9.27607 17.4865 12.5434 14.2039 16.5609 14.2039C20.5784 14.2039 23.8458 17.4876 23.8458 21.5226C23.8458 25.5577 20.5773 28.8414 16.5609 28.8414Z" fill="#1D1D1B"/>
<path d="M16.5609 30C15.0662 30 13.5934 29.5928 12.2919 28.8227C11.6494 28.9617 10.985 29.0323 10.3161 29.0323H8.75C5.95819 29.0323 3.52112 27.8638 1.88579 25.7431C0.160405 23.5044 -0.427171 20.4458 0.315261 17.5637C1.89787 11.1321 5.09934 6.16573 8.52376 1.23028C8.53145 1.21042 8.54133 1.19166 8.55451 1.174L9.30573 0.115856C9.35735 0.0430321 9.44082 0 9.52868 0C9.55943 0 9.58908 0.00551694 9.61764 0.014344C9.67475 0.0308948 9.72527 0.0650999 9.76041 0.114752L10.5116 1.1729C10.5248 1.19166 10.5358 1.21152 10.5435 1.23248C13.4429 5.41101 15.7087 9.03895 17.3121 13.0873C21.636 13.4746 24.9979 17.1455 24.9979 21.5216C24.9979 26.1955 21.2121 29.9989 16.5598 29.9989L16.5609 30ZM12.3403 28.2533C12.3897 28.2533 12.4391 28.2666 12.483 28.2931C13.7208 29.0489 15.131 29.4483 16.562 29.4483C20.9123 29.4483 24.4509 25.8932 24.4509 21.5227C24.4509 17.3772 21.2231 13.9082 17.1035 13.6246C16.998 13.6169 16.9058 13.5496 16.8662 13.4503C15.2726 9.36997 12.9915 5.71996 10.0591 1.49619C10.0471 1.47854 10.0372 1.46088 10.0295 1.44213L9.53417 0.744786L9.03775 1.44433C9.03006 1.46199 9.02128 1.47964 9.01029 1.49619C5.60125 6.40296 2.41406 11.3351 0.846826 17.6994C0.146127 20.4204 0.697461 23.3002 2.31961 25.4055C3.84841 27.3883 6.13282 28.4806 8.75 28.4806H10.3161C10.9817 28.4806 11.6418 28.4067 12.2777 28.2611C12.2974 28.2566 12.3183 28.2544 12.3392 28.2544L12.3403 28.2533ZM16.5609 29.1173C12.393 29.1173 9.00151 25.71 9.00151 21.5227C9.00151 17.3353 12.393 13.9281 16.5609 13.9281C20.7289 13.9281 24.1203 17.3353 24.1203 21.5227C24.1203 25.71 20.7289 29.1173 16.5609 29.1173ZM16.5609 14.4798C12.695 14.4798 9.55064 17.6388 9.55064 21.5227C9.55064 25.4066 12.695 28.5656 16.5609 28.5656C20.4268 28.5656 23.5712 25.4066 23.5712 21.5227C23.5712 17.6388 20.4268 14.4798 16.5609 14.4798ZM10.3161 28.1496H8.75C6.23605 28.1496 4.045 27.1025 2.5799 25.2025C1.01925 23.1789 0.490985 20.4038 1.16533 17.78C1.25978 17.3949 1.36741 16.9944 1.50359 16.521C1.51458 16.4813 1.53435 16.4449 1.5618 16.4151C1.72764 16.2264 2.17903 15.7453 2.78418 15.3503C3.59031 14.8251 4.35361 14.6519 5.05541 14.835C5.61004 14.9807 6.16137 15.1848 6.74565 15.4C7.83294 15.8016 8.95757 16.2176 10.1152 16.2386C10.2195 16.2408 10.3128 16.3014 10.3579 16.3952C10.4029 16.489 10.3908 16.6005 10.3271 16.6832C9.24422 18.0878 8.67202 19.7617 8.67202 21.5227C8.67202 23.8707 9.7055 26.0863 11.5067 27.6001C11.5901 27.6707 11.6253 27.7844 11.5934 27.8903C11.5627 27.9962 11.4715 28.0724 11.3628 28.0856C11.0168 28.1275 10.6643 28.1485 10.315 28.1485L10.3161 28.1496ZM2.01429 16.7351C1.88909 17.1742 1.78805 17.5516 1.69799 17.9157C1.06538 20.3785 1.55741 22.9758 3.01482 24.8648C4.37338 26.6269 6.40958 27.5979 8.75 27.5979H10.3161C10.4359 27.5979 10.5556 27.5957 10.6753 27.5902C9.04544 25.9958 8.12179 23.8188 8.12179 21.5238C8.12179 19.8091 8.62809 18.1728 9.59238 16.7605C8.53254 16.6512 7.52982 16.2805 6.55455 15.9197C5.98345 15.7089 5.4442 15.5092 4.91593 15.3702C3.65731 15.0414 2.35256 16.3599 2.01319 16.7362L2.01429 16.7351ZM10.2151 15.9031C9.05971 15.9031 7.90323 15.4761 6.85987 15.0899C6.29536 14.8814 5.71218 14.6651 5.13998 14.5151C4.2976 14.2955 3.38933 14.5206 2.44042 15.187C2.34267 15.2554 2.21308 15.2532 2.11753 15.1815C2.02308 15.1098 1.98464 14.984 2.02308 14.8715C3.56505 10.3796 6.03836 6.3533 9.27717 1.68929L9.31012 1.64294C9.36174 1.57012 9.44521 1.52709 9.53417 1.52709C9.62313 1.52709 9.7066 1.57012 9.75822 1.64405L9.78677 1.68487C13.9371 7.66082 15.4286 10.7691 16.4225 13.2384C16.4555 13.3212 16.4467 13.415 16.3995 13.4911C16.3523 13.5673 16.2699 13.6136 16.1809 13.618C14.3117 13.7085 12.5314 14.4676 11.1662 15.7575C11.1289 15.7928 11.0816 15.8171 11.0311 15.827C10.7598 15.8811 10.4864 15.9053 10.214 15.9053L10.2151 15.9031ZM4.51506 13.8828C4.77425 13.8828 5.03015 13.9148 5.27836 13.9799C5.87582 14.1377 6.47218 14.3584 7.04878 14.5713C8.3063 15.0359 9.60556 15.5158 10.8499 15.2974C12.2074 14.0395 13.9393 13.2649 15.7702 13.0917C14.1579 9.20997 11.8351 5.60852 9.53417 2.28291C5.56391 8.02935 3.88685 11.3616 2.79956 14.3264C3.37944 14.0318 3.95714 13.8828 4.51506 13.8828Z" fill="#1D1D1B"/>
<path d="M15.0727 23.4338L12.9629 20.587L12.2578 21.1144L14.9255 24.7126L21.3043 19.3104L20.7376 18.6351L15.0727 23.4338Z" fill="#1D1D1B"/>
<path d="M14.9256 24.9884C14.9146 24.9884 14.9047 24.9884 14.8937 24.9862C14.819 24.9774 14.7498 24.9377 14.7048 24.877L12.0371 21.2789C11.947 21.1564 11.9712 20.9842 12.0931 20.8927L12.7971 20.3652C12.8553 20.3211 12.9289 20.3024 13.0014 20.3134C13.0739 20.3244 13.1387 20.363 13.1815 20.4215L15.1178 23.0321L20.5597 18.4233C20.6157 18.3758 20.6882 18.3538 20.7596 18.3593C20.8321 18.3659 20.8991 18.4001 20.9463 18.4564L21.513 19.1317C21.6107 19.2486 21.5965 19.4219 21.4801 19.5201L15.1013 24.9222C15.0519 24.9642 14.9893 24.9873 14.9245 24.9873L14.9256 24.9884ZM12.6422 21.1718L14.9717 24.3132L20.9177 19.2784L20.7058 19.0257L15.2506 23.6456C15.1924 23.6942 15.1167 23.7173 15.042 23.7085C14.9673 23.6997 14.8981 23.66 14.8531 23.5993L12.9069 20.9743L12.6422 21.1718Z" fill="#1D1D1B"/>
</g>
<defs>
<clipPath id="clip0_918_4954">
<rect width="25" height="30" fill="white"/>
</clipPath>
</defs>
</svg>
