<svg width="9" height="15" viewBox="0 0 9 15" fill="none" xmlns="http://www.w3.org/2000/svg">
<path d="M3.92358 7.50546L8.53095 2.8981C8.77335 2.65424 8.90942 2.32437 8.90942 1.98053C8.90942 1.63669 8.77335 1.30682 8.53095 1.06296C8.40995 0.940976 8.266 0.84415 8.1074 0.778074C7.9488 0.711998 7.77869 0.677979 7.60687 0.677979C7.43505 0.677979 7.26494 0.711998 7.10634 0.778074C6.94774 0.84415 6.80379 0.940976 6.68279 1.06296L1.16437 6.58138C1.04238 6.70238 0.94556 6.84632 0.879484 7.00493C0.813407 7.16353 0.779388 7.33364 0.779388 7.50546C0.779388 7.67727 0.813407 7.84739 0.879484 8.00599C0.94556 8.16459 1.04238 8.30854 1.16437 8.42953L6.68279 14.013C6.80441 14.1337 6.94864 14.2291 7.10721 14.2939C7.26578 14.3586 7.43558 14.3915 7.60687 14.3905C7.77816 14.3915 7.94796 14.3586 8.10653 14.2939C8.2651 14.2291 8.40933 14.1337 8.53094 14.013C8.77335 13.7692 8.90941 13.4393 8.90941 13.0955C8.90941 12.7516 8.77335 12.4217 8.53094 12.1779L3.92358 7.50546Z" fill="black"/>
</svg>
