<svg width="9" height="15" viewBox="0 0 9 15" fill="none" xmlns="http://www.w3.org/2000/svg">
<path d="M5.64529 7.50528L1.03793 12.1126C0.795525 12.3565 0.659462 12.6864 0.659462 13.0302C0.659462 13.3741 0.795525 13.7039 1.03793 13.9478C1.15893 14.0698 1.30287 14.1666 1.46148 14.2327C1.62008 14.2987 1.79019 14.3328 1.96201 14.3328C2.13382 14.3328 2.30394 14.2987 2.46254 14.2327C2.62114 14.1666 2.76509 14.0698 2.88608 13.9478L8.4045 8.42936C8.52649 8.30837 8.62332 8.16442 8.68939 8.00582C8.75547 7.84721 8.78949 7.6771 8.78949 7.50528C8.78949 7.33347 8.75547 7.16335 8.68939 7.00475C8.62332 6.84615 8.52649 6.7022 8.4045 6.58121L2.88608 0.997713C2.76447 0.877087 2.62024 0.781654 2.46167 0.716885C2.3031 0.652115 2.1333 0.619283 1.96201 0.620273C1.79072 0.619283 1.62092 0.652115 1.46235 0.716884C1.30378 0.781654 1.15955 0.877087 1.03793 0.997713C0.795526 1.24157 0.659463 1.57144 0.659463 1.91528C0.659463 2.25912 0.795526 2.58899 1.03793 2.83285L5.64529 7.50528Z" fill="black"/>
</svg>
