<svg width="353" height="77" viewBox="0 0 353 77" fill="none" xmlns="http://www.w3.org/2000/svg">
<path d="M19.7324 33.9348V25.4782C19.7324 19.5514 19.2264 17.8166 16.4075 17.8166C13.5886 17.8166 13.0826 19.5514 13.0826 25.4782V55.4377C13.0826 61.3646 13.5163 63.0992 16.4075 63.0992C19.2987 63.0992 19.7324 61.3646 19.7324 55.4377V52.2213H16.4075V39.175H32.7789V75.3144H27.5386L25.4425 70.3633C22.732 73.7604 19.0819 76.1817 14.3837 76.1817C4.98731 76.1817 0 70.3633 0 56.3412V24.647C0 10.6249 5.81851 4.80652 16.3714 4.80652C26.9242 4.80652 32.7427 10.6249 32.7427 24.647V33.9709H19.6962L19.7324 33.9348Z" fill="black"/>
<path d="M49.2584 18.684V33.9348H61.0039V46.9811H49.2584V62.2319H61.0039V75.2782H36.1758V5.6377H61.0039V18.684H49.2584Z" fill="black"/>
<path d="M101.77 5.6377V75.2782H88.7235L77.484 40.8736V75.2782H64.4375V5.6377H77.484L88.7235 40.0424V5.6377H101.77Z" fill="black"/>
<path d="M136.139 18.684H127.176V75.2782H114.13V18.684H105.167V5.6377H136.175V18.684H136.139Z" fill="black"/>
<path d="M164.364 62.2319V75.2782H139.536V5.6377H152.583V62.2319H164.328H164.364Z" fill="black"/>
<path d="M180.807 18.684V33.9348H192.553V46.9811H180.807V62.2319H192.553V75.2782H167.725V5.6377H192.553V18.684H180.807Z" fill="black"/>
<path d="M238.993 5.6377V75.2782H225.946V45.4271L220.561 75.2782H214.454L209.069 45.4271V75.2782H196.022V5.6377H209.069L217.526 45.8608L225.982 5.6377H239.029H238.993Z" fill="black"/>
<path d="M255.436 18.684V33.9348H267.182V46.9811H255.436V62.2319H267.182V75.2782H242.354V5.6377H267.182V18.684H255.436Z" fill="black"/>
<path d="M307.948 5.6377V75.2782H294.901L283.662 40.8736V75.2782H270.615V5.6377H283.662L294.901 40.0424V5.6377H307.948Z" fill="black"/>
<path d="M344.268 24.6108V56.3051C344.268 70.1464 339.317 75.2782 324.427 75.2782H311.381V5.6377H324.427C339.317 5.6377 344.268 10.5888 344.268 24.6108ZM331.222 56.3051V24.6108C331.222 19.5513 329.487 18.684 324.427 18.684V62.2319C329.487 62.2319 331.222 61.3646 331.222 56.3051Z" fill="black"/>
<path d="M348.388 0C346.112 0 344.269 1.8431 344.269 4.11988C344.269 6.39666 346.112 8.23977 348.388 8.23977C350.665 8.23977 352.508 6.39666 352.508 4.11988C352.508 1.8431 350.665 0 348.388 0ZM351.75 4.11988C351.75 4.58969 351.677 5.02337 351.497 5.4209C351.316 5.81843 351.099 6.1798 350.774 6.46892C350.485 6.79417 350.123 7.01105 349.726 7.19175C348.894 7.55314 347.919 7.55314 347.124 7.19175C346.726 7.01105 346.365 6.79417 346.039 6.46892C345.714 6.1798 345.497 5.81843 345.317 5.4209C345.136 5.02337 345.064 4.55355 345.064 4.11988C345.064 3.68621 345.136 3.2164 345.317 2.81886C345.497 2.42133 345.714 2.05993 346.039 1.77082C346.365 1.44557 346.726 1.22874 347.124 1.04804C347.521 0.867347 347.991 0.79507 348.425 0.79507C348.858 0.79507 349.328 0.867347 349.726 1.04804C350.123 1.22874 350.485 1.44557 350.774 1.77082C351.099 2.09607 351.316 2.45747 351.497 2.81886C351.677 3.2164 351.75 3.68621 351.75 4.11988Z" fill="black"/>
<path d="M350.196 3.39709C350.196 2.6743 349.618 2.09607 348.895 2.09607H346.835V6.17978H347.63V4.69811H348.208L349.329 6.10754V6.17978H350.377L349.184 4.66193C349.762 4.51737 350.232 4.01146 350.232 3.39709H350.196ZM348.895 3.93916H347.63V2.89114H348.895C349.184 2.89114 349.437 3.14409 349.437 3.43321C349.437 3.72232 349.184 3.97533 348.895 3.97533V3.93916Z" fill="black"/>
</svg>
