<svg width="353" height="77" viewBox="0 0 353 77" fill="none" xmlns="http://www.w3.org/2000/svg">
<path d="M19.7324 33.8987V25.4421C19.7324 19.5152 19.2264 17.7805 16.4075 17.7805C13.5886 17.7805 13.0826 19.5152 13.0826 25.4421V55.4016C13.0826 61.3284 13.5163 63.0631 16.4075 63.0631C19.2987 63.0631 19.7324 61.3284 19.7324 55.4016V52.1852H16.4075V39.1389H32.7789V75.2782H27.5386L25.4425 70.3271C22.732 73.7242 19.0819 76.1456 14.3837 76.1456C4.98731 76.1456 0 70.3271 0 56.3051V24.6109C0 10.5888 5.81851 4.77039 16.3714 4.77039C26.9242 4.77039 32.7427 10.5888 32.7427 24.6109V33.9348H19.6962L19.7324 33.8987Z" fill="white"/>
<path d="M49.2584 18.684V33.9348H61.0039V46.9811H49.2584V62.2319H61.0039V75.2782H36.1758V5.6377H61.0039V18.684H49.2584Z" fill="white"/>
<path d="M101.77 5.60156V75.2421H88.7235L77.484 40.8374V75.2421H64.4375V5.60156H77.484L88.7235 40.0062V5.60156H101.77Z" fill="white"/>
<path d="M136.139 18.684H127.176V75.2782H114.13V18.684H105.167V5.6377H136.175V18.684H136.139Z" fill="white"/>
<path d="M164.364 62.1958V75.2421H139.536V5.60156H152.583V62.1958H164.328H164.364Z" fill="white"/>
<path d="M180.807 18.684V33.9348H192.553V46.9811H180.807V62.2319H192.553V75.2782H167.725V5.6377H192.553V18.684H180.807Z" fill="white"/>
<path d="M238.993 5.60156V75.2421H225.946V45.391L220.561 75.2421H214.454L209.069 45.391V75.2421H196.022V5.60156H209.069L217.526 45.8247L225.982 5.60156H239.029H238.993Z" fill="white"/>
<path d="M255.436 18.684V33.9348H267.182V46.9811H255.436V62.2319H267.182V75.2782H242.354V5.6377H267.182V18.684H255.436Z" fill="white"/>
<path d="M307.948 5.60156V75.2421H294.901L283.662 40.8374V75.2421H270.615V5.60156H283.662L294.901 40.0062V5.60156H307.948Z" fill="white"/>
<path d="M344.268 24.5747V56.2689C344.268 70.1103 339.317 75.2421 324.427 75.2421H311.381V5.60156H324.427C339.317 5.60156 344.268 10.5527 344.268 24.5747ZM331.222 56.2689V24.5747C331.222 19.5152 329.487 18.6479 324.427 18.6479V62.1958C329.487 62.1958 331.222 61.3284 331.222 56.2689Z" fill="white"/>
<path d="M348.388 0C346.112 0 344.269 1.8431 344.269 4.11988C344.269 6.39666 346.112 8.23977 348.388 8.23977C350.665 8.23977 352.508 6.39666 352.508 4.11988C352.508 1.8431 350.665 0 348.388 0ZM351.75 4.11988C351.75 4.58969 351.677 5.02337 351.497 5.4209C351.316 5.81843 351.099 6.17982 350.774 6.46893C350.485 6.79419 350.123 7.01102 349.726 7.19172C348.894 7.55311 347.919 7.55311 347.124 7.19172C346.726 7.01102 346.365 6.79419 346.039 6.46893C345.714 6.17982 345.497 5.81843 345.317 5.4209C345.136 5.02337 345.064 4.55355 345.064 4.11988C345.064 3.68621 345.136 3.2164 345.317 2.81886C345.497 2.42133 345.714 2.05993 346.039 1.77082C346.365 1.44557 346.726 1.22873 347.124 1.04803C347.521 0.867334 347.991 0.795056 348.425 0.795056C348.858 0.795056 349.328 0.867334 349.726 1.04803C350.123 1.22873 350.485 1.44557 350.774 1.77082C351.099 2.09607 351.316 2.45747 351.497 2.81886C351.677 3.2164 351.75 3.68621 351.75 4.11988Z" fill="white"/>
<path d="M350.196 3.39709C350.196 2.6743 349.618 2.09607 348.895 2.09607H346.835V6.17982H347.63V4.69811H348.208L349.329 6.10754V6.17982H350.377L349.184 4.66196C349.762 4.5174 350.232 4.01146 350.232 3.39709H350.196ZM348.895 3.93918H347.63V2.89114H348.895C349.184 2.89114 349.437 3.14411 349.437 3.43322C349.437 3.72234 349.184 3.97532 348.895 3.97532V3.93918Z" fill="white"/>
</svg>
