<svg width="23" height="32" viewBox="0 0 23 32" fill="none" xmlns="http://www.w3.org/2000/svg">
<path d="M11.5573 10.1341C10.6994 10.1341 9.84371 9.88983 9.12122 9.40251C8.62766 9.06988 8.18794 8.67039 7.81338 8.21536C7.07049 7.31325 6.5894 6.1635 6.38314 4.799C6.24941 3.91445 6.21767 2.46551 6.28907 0.492977L7.23312 0.526976C7.16456 2.41394 7.19346 3.84248 7.31699 4.6579C7.49775 5.85184 7.90971 6.84632 8.54266 7.61527C8.85942 8.00003 9.23172 8.33833 9.64991 8.61996C10.7634 9.37134 12.282 9.38438 13.4272 8.65339C13.8862 8.36043 14.284 8.01137 14.6098 7.61527C15.2422 6.84689 15.6548 5.85184 15.8355 4.6579C16.0084 3.51495 15.9925 1.50899 15.9557 0.503743L16.8997 0.469177C16.9467 1.75832 16.9405 3.66568 16.7694 4.799C16.5625 6.1635 16.0815 7.31325 15.3391 8.21536C14.9504 8.68739 14.4784 9.10218 13.9361 9.44897C13.2198 9.90627 12.388 10.1346 11.5584 10.1346L11.5573 10.1341Z" fill="#E9082A"/>
<path d="M11.5565 10.5874C10.5824 10.5874 9.65313 10.3075 8.86831 9.77822C8.33905 9.42122 7.86646 8.99226 7.46357 8.50324C6.66798 7.53709 6.15346 6.31368 5.93473 4.86644C5.79703 3.95356 5.7636 2.47685 5.83613 0.476558L5.85257 0.0237996L7.7027 0.090665L7.68626 0.54399C7.61883 2.40262 7.64603 3.80226 7.76503 4.59048C7.93333 5.70226 8.31242 6.62308 8.89267 7.32743C9.18224 7.67876 9.52223 7.98758 9.90302 8.24428C10.8692 8.89593 12.1872 8.9067 13.1828 8.27148C13.6022 8.00345 13.9642 7.68612 14.2589 7.32743C14.8386 6.62308 15.2183 5.70169 15.3866 4.59048C15.5543 3.4804 15.5378 1.51014 15.5022 0.520757L15.4857 0.0679987L17.3358 0L17.3523 0.453325C17.3999 1.76287 17.3931 3.70423 17.2174 4.86757C16.9987 6.31425 16.4842 7.53766 15.6886 8.50437C15.2698 9.01323 14.7621 9.45975 14.179 9.83148C13.4033 10.3267 12.4966 10.5885 11.5577 10.5885H11.5565V10.5874ZM6.72805 0.962748C6.67762 2.67575 6.71275 3.94223 6.83175 4.73158C7.02554 6.01449 7.47377 7.08943 8.16396 7.92752C8.51075 8.34911 8.91874 8.71914 9.37547 9.02683C10.0101 9.45465 10.7643 9.68132 11.5571 9.68132H11.5582C12.3243 9.68132 13.0621 9.46882 13.6917 9.06706C14.1943 8.74634 14.6306 8.36271 14.9888 7.92752C15.6784 7.08943 16.1266 6.01392 16.321 4.73158C16.4683 3.75523 16.4893 2.17143 16.4598 0.939516L16.4218 0.940649C16.4468 2.03203 16.4377 3.7048 16.2836 4.72591C16.0903 6.00202 15.6449 7.07073 14.9599 7.90372C14.6046 8.33551 14.1711 8.7163 13.6713 9.03533C12.3753 9.86265 10.6572 9.84678 9.39643 8.99566C8.94254 8.68967 8.53795 8.32248 8.19285 7.90315C7.5072 7.07073 7.06181 6.00145 6.86858 4.72534C6.75128 3.95016 6.71615 2.65535 6.76545 0.963315L6.72748 0.962182L6.72805 0.962748Z" fill="#E9082A"/>
<path d="M21.5986 30.5547L21.4631 17.4496C21.3849 15.5083 19.8448 13.7533 17.4439 12.8846C17.3708 12.858 17.296 12.8325 17.2206 12.807L15.3625 12.3599C15.3501 12.3571 15.337 12.3531 15.3246 12.3491C14.2111 11.9808 13.4455 11.1767 13.3282 10.2508C13.3271 10.2412 13.326 10.231 13.3254 10.2214L13.2568 9.13054L14.1992 9.07104L14.2666 10.1454C14.3442 10.6973 14.8537 11.1937 15.6028 11.447L17.4603 11.8936C17.4733 11.8964 17.4858 11.9004 17.4983 11.9043C17.5878 11.9338 17.6762 11.965 17.764 11.9961C20.5333 12.9985 22.3114 15.0787 22.4061 17.4258L22.5421 30.545L21.598 30.5547H21.5986Z" fill="#E9082A"/>
<path d="M21.1494 31.0131L21.0095 17.4615C20.9352 15.7049 19.5101 14.1148 17.2888 13.3107C17.2253 13.2875 17.1602 13.2654 17.095 13.2433L15.2562 12.8008C15.2318 12.7951 15.2063 12.7877 15.1808 12.7792C13.9008 12.3559 13.0179 11.409 12.878 10.308C12.8757 10.2871 12.874 10.2706 12.8729 10.2536L12.7754 8.70667L14.6227 8.58994L14.7173 10.0972C14.7774 10.4616 15.1718 10.818 15.7294 11.0113L17.5665 11.4532C17.5891 11.4583 17.6146 11.4657 17.6418 11.4748C17.7348 11.5054 17.8266 11.5377 17.9178 11.5705C20.8638 12.637 22.757 14.8741 22.859 17.4082V17.4218L23.0001 30.9944L21.1494 31.0131ZM13.7381 9.55438L13.7789 10.1981C13.8736 10.9444 14.5213 11.6057 15.4676 11.9185L17.3642 12.3769C17.4429 12.403 17.5211 12.4302 17.5982 12.4579C20.1754 13.3912 21.83 15.2969 21.9161 17.4309V17.4445L22.047 30.0962H22.085L21.9541 17.4371C21.864 15.281 20.2003 13.36 17.6107 12.4222C17.5274 12.3922 17.4429 12.3627 17.3568 12.3344L15.4778 11.8828L15.4585 11.876C14.5479 11.5683 13.9195 10.9291 13.818 10.2083L13.8146 10.1737L13.7755 9.55212L13.7381 9.55438Z" fill="#E9082A"/>
<path d="M1.40206 30.5546L0.458008 30.545L0.593439 17.44C0.688637 15.0793 2.4668 12.9991 5.23548 11.9967C5.32332 11.9649 5.41171 11.9343 5.50125 11.9049L6.86632 11.4532C7.86193 11.124 8.68302 10.5438 8.73515 10.1324L8.90458 8.92426L9.83956 9.05515L9.67127 10.257C9.51204 11.511 7.55424 12.2199 7.16325 12.3491L5.79874 12.8007C5.71771 12.8279 5.63668 12.8557 5.55678 12.8846C3.15642 13.7539 1.61625 15.5088 1.53749 17.4638L1.40262 30.5546H1.40206Z" fill="#E9082A"/>
<path d="M1.8507 31.0131L0 30.9944L0.140531 17.4224C0.243095 14.8798 2.13629 12.6375 5.0812 11.5711C5.17414 11.5377 5.26593 11.5059 5.35887 11.4753L6.72394 11.0237C7.64646 10.7183 8.22841 10.2429 8.28621 10.0695L8.51854 8.4137L10.3517 8.67039L10.1205 10.3188C9.92895 11.8023 7.91788 12.5786 7.30533 12.7809L5.94082 13.2325C5.86376 13.258 5.78669 13.2847 5.71076 13.3124C3.49003 14.1165 2.06546 15.7117 1.99066 17.4768L1.85127 31.0142L1.8507 31.0131ZM0.915716 30.0968H0.953115L1.08345 17.4456C1.17014 15.3025 2.82421 13.3912 5.40136 12.4585C5.48523 12.4285 5.56966 12.399 5.65466 12.3707L7.0203 11.919C7.78869 11.6646 9.11749 11.0169 9.22119 10.2004V10.1947L9.32772 9.44161L9.29033 9.43651L9.18436 10.1936C9.092 10.8945 8.02612 11.5473 7.00897 11.8839L5.64389 12.3355C5.55776 12.3639 5.47333 12.3933 5.38833 12.4239C2.80041 13.3612 1.13671 15.2878 1.04661 17.4524L0.916283 30.0974L0.915716 30.0968Z" fill="#E9082A"/>
<path d="M4.79269 30.6414L3.86621 30.4595C3.94668 30.0492 4.02714 29.665 4.10421 29.2995C4.3728 28.02 4.58473 27.0097 4.58473 25.9064C4.58473 22.9643 3.88434 20.5713 3.87698 20.5475L4.78193 20.2789C4.81253 20.3815 5.52878 22.8283 5.52878 25.9064C5.52878 27.1077 5.29702 28.2132 5.02842 29.4933C4.95249 29.8548 4.87259 30.2351 4.79326 30.6414H4.79269Z" fill="#E9082A"/>
<path d="M5.14929 31.1735L3.33259 30.8165L3.41985 30.3716C3.49805 29.9727 3.57455 29.6078 3.65898 29.206C3.92247 27.9509 4.12987 26.9615 4.12987 25.9064C4.12987 23.0703 3.46858 20.7713 3.44082 20.675L3.31445 20.2421L5.08639 19.7157L5.21558 20.1503C5.24675 20.2557 5.98114 22.766 5.98114 25.907C5.98114 27.1553 5.74484 28.2818 5.47115 29.5868L5.46831 29.5998C5.39295 29.9591 5.31532 30.3308 5.23655 30.7292L5.14929 31.174V31.1735ZM4.39903 30.1019L4.43587 30.1093C4.4846 29.8696 4.53333 29.6389 4.58036 29.4129L4.5832 29.3998C4.84669 28.1441 5.07392 27.0601 5.07392 25.9058C5.07392 23.612 4.66876 21.6803 4.4625 20.8456L4.4251 20.8569C4.63023 21.6956 5.03595 23.642 5.03595 25.9058C5.03595 27.055 4.82006 28.0852 4.54636 29.3891C4.49423 29.6361 4.44607 29.8679 4.3979 30.1019H4.39903Z" fill="#E9082A"/>
<path d="M18.1633 30.6413C18.0834 30.235 18.0035 29.8548 17.9281 29.4933C17.6595 28.2132 17.4277 27.1077 17.4277 25.9064C17.4277 22.8283 18.144 20.3815 18.1746 20.2789L19.0801 20.5475C19.0727 20.5713 18.3724 22.9722 18.3724 25.9064C18.3724 27.0096 18.5843 28.02 18.8529 29.2995C18.9294 29.665 19.0098 30.0492 19.0909 30.4594L18.1644 30.6413H18.1633Z" fill="#E9082A"/>
<path d="M17.8055 31.1734L17.7182 30.7286C17.6395 30.3257 17.5607 29.9506 17.4842 29.5879C17.2099 28.2812 16.9736 27.1547 16.9736 25.9064C16.9736 22.7654 17.708 20.2551 17.7392 20.1497L17.8684 19.7151L19.6431 20.2415L19.514 20.6761C19.5072 20.6988 18.8249 23.0533 18.8249 25.9058C18.8249 26.9609 19.0323 27.9503 19.2952 29.2026C19.3802 29.6089 19.4567 29.9744 19.5349 30.3716L19.6222 30.8164L17.8055 31.1734ZM18.4917 20.8461C18.2854 21.6808 17.8803 23.6125 17.8803 25.9064C17.8803 27.0607 18.1075 28.1447 18.371 29.4004C18.4192 29.631 18.4685 29.8656 18.5183 30.1098L18.5552 30.1025C18.5076 29.8696 18.4594 29.6384 18.4078 29.393C18.1336 28.0857 17.9177 27.0561 17.9177 25.9069C17.9177 23.6431 18.324 21.6961 18.5291 20.858L18.4917 20.8467V20.8461Z" fill="#E9082A"/>
</svg>
