<svg width="30" height="30" viewBox="0 0 30 30" fill="none" xmlns="http://www.w3.org/2000/svg">
<g clip-path="url(#clip0_25_709)">
<path d="M15 0.278809C6.88215 0.278809 0.278809 6.88215 0.278809 15C0.278809 23.1178 6.88215 29.7212 15 29.7212C23.1178 29.7212 29.7212 23.1178 29.7212 15C29.7212 6.88215 23.1178 0.278809 15 0.278809ZM15 28.829C7.37398 28.829 1.171 22.626 1.171 15C1.171 7.37398 7.37398 1.171 15 1.171C22.626 1.171 28.829 7.37398 28.829 15C28.829 22.626 22.626 28.829 15 28.829Z" fill="#E9082A"/>
<path d="M15 30C6.72937 30 0 23.2706 0 15C0 6.72937 6.72937 0 15 0C23.2706 0 30 6.72937 30 15C30 23.2706 23.2706 30 15 30ZM15 0.557621C7.03606 0.557621 0.557621 7.03606 0.557621 15C0.557621 22.9639 7.03606 29.4424 15 29.4424C22.9639 29.4424 29.4424 22.9639 29.4424 15C29.4424 7.03606 22.9639 0.557621 15 0.557621ZM15 29.1078C7.22119 29.1078 0.892193 22.7788 0.892193 15C0.892193 7.22119 7.22119 0.892193 15 0.892193C22.7788 0.892193 29.1078 7.22119 29.1078 15C29.1078 22.7788 22.7788 29.1078 15 29.1078ZM15 1.44981C7.52788 1.44981 1.44981 7.52788 1.44981 15C1.44981 22.4721 7.52788 28.5502 15 28.5502C22.4721 28.5502 28.5502 22.4721 28.5502 15C28.5502 7.52788 22.4721 1.44981 15 1.44981Z" fill="#E9082A"/>
<path d="M13.9081 15.9334C14.0576 15.9847 14.2159 16.0182 14.3832 16.0182C15.204 16.0182 15.8698 15.3524 15.8698 14.5316C15.8698 14.3699 15.8375 14.2171 15.7895 14.071C16.8591 13.036 17.9587 12.0134 19.0907 11.0029C19.2836 11.0955 19.4977 11.1513 19.7263 11.1513C20.5472 11.1513 21.213 10.4855 21.213 9.66465C21.213 9.5074 21.1817 9.35908 21.1371 9.21744C21.7895 8.66205 22.4475 8.10889 23.1178 7.56242L22.5546 6.87097C21.9 7.40406 21.2598 7.94383 20.6219 8.48584C20.3721 8.29625 20.0643 8.17915 19.7263 8.17915C18.9055 8.17915 18.2397 8.84495 18.2397 9.66577C18.2397 9.93008 18.3144 10.1754 18.436 10.3907C17.3486 11.362 16.2925 12.3457 15.262 13.3394C15.0156 13.1565 14.7133 13.0461 14.3832 13.0461C13.5624 13.0461 12.8966 13.7119 12.8966 14.5327C12.8966 14.8583 13.0048 15.1572 13.1821 15.4015C12.1037 16.5 11.052 17.6074 10.0449 18.7293C9.8375 18.62 9.60553 18.552 9.3546 18.552C8.53378 18.552 7.86798 19.2178 7.86798 20.0386C7.86798 20.3609 7.97281 20.6576 8.14791 20.9007C7.55237 21.6044 6.97133 22.3104 6.40479 23.0219L7.10293 23.5773C7.67505 22.8591 8.26389 22.1453 8.86501 21.4349C9.01891 21.4884 9.18174 21.5241 9.3546 21.5241C10.1754 21.5241 10.8412 20.8583 10.8412 20.0375C10.8412 19.7933 10.7765 19.5669 10.6728 19.3639C11.7111 18.2074 12.7951 17.0654 13.9092 15.9334H13.9081Z" fill="#E9082A"/>
<path d="M7.10181 23.8561C7.04048 23.8561 6.97914 23.836 6.92784 23.7959L6.22969 23.2405C6.1717 23.1948 6.1349 23.1268 6.12598 23.0543C6.11817 22.9807 6.13936 22.907 6.18508 22.8491C6.70479 22.1966 7.24791 21.5342 7.80219 20.8773C7.66166 20.6197 7.58806 20.3331 7.58806 20.0398C7.58806 19.0662 8.37988 18.2743 9.35349 18.2743C9.56427 18.2743 9.7717 18.3134 9.97356 18.3926C10.8423 17.4312 11.7791 16.4375 12.8286 15.3647C12.6903 15.1082 12.6178 14.826 12.6178 14.5338C12.6178 13.5602 13.4096 12.7684 14.3832 12.7684C14.6799 12.7684 14.9676 12.8431 15.2275 12.9881C16.1843 12.068 17.1468 11.1736 18.0936 10.3249C18.0055 10.113 17.9609 9.89218 17.9609 9.6669C17.9609 8.69329 18.7527 7.90147 19.7263 7.90147C20.0342 7.90147 20.333 7.98289 20.6007 8.13902C21.1037 7.71188 21.7327 7.18214 22.3773 6.65686C22.4342 6.61002 22.5078 6.58772 22.5814 6.59552C22.655 6.60333 22.723 6.63902 22.7687 6.69701L23.3319 7.38846C23.429 7.50779 23.4111 7.68288 23.2918 7.78103C22.7408 8.22935 22.1531 8.72118 21.4494 9.31783C21.4762 9.43828 21.4895 9.55426 21.4895 9.6669C21.4895 10.6405 20.6977 11.4323 19.7241 11.4323C19.5278 11.4323 19.3327 11.3978 19.1431 11.3297C18.1327 12.2342 17.1111 13.1844 16.1007 14.158C16.1308 14.2873 16.1464 14.4111 16.1464 14.5338C16.1464 15.5074 15.3546 16.2992 14.381 16.2992C14.2527 16.2992 14.1223 16.2836 13.9884 16.2502C12.891 17.3676 11.9096 18.407 10.9985 19.4175C11.0777 19.6204 11.1167 19.829 11.1167 20.0398C11.1167 21.0134 10.3249 21.8052 9.35126 21.8052C9.22077 21.8052 9.0914 21.7896 8.95758 21.7561C8.3888 22.4297 7.83787 23.1 7.31817 23.7524C7.26352 23.8215 7.18211 23.8572 7.09958 23.8572L7.10181 23.8561ZM6.79624 22.9773L7.05832 23.1859C7.56687 22.5524 8.10219 21.9044 8.652 21.2554C8.72672 21.1673 8.84828 21.1349 8.95646 21.1728C9.09698 21.2219 9.22746 21.2465 9.35349 21.2465C10.0193 21.2465 10.5613 20.7044 10.5613 20.0386C10.5613 19.8546 10.5145 19.6706 10.4241 19.4922C10.3717 19.3896 10.3873 19.2647 10.4643 19.1788C11.4468 18.0836 12.5085 16.9584 13.7096 15.7394C13.7843 15.6636 13.897 15.6368 13.9974 15.6714C14.1356 15.7182 14.2617 15.7416 14.3821 15.7416C15.0479 15.7416 15.5899 15.1996 15.5899 14.5338C15.5899 14.4178 15.5687 14.2963 15.5241 14.1602C15.4907 14.0587 15.5185 13.9472 15.5955 13.8725C16.6929 12.8108 17.807 11.7769 18.9044 10.7966C18.9881 10.7219 19.1085 10.7052 19.21 10.7531C19.3784 10.8334 19.5513 10.8736 19.7263 10.8736C20.3921 10.8736 20.9342 10.3316 20.9342 9.66578C20.9342 9.55314 20.9141 9.43828 20.8717 9.30333C20.8382 9.19627 20.8717 9.07917 20.9565 9.00668C21.6301 8.43344 22.1988 7.95612 22.7263 7.52452L22.5145 7.26467C21.8799 7.78549 21.2732 8.2985 20.8026 8.69887C20.7022 8.78363 20.5572 8.78809 20.4535 8.70891C20.2382 8.54497 19.9873 8.45909 19.7275 8.45909C19.0617 8.45909 18.5197 9.0011 18.5197 9.6669C18.5197 9.86876 18.5732 10.0662 18.6803 10.2546C18.7449 10.3684 18.7204 10.5123 18.6234 10.5992C17.5795 11.5316 16.5145 12.5208 15.4572 13.5412C15.3591 13.636 15.2074 13.6461 15.0981 13.5647C14.8862 13.4085 14.6397 13.326 14.3843 13.326C13.7185 13.326 13.1765 13.868 13.1765 14.5338C13.1765 14.7859 13.2568 15.0301 13.4085 15.2386C13.4888 15.3491 13.4765 15.5007 13.3817 15.5978C12.2197 16.781 11.1959 17.8662 10.2524 18.9167C10.1665 19.0115 10.0271 19.036 9.91445 18.9769C9.73267 18.881 9.54419 18.832 9.3546 18.832C8.6888 18.832 8.1468 19.374 8.1468 20.0398C8.1468 20.2896 8.22598 20.5316 8.3743 20.7401C8.44903 20.8439 8.44345 20.9855 8.36092 21.0825C7.82672 21.7137 7.30144 22.3505 6.79735 22.9795L6.79624 22.9773Z" fill="#E9082A"/>
<path d="M20.8941 17.894C21.038 17.9409 21.1896 17.9721 21.3491 17.9721C22.1699 17.9721 22.8357 17.3063 22.8357 16.4855C22.8357 16.3617 22.8157 16.2424 22.7878 16.1275C23.864 15.1584 24.9391 14.2472 26.0097 13.3952L25.4543 12.697C24.4093 13.529 23.3599 14.4178 22.3093 15.3591C22.0495 15.1383 21.7183 15 21.3502 15C20.5294 15 19.8636 15.6658 19.8636 16.4866C19.8636 16.8178 19.9751 17.1201 20.158 17.3665C19.1298 18.358 18.1004 19.3974 17.0722 20.4881C16.8725 20.3888 16.6506 20.3275 16.4131 20.3275C15.5922 20.3275 14.9264 20.9933 14.9264 21.8141C14.9264 22.0996 15.0112 22.3628 15.1495 22.5892C14.2829 23.5606 13.4164 24.5576 12.5543 25.597L13.2413 26.1669C14.0989 25.1342 14.9599 24.1427 15.822 23.1769C16.0038 23.2561 16.2034 23.3007 16.4131 23.3007C17.2339 23.3007 17.8997 22.6349 17.8997 21.8141C17.8997 21.5576 17.8283 21.3201 17.7145 21.1093C18.7751 19.9851 19.8357 18.9134 20.8963 17.8952L20.8941 17.894Z" fill="#E9082A"/>
<path d="M13.239 26.4435C13.1766 26.4435 13.113 26.4223 13.0606 26.3789L12.3736 25.809C12.3167 25.7621 12.281 25.6941 12.2744 25.6205C12.2677 25.5469 12.29 25.4733 12.3379 25.4164C13.0952 24.5052 13.9048 23.5651 14.8104 22.5469C14.7022 22.3149 14.6454 22.064 14.6454 21.8119C14.6454 20.8383 15.4372 20.0465 16.4108 20.0465C16.6104 20.0465 16.8089 20.0822 17.0019 20.1536C17.9197 19.1844 18.8587 18.2342 19.7989 17.3231C19.6573 17.0644 19.5837 16.7789 19.5837 16.4855C19.5837 15.5119 20.3755 14.7201 21.3491 14.7201C21.6814 14.7201 22.0082 14.8183 22.2915 15C23.2985 14.1034 24.3022 13.2558 25.2792 12.4785C25.3996 12.3826 25.5747 12.4026 25.6706 12.5231L26.226 13.2212C26.2718 13.2792 26.2929 13.3528 26.2851 13.4264C26.2762 13.5 26.2394 13.567 26.1814 13.6127C25.1654 14.4212 24.126 15.3 23.0911 16.2279C23.1056 16.3171 23.1134 16.403 23.1134 16.4855C23.1134 17.4592 22.3216 18.251 21.348 18.251C21.2253 18.251 21.1015 18.2354 20.971 18.2052C19.9985 19.1421 19.0149 20.1357 18.0446 21.1606C18.1316 21.3714 18.1751 21.59 18.1751 21.8131C18.1751 22.7867 17.3833 23.5785 16.4097 23.5785C16.2357 23.5785 16.0651 23.5528 15.9 23.5026C15.0045 24.5097 14.2026 25.4398 13.4521 26.3432C13.3974 26.409 13.3171 26.4435 13.2379 26.4435H13.239ZM12.9457 25.5592L13.2034 25.7733C13.9416 24.89 14.7323 23.9766 15.6112 22.9907C15.6915 22.9004 15.8197 22.8725 15.9301 22.9205C16.084 22.9874 16.2457 23.0209 16.4108 23.0209C17.0766 23.0209 17.6186 22.4789 17.6186 21.8131C17.6186 21.619 17.5673 21.4261 17.4669 21.2409C17.4089 21.135 17.4268 21.0045 17.5093 20.9164C18.5665 19.7956 19.6405 18.7105 20.7011 17.6922C20.7747 17.6209 20.8818 17.5963 20.9799 17.6276C21.1149 17.671 21.2353 17.6922 21.3491 17.6922C22.0149 17.6922 22.5569 17.1502 22.5569 16.4844C22.5569 16.3963 22.5446 16.3038 22.5167 16.1934C22.4922 16.093 22.5245 15.987 22.6004 15.919C23.6086 15.0112 24.6234 14.148 25.6171 13.3495L25.4086 13.0874C24.4539 13.8547 23.4747 14.6867 22.4944 15.5655C22.3907 15.6592 22.2335 15.6603 22.1275 15.5699C21.9022 15.3781 21.6335 15.2766 21.3491 15.2766C20.6833 15.2766 20.1413 15.8186 20.1413 16.4844C20.1413 16.7398 20.2238 16.9863 20.381 17.1993C20.4647 17.3119 20.4513 17.4692 20.3498 17.5662C19.316 18.5621 18.281 19.6093 17.2729 20.6777C17.1881 20.767 17.0554 20.7915 16.945 20.7357C16.7699 20.6487 16.5903 20.6041 16.4097 20.6041C15.7439 20.6041 15.2019 21.1461 15.2019 21.8119C15.2019 22.0294 15.2643 22.2469 15.3837 22.4409C15.4483 22.5458 15.4361 22.6807 15.3547 22.7722C14.4725 23.7614 13.6818 24.6748 12.9435 25.558L12.9457 25.5592Z" fill="#E9082A"/>
<path d="M6.21301 9.01782C6.38141 9.08362 6.56208 9.12265 6.7539 9.12265C7.57472 9.12265 8.24052 8.45685 8.24052 7.63604C8.24052 7.42191 8.19368 7.21894 8.11227 7.03492C8.85725 6.33232 9.6 5.71559 10.3372 5.19923L9.82528 4.46875C9.05911 5.00518 8.28959 5.6431 7.52007 6.36801C7.29591 6.23195 7.03606 6.15053 6.75502 6.15053C5.9342 6.15053 5.2684 6.81633 5.2684 7.63715C5.2684 7.94161 5.36096 8.22377 5.51821 8.4602C5.05204 8.99663 4.58699 9.5654 4.12305 10.1676L4.83011 10.7119C5.2907 10.1141 5.75241 9.54979 6.21412 9.01894L6.21301 9.01782Z" fill="#E9082A"/>
<path d="M4.82791 10.9895C4.76657 10.9895 4.70635 10.9695 4.65728 10.9315L3.95022 10.3873C3.82865 10.2936 3.80524 10.1185 3.89892 9.99586C4.31602 9.45385 4.74427 8.92634 5.17475 8.42671C5.05208 8.18248 4.98739 7.91259 4.98739 7.63601C4.98739 6.6624 5.77921 5.87058 6.75282 5.87058C6.99817 5.87058 7.24353 5.92523 7.47215 6.02894C8.21267 5.34084 8.94984 4.73972 9.6636 4.2401C9.72382 4.19772 9.79966 4.18099 9.87215 4.19326C9.94464 4.20552 10.0093 4.24679 10.0517 4.30813L10.5636 5.03861C10.606 5.09883 10.6227 5.17355 10.6104 5.24716C10.5982 5.31965 10.5569 5.38433 10.4956 5.42671C9.82866 5.894 9.13609 6.46054 8.43683 7.11073C8.49037 7.28136 8.51825 7.45645 8.51825 7.63489C8.51825 8.6085 7.72642 9.40032 6.75282 9.40032C6.60226 9.40032 6.45059 9.38024 6.30115 9.33898C5.88293 9.82411 5.46248 10.3416 5.04873 10.8802C5.00412 10.9394 4.93721 10.9773 4.8636 10.9862C4.85133 10.9873 4.84018 10.9884 4.82791 10.9884V10.9895ZM4.51341 10.1163L4.77884 10.3204C5.18479 9.80181 5.5952 9.30218 6.00338 8.83489C6.08144 8.74567 6.20635 8.71556 6.31564 8.75794C6.46174 8.81482 6.60895 8.84381 6.75505 8.84381C7.42085 8.84381 7.96286 8.30181 7.96286 7.63601C7.96286 7.46872 7.92717 7.30478 7.85802 7.14865C7.81007 7.04047 7.83572 6.91445 7.92159 6.83303C8.60747 6.18508 9.28888 5.61407 9.95133 5.1334L9.75951 4.85906C9.09148 5.34419 8.40449 5.91965 7.71193 6.57095C7.62048 6.65682 7.4833 6.67132 7.37624 6.60664C7.18107 6.48842 6.97252 6.42932 6.75505 6.42932C6.08925 6.42932 5.54724 6.97132 5.54724 7.63712C5.54724 7.87578 5.6175 8.10664 5.75022 8.30515C5.81936 8.40998 5.81155 8.54827 5.72903 8.64307C5.32196 9.11147 4.91379 9.60664 4.51564 10.1174L4.51341 10.1163Z" fill="#E9082A"/>
<path d="M22.3159 21.0413C22.1185 20.9443 21.8988 20.8841 21.6635 20.8841C20.8427 20.8841 20.1769 21.5499 20.1769 22.3707C20.1769 22.625 20.2472 22.8614 20.3598 23.0699C19.8568 23.6432 19.355 24.2521 18.8553 24.9001L19.5624 25.4443C20.0397 24.8231 20.5193 24.2409 20.9988 23.6923C21.1996 23.7937 21.4226 23.8562 21.6635 23.8562C22.4843 23.8562 23.1501 23.1904 23.1501 22.3696C23.1501 22.1097 23.0777 21.8699 22.9606 21.6569C23.6665 20.9989 24.3702 20.4224 25.0706 19.9317L24.5587 19.2012C23.8137 19.7231 23.0654 20.3398 22.3171 21.0391L22.3159 21.0413Z" fill="#E9082A"/>
<path d="M19.5624 25.7242C19.5011 25.7242 19.4408 25.7041 19.3918 25.6662L18.6847 25.122C18.5632 25.0283 18.5397 24.8532 18.6334 24.7316C19.084 24.1461 19.5524 23.5729 20.0286 23.0253C19.9416 22.8134 19.897 22.5948 19.897 22.3718C19.897 21.3982 20.6888 20.6064 21.6624 20.6064C21.8643 20.6064 22.0639 20.6432 22.2579 20.7145C22.9784 20.051 23.6966 19.4655 24.3959 18.9759C24.5219 18.8878 24.6959 18.9179 24.784 19.0439L25.2959 19.7744C25.3382 19.8346 25.355 19.9093 25.3427 19.9829C25.3304 20.0554 25.2892 20.1201 25.2278 20.1625C24.5955 20.6052 23.9475 21.1305 23.2985 21.725C23.3832 21.9346 23.4267 22.151 23.4267 22.3718C23.4267 23.3454 22.6349 24.1372 21.6613 24.1372C21.4628 24.1372 21.2654 24.1015 21.0736 24.0313C20.6353 24.5387 20.2014 25.0707 19.781 25.616C19.7353 25.6751 19.6695 25.7131 19.5959 25.7231C19.5836 25.7242 19.5724 25.7253 19.5602 25.7253L19.5624 25.7242ZM19.2479 24.851L19.5133 25.0551C19.9293 24.522 20.3587 24.0034 20.7903 23.5105C20.8739 23.4145 21.0122 23.3878 21.126 23.4447C21.3022 23.5328 21.4829 23.5785 21.6646 23.5785C22.3304 23.5785 22.8724 23.0365 22.8724 22.3707C22.8724 22.1733 22.82 21.9792 22.7174 21.793C22.6561 21.6815 22.6784 21.5421 22.7721 21.4539C23.4133 20.8573 24.0557 20.3242 24.6847 19.8658L24.4929 19.5926C23.8427 20.0655 23.1758 20.6197 22.5089 21.2443C22.4241 21.3235 22.2992 21.3424 22.1955 21.2911C22.0226 21.2064 21.8442 21.1629 21.6658 21.1629C21 21.1629 20.4579 21.7049 20.4579 22.3707C20.4579 22.5636 20.5081 22.7543 20.6074 22.9383C20.6632 23.0409 20.6487 23.167 20.5717 23.2539C20.1223 23.7658 19.6784 24.3023 19.2501 24.851H19.2479Z" fill="#E9082A"/>
<path d="M6.75395 15.2587C7.57477 15.2587 8.24057 14.5929 8.24057 13.7721C8.24057 13.4398 8.12681 13.1353 7.9428 12.8877C9.55321 11.1413 11.1658 9.51635 12.7763 8.01747C12.977 8.11895 13.2 8.18029 13.4398 8.18029C14.2606 8.18029 14.9264 7.51449 14.9264 6.69368C14.9264 6.50966 14.8885 6.33568 14.8272 6.17286C15.5476 5.54944 16.267 4.94163 16.9852 4.37063L16.4298 3.67249C15.7149 4.24126 14.9978 4.84683 14.2796 5.46691C14.0409 5.30297 13.7521 5.20594 13.4409 5.20594C12.6201 5.20594 11.9543 5.87174 11.9543 6.69256C11.9543 6.94683 12.0246 7.18215 12.1372 7.39182C10.4956 8.92193 8.85172 10.5814 7.2112 12.3636C7.06622 12.3167 6.91566 12.2844 6.75506 12.2844C5.93425 12.2844 5.26845 12.9502 5.26845 13.771C5.26845 13.9885 5.31752 14.1926 5.40116 14.3788C4.77663 15.0937 4.15209 15.8208 3.52979 16.5691L4.21677 17.139C4.8112 16.4242 5.40562 15.7282 6.00228 15.0457C6.22421 15.1762 6.47848 15.2565 6.75506 15.2565L6.75395 15.2587Z" fill="#E9082A"/>
<path d="M4.2156 17.4201C4.15315 17.4201 4.08958 17.3989 4.03716 17.3554L3.35018 16.7855C3.2933 16.7387 3.25761 16.6707 3.25092 16.5971C3.24423 16.5234 3.26653 16.4498 3.31449 16.393C3.85092 15.7472 4.42861 15.0692 5.0788 14.3242C5.01858 14.1446 4.98847 13.9595 4.98847 13.7721C4.98847 12.7985 5.78029 12.0067 6.75389 12.0067C6.87322 12.0067 6.99367 12.0212 7.12081 12.0502C8.66876 10.3729 10.2413 8.7859 11.7981 7.32716C11.7167 7.12196 11.6743 6.90895 11.6743 6.69371C11.6743 5.7201 12.4662 4.92828 13.4398 4.92828C13.723 4.92828 13.9996 4.99631 14.2483 5.12568C15.0089 4.47103 15.6491 3.93683 16.2546 3.45504C16.3751 3.35913 16.5502 3.37921 16.6461 3.49965L17.2015 4.1978C17.2472 4.25579 17.2684 4.32939 17.2606 4.403C17.2517 4.47661 17.2149 4.54352 17.1569 4.58925C16.5546 5.0688 15.9134 5.603 15.1472 6.26434C15.1851 6.4082 15.2041 6.55207 15.2041 6.69371C15.2041 7.66731 14.4123 8.45913 13.4387 8.45913C13.2323 8.45913 13.0294 8.42122 12.8308 8.34649C11.3242 9.75616 9.7985 11.293 8.29293 12.919C8.44125 13.1822 8.51821 13.4733 8.51821 13.7733C8.51821 14.7469 7.72638 15.5387 6.75278 15.5387C6.51635 15.5387 6.28661 15.4907 6.06802 15.3959C5.4736 16.0796 4.93605 16.7108 4.42973 17.3208C4.37508 17.3866 4.29479 17.4212 4.2156 17.4212V17.4201ZM3.92229 16.5357L4.17992 16.7498C4.67731 16.1543 5.20705 15.5353 5.79144 14.8651C5.87954 14.7636 6.02787 14.7402 6.14386 14.8082C6.33679 14.9231 6.54311 14.9811 6.75389 14.9811C7.41969 14.9811 7.9617 14.4391 7.9617 13.7733C7.9617 13.5168 7.87806 13.2681 7.71858 13.055C7.63828 12.948 7.64609 12.7974 7.73754 12.6993C9.3446 10.9562 10.9762 9.31229 12.5855 7.81341C12.6714 7.73423 12.7963 7.71527 12.9011 7.7688C13.0773 7.8569 13.258 7.90263 13.4398 7.90263C14.1056 7.90263 14.6476 7.36062 14.6476 6.69482C14.6476 6.55765 14.6208 6.41601 14.5662 6.27215C14.5249 6.16285 14.5561 6.04017 14.6442 5.96322C15.3847 5.32196 16.0104 4.79668 16.5926 4.32828L16.384 4.0662C15.8074 4.53014 15.1896 5.04872 14.4602 5.67884C14.3643 5.76248 14.2249 5.77029 14.1201 5.6978C13.9182 5.55951 13.6829 5.4859 13.4387 5.4859C12.7729 5.4859 12.2308 6.02791 12.2308 6.69371C12.2308 6.88664 12.281 7.07735 12.3803 7.26136C12.4405 7.37289 12.4171 7.51118 12.3245 7.59705C10.6907 9.11936 9.03902 10.7878 7.41412 12.5532C7.34051 12.6335 7.22676 12.6625 7.12304 12.6301C6.98809 12.5866 6.86653 12.5655 6.75278 12.5655C6.08698 12.5655 5.54497 13.1075 5.54497 13.7733C5.54497 13.9417 5.58177 14.1078 5.65315 14.2673C5.69776 14.3666 5.68103 14.4837 5.60854 14.5651C4.98847 15.2744 4.43419 15.9223 3.92118 16.5357H3.92229Z" fill="#E9082A"/>
</g>
<defs>
<clipPath id="clip0_25_709">
<rect width="30" height="30" fill="white"/>
</clipPath>
</defs>
</svg>
