<svg width="29" height="31" viewBox="0 0 29 31" fill="none" xmlns="http://www.w3.org/2000/svg">
<g clip-path="url(#clip0_25_746)">
<path d="M12.0848 13.4765C12.0115 13.4765 11.9381 13.4655 11.8684 13.4433L9.93191 12.8383C9.40744 12.7018 8.80594 12.7166 8.26313 12.8863L7.6213 13.0892C7.23619 13.2109 6.82175 12.9932 6.70072 12.6059C6.57969 12.2185 6.79608 11.8017 7.18118 11.6799L7.82302 11.477C8.62256 11.2261 9.5138 11.204 10.3317 11.418L12.2975 12.0304C12.6826 12.1521 12.899 12.5653 12.7817 12.9527C12.6826 13.2699 12.3929 13.4728 12.0811 13.4728L12.0848 13.4765Z" fill="#E9082A"/>
<path d="M14.6265 21.5262C14.3918 21.5262 14.1534 21.5078 13.9223 21.4672C13.4088 21.3787 12.9651 21.0872 12.6716 20.6482C12.3746 20.2018 12.2719 19.6484 12.3892 19.1246C12.4333 18.9254 12.4809 18.7262 12.5359 18.5122C12.7413 17.6821 12.9944 16.6492 13.2731 14.4689C13.3245 14.0631 13.6913 13.779 14.0947 13.8306C14.4981 13.8823 14.7805 14.2512 14.7292 14.657C14.4395 16.9222 14.1607 18.0474 13.959 18.8663C13.9076 19.0729 13.86 19.2611 13.8196 19.4492C13.7903 19.5784 13.816 19.7185 13.8893 19.8255C13.937 19.8956 14.0213 19.9879 14.168 20.01C14.5018 20.069 14.8429 20.0616 15.1876 19.9915C15.5874 19.9104 15.9725 20.1686 16.0532 20.567C16.1339 20.9655 15.8808 21.3565 15.4811 21.4377C15.195 21.4967 14.9089 21.5262 14.6228 21.5262H14.6265Z" fill="#E9082A"/>
<path d="M9.51387 15.5388C9.26081 15.5388 9.00407 15.4945 8.74734 15.4096C8.1165 15.1957 7.69839 14.7862 7.65071 14.7419C7.36464 14.4541 7.36464 13.9856 7.65071 13.6979C7.93679 13.4101 8.39891 13.4101 8.68499 13.6979C8.92338 13.9303 9.55422 14.3951 10.2401 13.7052C10.5261 13.4175 10.9919 13.4175 11.278 13.7052C11.5641 13.993 11.5641 14.4615 11.278 14.7493C10.7572 15.2731 10.1484 15.5425 9.51387 15.5425V15.5388Z" fill="#E9082A"/>
<path d="M17.1389 13.4765C16.8271 13.4765 16.5374 13.2736 16.4384 12.9563C16.3173 12.5653 16.5337 12.1521 16.9225 12.034L18.859 11.429C19.7099 11.204 20.6011 11.2261 21.4007 11.477L22.0425 11.6799C22.4276 11.8016 22.644 12.2148 22.523 12.6059C22.4019 12.9969 21.9912 13.2109 21.6024 13.0891L20.9606 12.8862C20.4178 12.7165 19.8163 12.7018 19.2588 12.8493L17.3553 13.4433C17.2819 13.4654 17.2086 13.4765 17.1389 13.4765Z" fill="#E9082A"/>
<path d="M14.6925 25.256H14.5311C13.4455 25.256 12.5653 25.1231 11.7621 24.8428C11.3807 24.71 11.1789 24.2894 11.311 23.902C11.443 23.5184 11.8611 23.3155 12.2462 23.4483C12.8991 23.677 13.6032 23.7803 14.5311 23.7803H14.6925C15.6204 23.7803 16.3246 23.677 16.9775 23.4483C17.3589 23.3118 17.777 23.5184 17.9127 23.902C18.0447 24.2857 17.843 24.7063 17.4616 24.8428C16.6584 25.1231 15.7781 25.256 14.6925 25.256Z" fill="#E9082A"/>
<path d="M19.7099 15.5387C19.0754 15.5387 18.4666 15.2694 17.9458 14.7456C17.6597 14.4578 17.6597 13.9893 17.9458 13.7015C18.2318 13.4138 18.694 13.4138 18.9837 13.7015C19.3211 14.0409 19.6402 14.1369 20.0143 14.0114C20.3151 13.9081 20.5351 13.7015 20.5351 13.7015C20.8212 13.4138 21.2833 13.4138 21.573 13.7015C21.8591 13.9893 21.8591 14.4578 21.573 14.7456C21.529 14.7898 21.1109 15.1993 20.4764 15.4133C20.2197 15.5018 19.963 15.5424 19.7099 15.5424V15.5387Z" fill="#E9082A"/>
<path d="M0.733525 8.07562C0.546475 8.07562 0.359426 8.00183 0.216388 7.85796C-0.0696879 7.5702 -0.0696879 7.10168 0.216388 6.81393L0.575816 6.45239C0.861892 6.16463 1.32768 6.16463 1.61376 6.45239C1.89983 6.74014 1.89983 7.20867 1.61376 7.49642L1.25433 7.85796C1.11129 8.00183 0.924242 8.07562 0.737192 8.07562H0.733525Z" fill="#E9082A"/>
<path d="M2.67371 6.12396C2.48666 6.12396 2.29961 6.05017 2.15657 5.9063C1.8705 5.61854 1.8705 5.15002 2.15657 4.86227L2.516 4.50073C2.80208 4.21297 3.26787 4.21297 3.55394 4.50073C3.84002 4.78848 3.84002 5.25701 3.55394 5.54476L3.19451 5.9063C3.05148 6.05017 2.86443 6.12396 2.67738 6.12396H2.67371Z" fill="#E9082A"/>
<path d="M3.03314 8.07562C2.84609 8.07562 2.65904 8.00183 2.516 7.85796L2.15657 7.49642C1.8705 7.20867 1.8705 6.74014 2.15657 6.45239C2.44265 6.16463 2.90844 6.16463 3.19451 6.45239L3.55394 6.81393C3.84002 7.10168 3.84002 7.5702 3.55394 7.85796C3.4109 8.00183 3.22386 8.07562 3.03681 8.07562H3.03314Z" fill="#E9082A"/>
<path d="M1.09295 6.12396C0.905903 6.12396 0.718854 6.05017 0.575816 5.9063L0.216388 5.54476C-0.0696879 5.25701 -0.0696879 4.78848 0.216388 4.50073C0.502463 4.21297 0.968253 4.21297 1.25433 4.50073L1.61376 4.86227C1.89983 5.15002 1.89983 5.61854 1.61376 5.9063C1.47072 6.05017 1.28367 6.12396 1.09662 6.12396H1.09295Z" fill="#E9082A"/>
<path d="M2.75808 24.0607C2.57103 24.0607 2.38398 23.9869 2.24095 23.8431L2.14559 23.7472C1.85951 23.4594 1.85951 22.9909 2.14559 22.7031C2.43166 22.4154 2.89745 22.4154 3.18353 22.7031L3.27889 22.799C3.56496 23.0868 3.56496 23.5553 3.27889 23.8431C3.13585 23.9869 2.9488 24.0607 2.76175 24.0607H2.75808Z" fill="#E9082A"/>
<path d="M4.13711 25.4442C3.95006 25.4442 3.76301 25.3704 3.61997 25.2265L3.52462 25.1306C3.23854 24.8428 3.23854 24.3743 3.52462 24.0865C3.81069 23.7988 4.27648 23.7988 4.56256 24.0865L4.65792 24.1825C4.94399 24.4702 4.94399 24.9387 4.65792 25.2265C4.51488 25.3704 4.32783 25.4442 4.14078 25.4442H4.13711Z" fill="#E9082A"/>
<path d="M2.66272 25.4442C2.47567 25.4442 2.28862 25.3704 2.14559 25.2265C1.85951 24.9387 1.85951 24.4702 2.14559 24.1825L2.24095 24.0865C2.52702 23.7988 2.99281 23.7988 3.27889 24.0865C3.56496 24.3743 3.56496 24.8428 3.27889 25.1306L3.18353 25.2265C3.04049 25.3704 2.85344 25.4442 2.66639 25.4442H2.66272Z" fill="#E9082A"/>
<path d="M4.04175 24.0607C3.8547 24.0607 3.66765 23.9869 3.52462 23.8431C3.23854 23.5553 3.23854 23.0868 3.52462 22.799L3.61997 22.7031C3.90605 22.4154 4.37184 22.4154 4.65792 22.7031C4.94399 22.9909 4.94399 23.4594 4.65792 23.7472L4.56256 23.8431C4.41952 23.9869 4.23247 24.0607 4.04542 24.0607H4.04175Z" fill="#E9082A"/>
<path d="M14.7329 30.9999C14.7329 30.9999 14.7036 30.9999 14.6889 30.9999C11.5714 30.9999 8.82435 28.388 7.48566 25.8019C6.54308 23.9758 6.08463 21.9467 5.64084 19.9804C5.43912 19.0803 5.23007 18.1543 4.977 17.28C3.62364 12.5615 4.22147 7.65495 6.57609 4.15394C8.94171 0.634481 13.7647 -0.889142 18.0411 0.523806C18.4262 0.649238 18.6353 1.06611 18.5106 1.45347C18.3859 1.84084 17.9714 2.05112 17.5863 1.92569C13.9737 0.734088 9.76693 2.04743 7.79374 4.98031C5.68119 8.12347 5.15671 12.5689 6.38904 16.8705C6.64944 17.7854 6.86583 18.7335 7.07122 19.6521C7.493 21.5262 7.92945 23.463 8.78767 25.1194C9.8843 27.2407 12.2022 29.5206 14.6962 29.5206C14.7072 29.5206 14.7182 29.5206 14.7292 29.5206C17.3773 29.5206 19.8566 26.9492 20.9386 24.3964C21.7088 22.5813 22.1856 20.5154 22.644 18.5121C22.8347 17.6858 23.0291 16.8336 23.2418 16.0146C24.045 12.9341 23.748 9.28925 22.468 6.50393C22.2992 6.13502 22.457 5.69601 22.8274 5.52631C23.1942 5.3566 23.6306 5.51524 23.803 5.88784C25.2187 8.96829 25.5488 12.9932 24.6649 16.3909C24.4558 17.1877 24.2651 18.0289 24.0744 18.8442C23.6013 20.9064 23.1098 23.0424 22.2882 24.9755C21.0522 27.8789 18.1658 30.9926 14.7366 30.9926L14.7329 30.9999Z" fill="#E9082A"/>
<path d="M26.8911 20.1944C26.7041 20.1944 26.517 20.1206 26.374 19.9767L26.2786 19.8808C25.9926 19.5931 25.9926 19.1245 26.2786 18.8368C26.5647 18.549 27.0305 18.549 27.3166 18.8368L27.4119 18.9327C27.698 19.2205 27.698 19.689 27.4119 19.9767C27.2689 20.1206 27.0819 20.1944 26.8948 20.1944H26.8911Z" fill="#E9082A"/>
<path d="M28.2665 21.5779C28.0795 21.5779 27.8924 21.5042 27.7494 21.3603L27.654 21.2644C27.3679 20.9766 27.3679 20.5081 27.654 20.2203C27.9401 19.9326 28.4059 19.9326 28.692 20.2203L28.7873 20.3162C29.0734 20.604 29.0734 21.0725 28.7873 21.3603C28.6443 21.5042 28.4572 21.5779 28.2702 21.5779H28.2665Z" fill="#E9082A"/>
<path d="M26.7921 21.5779C26.6051 21.5779 26.418 21.5042 26.275 21.3603C25.9889 21.0725 25.9889 20.604 26.275 20.3162L26.3703 20.2203C26.6564 19.9326 27.1222 19.9326 27.4083 20.2203C27.6944 20.5081 27.6944 20.9766 27.4083 21.2644L27.3129 21.3603C27.1699 21.5042 26.9828 21.5779 26.7958 21.5779H26.7921Z" fill="#E9082A"/>
<path d="M28.1711 20.1944C27.9841 20.1944 27.797 20.1206 27.654 19.9767C27.3679 19.689 27.3679 19.2205 27.654 18.9327L27.7494 18.8368C28.0354 18.549 28.5012 18.549 28.7873 18.8368C29.0734 19.1245 29.0734 19.5931 28.7873 19.8808L28.692 19.9767C28.5489 20.1206 28.3619 20.1944 28.1748 20.1944H28.1711Z" fill="#E9082A"/>
<path d="M19.6072 5.24969C19.4201 5.24969 19.2331 5.17591 19.09 5.03203C18.804 4.74428 18.804 4.27575 19.09 3.988L19.4495 3.62646C19.7355 3.33871 20.2013 3.33871 20.4874 3.62646C20.7735 3.91421 20.7735 4.38274 20.4874 4.67049L20.128 5.03203C19.9849 5.17591 19.7979 5.24969 19.6072 5.24969Z" fill="#E9082A"/>
<path d="M21.5474 3.30181C21.3603 3.30181 21.1733 3.22803 21.0302 3.08415C20.7442 2.7964 20.7442 2.32788 21.0302 2.04012L21.3897 1.67858C21.6757 1.39083 22.1415 1.39083 22.4276 1.67858C22.7137 1.96634 22.7137 2.43486 22.4276 2.72262L22.0682 3.08415C21.9251 3.22803 21.7381 3.30181 21.551 3.30181H21.5474Z" fill="#E9082A"/>
<path d="M21.9068 5.24969C21.7197 5.24969 21.5327 5.17591 21.3897 5.03203L21.0302 4.67049C20.7442 4.38274 20.7442 3.91421 21.0302 3.62646C21.3163 3.33871 21.7821 3.33871 22.0682 3.62646L22.4276 3.988C22.7137 4.27575 22.7137 4.74428 22.4276 5.03203C22.2846 5.17591 22.0975 5.24969 21.9068 5.24969Z" fill="#E9082A"/>
<path d="M19.9666 3.30181C19.7796 3.30181 19.5925 3.22803 19.4458 3.08415L19.0864 2.72262C18.8003 2.43486 18.8003 1.96634 19.0864 1.67858C19.3725 1.39083 19.8382 1.39083 20.1243 1.67858L20.4838 2.04012C20.7698 2.32788 20.7698 2.7964 20.4838 3.08415C20.3407 3.22803 20.1537 3.29812 19.9666 3.29812V3.30181Z" fill="#E9082A"/>
</g>
<defs>
<clipPath id="clip0_25_746">
<rect width="29" height="31" fill="white"/>
</clipPath>
</defs>
</svg>
