<svg width="27" height="23" viewBox="0 0 27 23" fill="none" xmlns="http://www.w3.org/2000/svg">
<path d="M7.63814 3.36035L7.61243 3.38606V1.19462C7.61243 0.642799 7.16544 0.197784 6.6156 0.197784C6.06576 0.197784 5.61876 0.644777 5.61876 1.19462V3.38606L5.59305 3.36035C5.20342 2.97072 4.57249 2.97072 4.18285 3.36035C3.79322 3.74999 3.79322 4.38092 4.18285 4.77055L5.91148 6.49919C6.10531 6.69302 6.36243 6.79191 6.61757 6.79191C6.87272 6.79191 7.12786 6.69499 7.32366 6.49919L9.0523 4.77055C9.44193 4.38092 9.44193 3.74999 9.0523 3.36035C8.66266 2.97072 8.03173 2.97072 7.6421 3.36035H7.63814Z" fill="#E9082A"/>
<path d="M21.8051 3.16254L21.7794 3.18825V0.996802C21.7794 0.444984 21.3324 -3.05176e-05 20.7826 -3.05176e-05C20.2327 -3.05176e-05 19.7858 0.446962 19.7858 0.996802V3.18825L19.76 3.16254C19.3704 2.7729 18.7395 2.7729 18.3498 3.16254C17.9602 3.55217 17.9602 4.1831 18.3498 4.57274L20.0785 6.30137C20.2723 6.4952 20.5294 6.59409 20.7846 6.59409C21.0397 6.59409 21.2949 6.49718 21.4907 6.30137L23.2193 4.57274C23.6089 4.1831 23.6089 3.55217 23.2193 3.16254C22.8297 2.7729 22.1987 2.7729 21.8091 3.16254H21.8051Z" fill="#E9082A"/>
<path d="M8.65305 16.1708C8.29111 15.9295 7.80258 15.9553 7.46635 16.2302C7.1578 16.4814 7.02726 16.9125 7.14594 17.2903C7.27054 17.6938 7.64237 17.9845 8.06761 17.9964C8.48493 18.0102 8.87259 17.7531 9.02686 17.3655C9.19893 16.9323 9.03873 16.428 8.65305 16.1689V16.1708Z" fill="#E9082A"/>
<path d="M20.2731 16.1708C19.9329 15.9433 19.478 15.9513 19.1437 16.1866C18.8055 16.424 18.6513 16.8611 18.7581 17.2586C18.8649 17.6581 19.215 17.9528 19.6263 17.9924C20.0516 18.0339 20.4649 17.7887 20.635 17.3971C20.8249 16.958 20.6687 16.4378 20.2731 16.1708Z" fill="#E9082A"/>
<path d="M10.2762 11.6474C9.86283 11.6771 9.50286 11.9698 9.38815 12.3674C9.27343 12.7689 9.4277 13.208 9.76591 13.4512C10.0982 13.6905 10.559 13.6965 10.9012 13.471C11.2928 13.2119 11.4491 12.6937 11.2691 12.2606C11.1089 11.869 10.6995 11.6158 10.2762 11.6474Z" fill="#E9082A"/>
<path d="M19.7205 11.6474C19.3072 11.6771 18.9492 11.9698 18.8325 12.3674C18.7178 12.7669 18.872 13.2099 19.2103 13.4512C19.5425 13.6905 20.0034 13.6985 20.3436 13.471C20.7332 13.2099 20.8914 12.6937 20.7114 12.2606C20.5512 11.869 20.1418 11.6158 19.7205 11.6474Z" fill="#E9082A"/>
<path d="M13.5522 20.2966H1.98976V8.39395C2.29237 8.5324 2.56729 8.70447 2.87188 8.8983C3.72828 9.43825 4.69742 10.0494 6.56451 10.0494C8.43159 10.0494 9.40271 9.43825 10.2571 8.8983C11.0048 8.42757 11.5942 8.05574 12.8857 8.05574C13.1309 8.05574 13.3505 8.06958 13.5522 8.0953V6.08976C13.3426 6.07196 13.1211 6.06207 12.8857 6.06207C11.0166 6.06207 10.0475 6.67323 9.19306 7.21318C8.44741 7.6839 7.85604 8.05772 6.56451 8.05772C5.27298 8.05772 4.6816 7.68588 3.93595 7.21515C3.23382 6.77212 2.43675 6.26975 1.10962 6.1135C0.826787 6.07987 0.543956 6.16888 0.330349 6.35875C0.116742 6.54862 -0.00390625 6.81959 -0.00390625 7.1044V21.2994C-0.00390625 21.8512 0.443086 22.2962 0.992926 22.2962H13.5542V20.3006L13.5522 20.2966Z" fill="#E9082A"/>
<path d="M13.4434 20.2966H25.0058V8.39395C24.7032 8.5324 24.4283 8.70447 24.1237 8.8983C23.2673 9.43825 22.2982 10.0494 20.4311 10.0494C18.564 10.0494 17.5929 9.43825 16.7385 8.8983C15.9908 8.42757 15.4014 8.05574 14.1099 8.05574C13.8647 8.05574 13.6451 8.06958 13.4434 8.0953V6.08976C13.653 6.07196 13.8746 6.06207 14.1099 6.06207C15.979 6.06207 16.9481 6.67323 17.8025 7.21318C18.5482 7.6839 19.1396 8.05772 20.4311 8.05772C21.7226 8.05772 22.314 7.68588 23.0597 7.21515C23.7618 6.77212 24.5589 6.26975 25.886 6.1135C26.1688 6.07987 26.4517 6.16888 26.6653 6.35875C26.8789 6.54862 26.9995 6.81959 26.9995 7.1044V21.2994C26.9995 21.8512 26.5525 22.2962 26.0027 22.2962H13.4414V20.3006L13.4434 20.2966Z" fill="#E9082A"/>
</svg>
