<svg width="26" height="31" viewBox="0 0 26 31" fill="none" xmlns="http://www.w3.org/2000/svg">
<g clip-path="url(#clip0_25_567)">
<path d="M16.9547 22.6542V23.1151C16.9547 25.2655 15.2006 27.0149 13.0444 27.0149C10.8883 27.0149 9.1342 25.2655 9.1342 23.1151V22.6542H0.288818V23.5761H8.23175C8.46517 26.0192 10.5347 27.9369 13.0444 27.9369C15.5542 27.9369 17.6237 26.0192 17.8571 23.5761H25.7099V22.6542H16.9547Z" fill="#E9082A"/>
<path d="M13.0445 28.2239C10.477 28.2239 8.34274 26.3673 7.97529 23.8631H0.288876C0.129416 23.8631 0 23.7341 0 23.575V22.6531C0 22.4941 0.129416 22.365 0.288876 22.365H9.13426C9.29372 22.365 9.42314 22.4941 9.42314 22.6531V23.1141C9.42314 25.1054 11.0478 26.7257 13.0445 26.7257C15.0412 26.7257 16.6658 25.1054 16.6658 23.1141V22.6531C16.6658 22.4941 16.7953 22.365 16.9547 22.365H25.71C25.8694 22.365 25.9988 22.4941 25.9988 22.6531V23.575C25.9988 23.7341 25.8694 23.8631 25.71 23.8631H18.1125C17.7462 26.3673 15.612 28.2239 13.0445 28.2239ZM0.577752 23.2881H8.23181C8.38087 23.2881 8.50567 23.401 8.51953 23.5485C8.74255 25.8856 10.6884 27.6477 13.0445 27.6477C15.4006 27.6477 17.3464 25.8856 17.5694 23.5485C17.5833 23.401 17.7081 23.2881 17.8572 23.2881H25.4211V22.9424H17.2436V23.1152C17.2436 25.4247 15.3601 27.3031 13.0445 27.3031C10.7289 27.3031 8.84539 25.4247 8.84539 23.1152V22.9424H0.577752V23.2881Z" fill="#E9082A"/>
<path d="M12.9994 25.9018C13.7598 25.9018 14.5432 25.5122 15.0955 24.8588C15.6871 24.1593 15.939 23.2512 15.7877 22.3673C14.6714 15.855 16.801 3.34551 17.2378 0.906995C17.2852 0.652311 17.1408 0.404541 16.8946 0.319262C16.645 0.232831 16.3735 0.337701 16.2487 0.569337C9.51443 13.1192 10.1742 22.1068 10.2031 22.4457C10.2031 24.3518 11.4568 25.9029 12.9983 25.9029L12.9994 25.9018ZM15.9021 3.28673C15.1614 7.9932 13.9608 17.1814 14.8771 22.5229C14.9823 23.1383 14.8043 23.7732 14.3883 24.2653C14.0093 24.7125 13.4905 24.9798 12.9994 24.9798C11.9676 24.9798 11.1287 23.8424 11.1275 22.4065C11.1206 22.3223 10.5498 14.3949 15.9021 3.28673Z" fill="#E9082A"/>
<path d="M12.9994 26.1898C11.3019 26.1898 9.92111 24.5165 9.91534 22.4572C9.87143 21.9271 9.24745 13.0062 15.9944 0.432186C16.1851 0.0749368 16.6045 -0.0875539 16.9893 0.0461264C17.3706 0.178654 17.5948 0.562409 17.522 0.95884C17.0852 3.39044 14.9637 15.8538 16.0719 22.3189C16.2383 23.2869 15.9621 24.2803 15.3162 25.0455C14.7095 25.7623 13.8429 26.191 12.9994 26.191V26.1898ZM16.7166 0.576238C16.6288 0.576238 16.5479 0.622335 16.5052 0.704156C14.587 4.2778 12.0715 9.85665 10.9761 16.135C10.2955 20.0371 10.485 22.3235 10.4931 22.4191C10.4931 22.4272 10.4931 22.4364 10.4931 22.4445C10.4931 24.1916 11.6174 25.6136 12.9994 25.6136C13.6753 25.6136 14.3756 25.2621 14.8748 24.6733C15.4109 24.0383 15.6409 23.2155 15.5034 22.4157C14.379 15.8561 16.5144 3.30516 16.9547 0.856275C16.9766 0.738729 16.9131 0.630401 16.801 0.591219C16.7733 0.582 16.7455 0.57739 16.7178 0.57739L16.7166 0.576238ZM12.9994 25.2679C11.7919 25.2679 10.8444 24.0164 10.8386 22.4168C10.8143 22.0504 10.359 14.124 15.642 3.16111C15.7044 3.03204 15.8512 2.96865 15.9887 3.01129C16.125 3.05393 16.2105 3.18992 16.1886 3.33051C15.4178 8.22367 14.2612 17.2183 15.1625 22.4733C15.2827 23.1728 15.0816 23.8931 14.6101 24.4497C14.1768 24.9614 13.5748 25.2668 13.0005 25.2668L12.9994 25.2679ZM15.3139 5.2562C10.9206 15.2868 11.4094 22.3097 11.4152 22.3846C11.4152 22.3915 11.4152 22.3995 11.4152 22.4076C11.4163 23.6684 12.127 24.6929 12.9982 24.6929C13.405 24.6929 13.8417 24.4635 14.1664 24.0798C14.527 23.6522 14.6818 23.1025 14.5905 22.5713C13.7886 17.8982 14.5824 10.366 15.3127 5.2562H15.3139Z" fill="#E9082A"/>
<path d="M2.23821 24.429C1.54491 24.429 0.982178 24.9913 0.982178 25.6816C0.982178 26.3719 1.54606 26.9343 2.23821 26.9343C2.93036 26.9343 3.49424 26.3719 3.49424 25.6816C3.49424 24.9913 2.93036 24.429 2.23821 24.429ZM2.23821 26.0135C2.05449 26.0135 1.90658 25.8649 1.90658 25.6828C1.90658 25.5007 2.05564 25.352 2.23821 25.352C2.42078 25.352 2.56984 25.5007 2.56984 25.6828C2.56984 25.8649 2.42078 26.0135 2.23821 26.0135Z" fill="#E9082A"/>
<path d="M2.2382 27.2235C1.38544 27.2235 0.692139 26.5321 0.692139 25.6816C0.692139 24.8311 1.38544 24.1396 2.2382 24.1396C3.09097 24.1396 3.78427 24.8311 3.78427 25.6816C3.78427 26.5321 3.09097 27.2235 2.2382 27.2235ZM2.2382 24.717C1.70436 24.717 1.26989 25.1503 1.26989 25.6827C1.26989 26.2152 1.70436 26.6485 2.2382 26.6485C2.77205 26.6485 3.20652 26.2152 3.20652 25.6827C3.20652 25.1503 2.77205 24.717 2.2382 24.717ZM2.2382 26.3016C1.89617 26.3016 1.61654 26.0238 1.61654 25.6816C1.61654 25.3393 1.89502 25.0616 2.2382 25.0616C2.58139 25.0616 2.85986 25.3393 2.85986 25.6816C2.85986 26.0238 2.58139 26.3016 2.2382 26.3016ZM2.2382 25.6389C2.21394 25.6389 2.19429 25.6585 2.19429 25.6827C2.19429 25.7069 2.21394 25.7265 2.2382 25.7265C2.26247 25.7265 2.28211 25.7069 2.28211 25.6827C2.28211 25.6585 2.26247 25.6389 2.2382 25.6389Z" fill="#E9082A"/>
<path d="M6.1773 26.0135C4.87852 26.0135 3.82239 27.0669 3.82239 28.3622C3.82239 29.6575 4.87852 30.7108 6.1773 30.7108C7.47609 30.7108 8.53222 29.6575 8.53222 28.3622C8.53222 27.0669 7.47609 26.0135 6.1773 26.0135ZM6.1773 29.79C5.3881 29.79 4.74679 29.1504 4.74679 28.3633C4.74679 27.5762 5.38925 26.9366 6.1773 26.9366C6.96536 26.9366 7.60782 27.5774 7.60782 28.3633C7.60782 29.1493 6.96651 29.79 6.1773 29.79Z" fill="#E9082A"/>
<path d="M6.17736 31C4.71912 31 3.53357 29.8165 3.53357 28.3633C3.53357 26.9101 4.72027 25.7266 6.17736 25.7266C7.63445 25.7266 8.82116 26.9101 8.82116 28.3633C8.82116 29.8165 7.63445 31 6.17736 31ZM6.17736 26.3016C5.03804 26.3016 4.11132 27.2259 4.11132 28.3621C4.11132 29.4984 5.03804 30.4227 6.17736 30.4227C7.31669 30.4227 8.2434 29.4984 8.2434 28.3621C8.2434 27.2259 7.31669 26.3016 6.17736 26.3016ZM6.17736 30.0781C5.22869 30.0781 4.45797 29.3083 4.45797 28.3633C4.45797 27.4183 5.22985 26.6485 6.17736 26.6485C7.12488 26.6485 7.89675 27.4183 7.89675 28.3633C7.89675 29.3083 7.12488 30.0781 6.17736 30.0781ZM6.17736 27.2236C5.54761 27.2236 5.03572 27.7341 5.03572 28.3621C5.03572 28.9902 5.54761 29.5007 6.17736 29.5007C6.80711 29.5007 7.319 28.9902 7.319 28.3621C7.319 27.7341 6.80711 27.2236 6.17736 27.2236Z" fill="#E9082A"/>
<path d="M23.7595 24.429C23.0661 24.429 22.5034 24.9913 22.5034 25.6816C22.5034 26.3719 23.0673 26.9343 23.7595 26.9343C24.4516 26.9343 25.0155 26.3719 25.0155 25.6816C25.0155 24.9913 24.4516 24.429 23.7595 24.429ZM23.7595 26.0135C23.5757 26.0135 23.4278 25.8649 23.4278 25.6828C23.4278 25.5007 23.5769 25.352 23.7595 25.352C23.942 25.352 24.0911 25.5007 24.0911 25.6828C24.0911 25.8649 23.942 26.0135 23.7595 26.0135Z" fill="#E9082A"/>
<path d="M23.7594 27.2235C22.9067 27.2235 22.2134 26.5321 22.2134 25.6816C22.2134 24.8311 22.9067 24.1396 23.7594 24.1396C24.6122 24.1396 25.3055 24.8311 25.3055 25.6816C25.3055 26.5321 24.6122 27.2235 23.7594 27.2235ZM23.7594 24.717C23.2256 24.717 22.7911 25.1503 22.7911 25.6827C22.7911 26.2152 23.2256 26.6485 23.7594 26.6485C24.2933 26.6485 24.7278 26.2152 24.7278 25.6827C24.7278 25.1503 24.2933 24.717 23.7594 24.717ZM23.7594 26.3016C23.4174 26.3016 23.1378 26.0238 23.1378 25.6816C23.1378 25.3393 23.4163 25.0616 23.7594 25.0616C24.1026 25.0616 24.3811 25.3393 24.3811 25.6816C24.3811 26.0238 24.1026 26.3016 23.7594 26.3016ZM23.7594 25.6389C23.7352 25.6389 23.7155 25.6585 23.7155 25.6827C23.7155 25.7069 23.7352 25.7265 23.7594 25.7265C23.7837 25.7265 23.8034 25.7069 23.8034 25.6827C23.8034 25.6585 23.7837 25.6389 23.7594 25.6389Z" fill="#E9082A"/>
<path d="M19.8204 26.0135C18.5216 26.0135 17.4655 27.0669 17.4655 28.3622C17.4655 29.6575 18.5216 30.7108 19.8204 30.7108C21.1192 30.7108 22.1764 29.6575 22.1764 28.3622C22.1764 27.0669 21.1203 26.0135 19.8204 26.0135ZM19.8204 29.79C19.0312 29.79 18.3899 29.1504 18.3899 28.3633C18.3899 27.5762 19.0312 26.9366 19.8204 26.9366C20.6096 26.9366 21.252 27.5774 21.252 28.3633C21.252 29.1493 20.6096 29.79 19.8204 29.79Z" fill="#E9082A"/>
<path d="M19.8203 31C18.3621 31 17.1765 29.8165 17.1765 28.3633C17.1765 26.9101 18.3632 25.7266 19.8203 25.7266C21.2774 25.7266 22.4653 26.9101 22.4653 28.3633C22.4653 29.8165 21.2786 31 19.8203 31ZM19.8203 26.3016C18.681 26.3016 17.7543 27.2259 17.7543 28.3621C17.7543 29.4984 18.681 30.4227 19.8203 30.4227C20.9596 30.4227 21.8875 29.4984 21.8875 28.3621C21.8875 27.2259 20.9608 26.3016 19.8203 26.3016ZM19.8203 30.0781C18.8716 30.0781 18.1009 29.3083 18.1009 28.3633C18.1009 27.4183 18.8728 26.6485 19.8203 26.6485C20.7678 26.6485 21.5409 27.4183 21.5409 28.3633C21.5409 29.3083 20.769 30.0781 19.8203 30.0781ZM19.8203 27.2236C19.1906 27.2236 18.6787 27.7341 18.6787 28.3621C18.6787 28.9902 19.1906 29.5007 19.8203 29.5007C20.4501 29.5007 20.9631 28.9902 20.9631 28.3621C20.9631 27.7341 20.4501 27.2236 19.8203 27.2236Z" fill="#E9082A"/>
</g>
<defs>
<clipPath id="clip0_25_567">
<rect width="26" height="31" fill="white"/>
</clipPath>
</defs>
</svg>
