<svg width="36" height="30" viewBox="0 0 36 30" fill="none" xmlns="http://www.w3.org/2000/svg">
<g clip-path="url(#clip0_25_691)">
<path d="M26.3697 23.9487V24.5002C26.3697 26.7338 24.5517 28.551 22.3173 28.551C20.0828 28.551 18.2648 26.7338 18.2648 24.5002V23.9487H0.344849V25.0517H17.1917C17.4676 27.6355 19.6621 29.654 22.3186 29.654C24.9752 29.654 27.1683 27.6355 27.4455 25.0517H35.6566V23.9487H26.3711H26.3697Z" fill="#E9082A"/>
<path d="M22.3172 29.9999C19.6028 29.9999 17.3228 28.0421 16.8897 25.3977H0.344828C0.154483 25.3977 0 25.2433 0 25.053V23.95C0 23.7598 0.154483 23.6053 0.344828 23.6053H18.2648C18.4552 23.6053 18.6097 23.7598 18.6097 23.95V24.5015C18.6097 26.5448 20.2731 28.2076 22.3172 28.2076C24.3614 28.2076 26.0248 26.5448 26.0248 24.5015V23.95C26.0248 23.7598 26.1793 23.6053 26.3697 23.6053H35.6552C35.8455 23.6053 36 23.7598 36 23.95V25.053C36 25.2433 35.8455 25.3977 35.6552 25.3977H27.7448C27.3117 28.0421 25.0317 29.9999 22.3172 29.9999ZM0.689655 24.707H17.1917C17.3683 24.707 17.5159 24.8393 17.5352 25.0144C17.7972 27.4631 19.8538 29.3092 22.3186 29.3092C24.7834 29.3092 26.84 27.4631 27.1021 25.0144C27.1214 24.8393 27.269 24.707 27.4455 24.707H35.3117V24.2933H26.7159V24.5001C26.7159 26.924 24.7434 28.8956 22.3186 28.8956C19.8938 28.8956 17.9214 26.924 17.9214 24.5001V24.2933H0.689655V24.707Z" fill="#E9082A"/>
<path d="M22.2704 27.5073C23.0897 27.5073 23.9324 27.0867 24.5269 26.3836C25.1628 25.6308 25.4331 24.6519 25.2704 23.7006C24.0952 16.8344 26.3366 3.64541 26.7986 1.0713C26.851 0.770736 26.68 0.479822 26.3917 0.380553C26.0993 0.279905 25.7807 0.403992 25.6345 0.675603C18.5352 13.9377 19.2303 23.4414 19.2607 23.7943C19.2607 25.8417 20.6097 27.5086 22.269 27.5086L22.2704 27.5073ZM25.1945 4.00388C24.411 9.08867 23.2441 18.3993 24.1835 23.8867C24.291 24.5168 24.109 25.1689 23.6841 25.6722C23.2979 26.1299 22.7697 26.4043 22.2717 26.4043C21.2221 26.4043 20.3669 25.2323 20.3655 23.7474C20.3586 23.6606 19.7738 15.4971 25.1959 4.0025L25.1945 4.00388Z" fill="#E9082A"/>
<path d="M22.2703 27.852C20.4262 27.852 18.9241 26.0389 18.9172 23.8081C18.8689 23.2277 18.2137 13.8067 25.331 0.511549C25.5586 0.0882756 26.0524 -0.103369 26.5048 0.0538071C26.9544 0.208226 27.2206 0.661831 27.1379 1.1306C26.6786 3.69506 24.4441 16.8303 25.6096 23.6427C25.7889 24.696 25.491 25.7756 24.7889 26.607C24.131 27.3873 23.1889 27.8533 22.2689 27.8533L22.2703 27.852ZM26.1862 0.689406C26.0855 0.689406 25.9889 0.744556 25.9393 0.836931C18.8441 14.0908 19.5972 23.6675 19.6055 23.7626C19.6055 23.7723 19.6055 23.7833 19.6055 23.7929C19.6055 25.6501 20.8 27.1626 22.2689 27.1626C22.9875 27.1626 23.7324 26.7889 24.262 26.1616C24.8317 25.486 25.0758 24.6105 24.9296 23.7585C23.7434 16.8331 25.9944 3.59303 26.4579 1.00927C26.4813 0.876915 26.4055 0.748692 26.2786 0.704572C26.2482 0.693542 26.2165 0.688027 26.1848 0.688027L26.1862 0.689406ZM22.2703 26.749C21.0124 26.749 20.0262 25.4378 20.0193 23.7599C19.9917 23.3559 19.5351 15.191 24.8827 3.85637C24.9558 3.70195 25.131 3.62336 25.2951 3.67438C25.4593 3.72401 25.5613 3.8867 25.5351 4.05629C24.7572 9.10523 23.5917 18.3869 24.5227 23.8288C24.6482 24.5595 24.4386 25.3137 23.9462 25.8955C23.4951 26.4305 22.8689 26.7503 22.2703 26.7503V26.749ZM24.4937 6.41807C20.2151 16.5863 20.7006 23.6454 20.7075 23.7213C20.7075 23.7295 20.7075 23.7392 20.7075 23.7488C20.7089 25.0242 21.4096 26.061 22.2689 26.061C22.6662 26.061 23.0965 25.8335 23.4179 25.4516C23.7779 25.0255 23.9324 24.4768 23.8413 23.946C23.0317 19.2128 23.771 11.6849 24.4924 6.41945L24.4937 6.41807Z" fill="#E9082A"/>
<path d="M8.79175 17.6355C8.79175 17.044 8.55865 16.6235 8.17658 16.3671C7.81796 16.1106 7.3283 16.0017 6.84554 16.0017C6.7214 16.0017 6.62761 16.0017 6.51865 16.0169L6.62761 15.2393H8.59037V14.2659H5.80278L5.46761 16.9199C5.67727 16.8882 5.87313 16.8731 6.15313 16.8731C7.16554 16.8731 7.57796 17.1929 7.57796 17.7141C7.57796 18.2353 7.05658 18.4848 6.56554 18.4848C6.10623 18.4848 5.64692 18.3442 5.42071 18.2353L5.21106 19.1232C5.49106 19.2707 6.00554 19.4113 6.62071 19.4113C7.98347 19.4113 8.79313 18.5786 8.79313 17.6369L8.79175 17.6355Z" fill="#E9082A"/>
<path d="M6.61934 19.7545C6.02486 19.7545 5.43865 19.6318 5.04969 19.4264C4.91038 19.3533 4.83865 19.1948 4.87452 19.0417L5.08417 18.1552C5.10762 18.0532 5.17659 17.9677 5.27176 17.9236C5.36555 17.8781 5.4759 17.8795 5.56969 17.9236C5.749 18.0091 6.16141 18.1387 6.56417 18.1387C6.59176 18.1387 7.23176 18.1331 7.23176 17.7126C7.23176 17.5775 7.23176 17.2163 6.15176 17.2163C5.90624 17.2163 5.72693 17.2287 5.51727 17.259C5.40969 17.2742 5.3021 17.2397 5.22624 17.1639C5.149 17.0881 5.11176 16.9819 5.12555 16.8744L5.46072 14.2203C5.48279 14.0479 5.629 13.9183 5.80279 13.9183H8.59038C8.78072 13.9183 8.93521 14.0728 8.93521 14.263V15.2364C8.93521 15.4267 8.78072 15.5811 8.59038 15.5811H6.92831L6.91728 15.6555C7.48969 15.6666 8.00693 15.8182 8.37796 16.0857C8.72003 16.316 9.13659 16.7765 9.13659 17.6354C9.13659 18.6888 8.27176 19.7545 6.61934 19.7545ZM5.61383 18.9163C5.85934 18.9962 6.20969 19.0652 6.61934 19.0652C7.52693 19.0652 8.44693 18.5743 8.44693 17.6354C8.44693 17.1901 8.29107 16.8592 7.98486 16.6524C7.70486 16.4525 7.30348 16.3449 6.84555 16.3449C6.72831 16.3449 6.65107 16.3449 6.56555 16.3573C6.45796 16.3725 6.35038 16.3366 6.27452 16.2594C6.19865 16.1836 6.16141 16.0747 6.17659 15.9685L6.28555 15.1909C6.309 15.0199 6.45521 14.8945 6.62762 14.8945H8.24555V14.6105H6.10624L5.86348 16.5352C5.95452 16.531 6.04831 16.5283 6.15314 16.5283C6.81383 16.5283 7.92279 16.6827 7.92279 17.714C7.92279 18.3703 7.36417 18.8294 6.56555 18.8294C6.25521 18.8294 5.93383 18.7715 5.66624 18.6943L5.61383 18.9176V18.9163Z" fill="#E9082A"/>
<path d="M10.9903 17.9623L9.78343 18.0409C9.67446 18.7482 9.4648 19.5575 9.22205 20.251L10.0083 20.1807C10.382 19.574 10.7324 18.7564 10.9889 17.9623H10.9903Z" fill="#E9082A"/>
<path d="M9.22346 20.5957C9.11725 20.5957 9.01656 20.5474 8.95173 20.4633C8.88001 20.3709 8.85932 20.2482 8.89794 20.1379C9.14208 19.4375 9.3407 18.6544 9.44415 17.9885C9.46898 17.8285 9.60139 17.7072 9.76277 17.6975L10.9697 17.619C11.0828 17.6134 11.1945 17.6617 11.2635 17.7513C11.3338 17.8409 11.3545 17.9609 11.3186 18.0698C11.0386 18.9329 10.669 19.7684 10.3035 20.3626C10.2469 20.455 10.149 20.5157 10.04 20.5253L9.2538 20.5957C9.24415 20.5957 9.23311 20.5957 9.22346 20.5957ZM10.0786 18.3676C9.99173 18.8447 9.86484 19.3617 9.71311 19.8622L9.80415 19.8539C10.0455 19.4348 10.2869 18.9053 10.4952 18.3414L10.0786 18.369V18.3676Z" fill="#E9082A"/>
<path d="M15.1421 17.6355C15.1421 17.044 14.909 16.6235 14.5269 16.3671C14.1683 16.1106 13.6786 16.0017 13.1959 16.0017C13.0717 16.0017 12.978 16.0017 12.869 16.0169L12.978 15.2393H14.9407V14.2659H12.1531L11.818 16.9199C12.0276 16.8882 12.2235 16.8731 12.5035 16.8731C13.5159 16.8731 13.9283 17.1929 13.9283 17.7141C13.9283 18.2353 13.4069 18.4848 12.9159 18.4848C12.4566 18.4848 11.9973 18.3442 11.7711 18.2353L11.5614 19.1232C11.8414 19.2707 12.3559 19.4113 12.9711 19.4113C14.3338 19.4113 15.1435 18.5786 15.1435 17.6369L15.1421 17.6355Z" fill="#E9082A"/>
<path d="M12.9697 19.7545C12.3752 19.7545 11.789 19.6318 11.4 19.4264C11.2607 19.3533 11.189 19.1948 11.2249 19.0417L11.4345 18.1552C11.458 18.0532 11.5269 17.9677 11.6221 17.9236C11.7159 17.8795 11.8262 17.8795 11.92 17.9236C12.0993 18.0104 12.5118 18.1387 12.9145 18.1387C12.9421 18.1387 13.5821 18.1331 13.5821 17.7126C13.5821 17.5775 13.5821 17.2163 12.5021 17.2163C12.2566 17.2163 12.0773 17.2287 11.8662 17.259C11.76 17.2742 11.6511 17.2397 11.5752 17.1639C11.498 17.0881 11.4607 16.9819 11.4745 16.8744L11.8097 14.2203C11.8318 14.0479 11.978 13.9183 12.1518 13.9183H14.9393C15.1297 13.9183 15.2842 14.0728 15.2842 14.263V15.2364C15.2842 15.4267 15.1297 15.5811 14.9393 15.5811H13.2773L13.2662 15.6555C13.8387 15.6666 14.3559 15.8182 14.7269 16.0857C15.069 16.316 15.4855 16.7765 15.4855 17.6354C15.4855 18.6888 14.6207 19.7545 12.9683 19.7545H12.9697ZM11.9642 18.9163C12.2097 18.9962 12.56 19.0652 12.9697 19.0652C13.8773 19.0652 14.7973 18.5743 14.7973 17.6354C14.7973 17.1901 14.6414 16.8592 14.3352 16.6524C14.0552 16.4525 13.6538 16.3449 13.1959 16.3449C13.0787 16.3449 13.0014 16.3449 12.9159 16.3573C12.8083 16.3725 12.7007 16.3366 12.6249 16.2594C12.549 16.1836 12.5118 16.0747 12.5269 15.9685L12.6359 15.1909C12.6593 15.0199 12.8055 14.8945 12.978 14.8945H14.5959V14.6105H12.4566L12.2138 16.5352C12.3049 16.531 12.3987 16.5283 12.5035 16.5283C13.1642 16.5283 14.2731 16.6827 14.2731 17.714C14.2731 18.3703 13.7145 18.8294 12.9159 18.8294C12.6055 18.8294 12.2842 18.7715 12.018 18.6943L11.9655 18.9176L11.9642 18.9163Z" fill="#E9082A"/>
</g>
<defs>
<clipPath id="clip0_25_691">
<rect width="36" height="30" fill="white"/>
</clipPath>
</defs>
</svg>
