<svg width="23" height="30" viewBox="0 0 23 30" fill="none" xmlns="http://www.w3.org/2000/svg">
<g clip-path="url(#clip0_25_543)">
<path d="M22.7253 11.6412L21.822 11.0409C21.621 10.9074 16.8366 7.79795 11.7412 10.1505C7.61393 12.0561 6.93374 15.8221 6.90627 15.981L7.77216 16.1299C7.79634 15.9887 8.41609 12.6574 12.1082 10.9526C15.519 9.37806 18.8716 10.5455 20.4309 11.2881C19.12 11.7681 16.8728 12.9101 15.2213 15.4414C13.051 18.7693 9.76328 18.6755 9.62812 18.6722L9.36659 18.6601L9.23143 18.8852C9.19957 18.9393 8.43367 20.2159 8.05677 21.3006C7.97435 21.5367 7.49525 21.8898 7.09967 21.9417C7.01176 21.9538 6.89418 21.9549 6.85133 21.8909C6.81287 21.8335 6.51178 21.262 7.8282 18.8973C10.5215 14.0599 16.6355 11.8387 16.697 11.8166L16.4036 10.9846C16.1399 11.0784 9.91822 13.3338 7.06121 18.467C5.97115 20.4245 5.66457 21.7067 6.12389 22.3864C6.31839 22.6744 6.63815 22.831 7.01945 22.831C7.08209 22.831 7.14692 22.8266 7.21395 22.8178C7.92271 22.7251 8.6886 22.1635 8.8875 21.5919C9.14792 20.8416 9.63361 19.9522 9.86107 19.5539C10.7918 19.5197 13.8532 19.1522 15.9564 15.9269C16.4443 15.1788 16.9948 14.5686 17.5541 14.0621C18.7244 16.5481 19.3255 18.4549 19.3255 19.7205C19.3255 24.751 15.2498 28.8447 10.2391 28.8447C5.22833 28.8447 1.1538 24.7488 1.1538 19.7183C1.1538 15.2086 8.51608 4.29787 10.2402 1.80413C10.9182 2.78287 12.4675 5.06145 14.0872 7.72622L14.8378 7.26609C12.6664 3.6943 10.6182 0.807731 10.5984 0.779042L10.2402 0.275879L9.88195 0.779042C9.48966 1.33076 0.274719 14.3556 0.274719 19.7183C0.274719 25.0809 4.74484 29.7253 10.2402 29.7253C15.7355 29.7253 20.2056 25.2365 20.2056 19.7183C20.2056 18.2882 19.5441 16.1851 18.253 13.4784C19.9936 12.1763 21.6352 11.8475 21.6594 11.8431L22.7242 11.6412H22.7253Z" fill="#E9082A"/>
<path d="M10.2402 30C4.59319 30 0 25.3877 0 19.7183C0 14.0488 9.26439 1.17405 9.65888 0.619023L10.0171 0.11586C10.0688 0.0430337 10.1523 0 10.2402 0C10.3281 0 10.4127 0.0430337 10.4632 0.11586L10.8215 0.619023C10.8423 0.647712 12.8884 3.53097 15.0718 7.12263C15.1103 7.18552 15.1213 7.26056 15.1048 7.33118C15.0872 7.40179 15.0432 7.46359 14.9806 7.50221L14.2301 7.96234C14.1004 8.04178 13.9312 8.00096 13.8521 7.87075C12.4148 5.50721 11.0445 3.46145 10.2402 2.29072C8.32708 5.08129 1.4285 15.4458 1.4285 19.7183C1.4285 24.5976 5.38106 28.5666 10.2402 28.5666C15.0993 28.5666 19.0518 24.5976 19.0518 19.7183C19.0518 18.5586 18.5189 16.8107 17.4662 14.5211C16.9761 14.9989 16.5553 15.5109 16.1871 16.0758C14.1136 19.2537 11.1171 19.7492 10.027 19.8198C9.79733 20.2313 9.37757 21.0203 9.14791 21.6813C8.91496 22.351 8.06335 22.9833 7.2502 23.0903C6.67221 23.1654 6.18212 22.9612 5.89752 22.5397C5.36788 21.7541 5.66127 20.4167 6.82275 18.3312C9.72921 13.1109 16.0465 10.8191 16.3135 10.7242C16.3816 10.6999 16.4575 10.7033 16.5234 10.7353C16.5893 10.7673 16.6399 10.8235 16.664 10.8919L16.9574 11.7239C16.9816 11.7923 16.9772 11.8685 16.9464 11.9347C16.9146 12.0009 16.8585 12.0516 16.7904 12.0759C16.73 12.098 10.7083 14.2916 8.06994 19.0308C7.11614 20.7433 7.05681 21.4462 7.07439 21.6669C7.40294 21.6184 7.76446 21.3127 7.79963 21.209C8.18532 20.0978 8.96551 18.7969 8.99847 18.7417L9.13363 18.5177C9.18528 18.4317 9.28088 18.3809 9.38087 18.3842L9.6424 18.3964C9.97425 18.4052 12.9719 18.3908 14.9938 15.2902C16.4629 13.037 18.4068 11.8585 19.7265 11.2759C17.9914 10.562 15.1311 9.86134 12.2247 11.2031C8.66552 12.8461 8.06885 16.0427 8.04467 16.1774C8.0183 16.3274 7.87655 16.4267 7.7282 16.4014L6.86231 16.2524C6.71287 16.227 6.61287 16.0847 6.63814 15.9346C6.66671 15.7691 7.37437 11.8641 11.6291 9.89996C16.864 7.48235 21.7693 10.6746 21.9759 10.8114L22.8791 11.4117C22.9725 11.4734 23.0187 11.586 22.9967 11.6963C22.9747 11.8067 22.8879 11.8916 22.778 11.9126L21.7132 12.1145C21.699 12.1178 20.2144 12.4191 18.6013 13.5666C19.8496 16.2204 20.4825 18.2882 20.4825 19.7183C20.4825 25.3877 15.8894 30.0011 10.2424 30.0011L10.2402 30ZM10.2402 0.750331L10.1061 0.939017C9.84568 1.30425 7.49964 4.62667 5.16789 8.58467C2.14605 13.7156 0.549424 17.5655 0.549424 19.7183C0.549424 25.0842 4.89647 29.4494 10.2402 29.4494C15.5839 29.4494 19.9309 25.0842 19.9309 19.7183C19.9309 18.3357 19.2837 16.2756 18.0057 13.5975C17.9486 13.4784 17.9838 13.336 18.0892 13.2577C19.8848 11.9148 21.5913 11.5761 21.6089 11.5728L22.0088 11.4966L21.6704 11.2715C21.4748 11.1413 16.8168 8.1102 11.8566 10.4009C8.44026 11.9777 7.46448 14.8599 7.23702 15.7581L7.56338 15.8143C7.78974 14.9437 8.74134 12.2039 11.9939 10.7021C15.4619 9.10107 18.8431 10.2255 20.5496 11.0387C20.6496 11.0861 20.7111 11.1899 20.7067 11.3013C20.7012 11.4128 20.6309 11.5099 20.5265 11.5474C19.332 11.9843 17.0849 13.0911 15.4531 15.5925C13.2675 18.9425 9.98963 18.9569 9.62372 18.9481L9.51933 18.9436L9.46878 19.0275C9.43691 19.0805 8.6864 20.334 8.31828 21.3911C8.19521 21.7453 7.61063 22.1535 7.13702 22.2153C6.83813 22.2583 6.69419 22.1458 6.62606 22.0454C6.44914 21.7839 6.34036 21.0082 7.59085 18.7627C10.0193 14.4008 15.1465 12.1388 16.3509 11.6555L16.2399 11.341C15.0103 11.8243 9.82041 14.0786 7.30295 18.6005C6.28322 20.4322 5.96345 21.6537 6.35354 22.2308C6.51947 22.4757 6.81836 22.5905 7.18098 22.543C7.78754 22.4636 8.46443 21.9759 8.63036 21.5003C8.89298 20.7455 9.36659 19.8705 9.62481 19.4159C9.67207 19.3332 9.75778 19.2813 9.85338 19.2769C10.7171 19.2449 13.6928 18.8973 15.7289 15.7746C16.1838 15.0761 16.7377 14.4306 17.3728 13.8557C17.4376 13.7973 17.5255 13.773 17.6112 13.7906C17.6959 13.8083 17.7684 13.8646 17.8057 13.9429C18.998 16.4764 19.6035 18.4195 19.6035 19.7183C19.6035 24.9011 15.4048 29.1184 10.2424 29.1184C5.07998 29.1184 0.879079 24.9011 0.879079 19.7183C0.879079 15.2063 7.87105 4.74584 10.0149 1.64742C10.0666 1.57349 10.1501 1.52935 10.2402 1.52935C10.3303 1.52935 10.4149 1.57349 10.4654 1.64742C11.2006 2.70892 12.6412 4.83522 14.1773 7.34773L14.4587 7.17559C12.3401 3.71083 10.394 0.96881 10.3731 0.940121L10.2391 0.751434L10.2402 0.750331Z" fill="#E9082A"/>
</g>
<defs>
<clipPath id="clip0_25_543">
<rect width="23" height="30" fill="white"/>
</clipPath>
</defs>
</svg>
