<svg width="24" height="31" viewBox="0 0 24 31" fill="none" xmlns="http://www.w3.org/2000/svg">
<g clip-path="url(#clip0_25_643)">
<path d="M23.7133 12.0292L22.7708 11.4089C22.561 11.2709 17.5685 8.05784 12.2516 10.4888C7.94493 12.4579 7.23517 16.3494 7.2065 16.5136L8.11004 16.6676C8.13527 16.5216 8.78196 13.0793 12.6346 11.3177C16.1937 9.69062 19.6921 10.897 21.3192 11.6643C19.9512 12.1603 17.6064 13.3404 15.883 15.9561C13.6184 19.3949 10.1877 19.298 10.0467 19.2946L9.77379 19.2821L9.63276 19.5147C9.59951 19.5705 8.80031 20.8897 8.40702 22.0106C8.32102 22.2546 7.82109 22.6194 7.40831 22.673C7.31658 22.6856 7.19389 22.6867 7.14917 22.6206C7.10904 22.5613 6.79486 21.9707 8.16852 19.5272C10.9789 14.5285 17.3587 12.2333 17.4229 12.2105L17.1168 11.3508C16.8416 11.4477 10.3494 13.7783 7.36818 19.0825C6.23072 21.1052 5.91082 22.4302 6.3901 23.1325C6.59306 23.4301 6.92672 23.592 7.3246 23.592C7.38996 23.592 7.45761 23.5875 7.52756 23.5784C8.26713 23.4826 9.06633 22.9022 9.27386 22.3116C9.54562 21.5362 10.0524 20.6172 10.2898 20.2056C11.261 20.1703 14.4555 19.7906 16.6501 16.4578C17.1592 15.6847 17.7337 15.0542 18.3173 14.5308C19.5385 17.0997 20.1657 19.07 20.1657 20.3778C20.1657 25.576 15.9128 29.8062 10.6842 29.8062C5.45561 29.8062 1.20392 25.5737 1.20392 20.3755C1.20392 15.7155 8.88631 4.4411 10.6854 1.86422C11.3928 2.87559 13.0096 5.23012 14.6997 7.98372L15.4828 7.50826C13.2171 3.8174 11.0798 0.834615 11.0592 0.804969L10.6854 0.285034L10.3116 0.804969C9.90222 1.37507 0.286621 14.8341 0.286621 20.3755C0.286621 25.9169 4.95109 30.7161 10.6854 30.7161C16.4196 30.7161 21.0841 26.0777 21.0841 20.3755C21.0841 18.8978 20.3938 16.7246 19.0465 13.9276C20.8628 12.5822 22.5759 12.2424 22.6011 12.2378L23.7122 12.0292H23.7133Z" fill="#E9082A"/>
<path d="M10.6854 31C4.79289 31 0 26.2339 0 20.3755C0 14.5171 9.66719 1.21318 10.0788 0.639657L10.4526 0.119722C10.5065 0.0444681 10.5937 0 10.6854 0C10.7771 0 10.8654 0.0444681 10.9182 0.119722L11.292 0.639657C11.3137 0.669303 13.4488 3.64867 15.7271 7.36005C15.7672 7.42504 15.7787 7.50257 15.7615 7.57555C15.7432 7.64852 15.6973 7.71237 15.6319 7.75228L14.8488 8.22775C14.7135 8.30984 14.5369 8.26766 14.4544 8.13311C12.9546 5.69078 11.5247 3.57684 10.6854 2.36707C8.68912 5.25066 1.49061 15.9606 1.49061 20.3755C1.49061 25.4175 5.61502 29.5189 10.6854 29.5189C15.7558 29.5189 19.8802 25.4175 19.8802 20.3755C19.8802 19.1772 19.3241 17.3711 18.2256 15.0051C17.7142 15.4989 17.275 16.0279 16.8909 16.6117C14.7272 19.8955 11.6004 20.4075 10.463 20.4804C10.2233 20.9057 9.7853 21.721 9.54565 22.404C9.30257 23.0961 8.41393 23.7494 7.56543 23.86C6.96231 23.9375 6.45091 23.7266 6.15393 23.291C5.60126 22.4792 5.90741 21.0973 7.11939 18.9423C10.1522 13.548 16.7442 11.1797 17.0228 11.0817C17.0939 11.0566 17.173 11.06 17.2418 11.0931C17.3106 11.1262 17.3633 11.1843 17.3886 11.255L17.6947 12.1147C17.7199 12.1854 17.7154 12.2641 17.6832 12.3325C17.65 12.4009 17.5915 12.4534 17.5204 12.4784C17.4574 12.5013 11.1739 14.768 8.42081 19.6652C7.42554 21.4348 7.36362 22.1611 7.38197 22.3891C7.72481 22.339 8.10205 22.0231 8.13874 21.916C8.54121 20.7678 9.35531 19.4235 9.38971 19.3664L9.53075 19.135C9.58464 19.0461 9.68439 18.9936 9.78874 18.997L10.0616 19.0096C10.4079 19.0187 13.5359 19.0039 15.6457 15.7999C17.1787 13.4716 19.2071 12.2538 20.5842 11.6518C18.7737 10.9141 15.789 10.19 12.7562 11.5765C9.04228 13.2743 8.41967 16.5775 8.39444 16.7166C8.36692 16.8717 8.21901 16.9743 8.06421 16.9481L7.16067 16.7941C7.00473 16.7679 6.90039 16.6208 6.92676 16.4658C6.95657 16.2947 7.695 12.2595 12.1347 10.23C17.5972 7.73176 22.7158 11.0304 22.9313 11.1718L23.8739 11.792C23.9713 11.8559 24.0195 11.9722 23.9966 12.0862C23.9736 12.2002 23.883 12.288 23.7684 12.3097L22.6573 12.5184C22.6424 12.5218 21.0933 12.8331 19.4101 14.0189C20.7126 16.7611 21.3731 18.8978 21.3731 20.3755C21.3731 26.2339 16.5802 31.0011 10.6877 31.0011L10.6854 31ZM10.6854 0.775342L10.5455 0.970318C10.2738 1.34773 7.82571 4.7809 5.39258 8.87083C2.23936 14.1728 0.573312 18.151 0.573312 20.3755C0.573312 25.9204 5.10936 30.431 10.6854 30.431C16.2614 30.431 20.7975 25.9204 20.7975 20.3755C20.7975 18.9469 20.1221 16.8181 18.7886 14.0508C18.729 13.9277 18.7657 13.7806 18.8757 13.6996C20.7493 12.312 22.53 11.9619 22.5484 11.9585L22.9657 11.8798L22.6126 11.6472C22.4085 11.5127 17.5479 8.38054 12.3721 10.7476C8.80723 12.377 7.78902 15.3552 7.55167 16.2833L7.89222 16.3415C8.12842 15.4418 9.1214 12.6107 12.5154 11.0589C16.1342 9.40444 19.6623 10.5663 21.443 11.4067C21.5474 11.4557 21.6116 11.5629 21.607 11.678C21.6013 11.7932 21.5279 11.8935 21.419 11.9323C20.1726 12.3838 17.8277 13.5274 16.125 16.1123C13.8443 19.574 10.424 19.5888 10.0421 19.5797L9.93321 19.5751L9.88047 19.6618C9.84721 19.7165 9.06407 21.0118 8.67995 22.1041C8.55153 22.4701 7.94152 22.892 7.44733 22.9558C7.13545 23.0003 6.98524 22.884 6.91415 22.7802C6.72954 22.51 6.61602 21.7084 7.92088 19.3881C10.4549 14.8809 15.8051 12.5434 17.0618 12.044L16.946 11.7191C15.6629 12.2185 10.2474 14.5479 7.62047 19.2205C6.5564 21.1132 6.22273 22.3755 6.62978 22.9718C6.80292 23.2249 7.11481 23.3435 7.49319 23.2945C8.12613 23.2124 8.83245 22.7084 9.00559 22.217C9.27963 21.4371 9.77383 20.5329 10.0433 20.0631C10.0926 19.9776 10.182 19.924 10.2818 19.9194C11.183 19.8864 14.2881 19.5272 16.4128 16.3004C16.8875 15.5787 17.4654 14.9117 18.1281 14.3176C18.1958 14.2572 18.2875 14.2321 18.377 14.2503C18.4652 14.2686 18.5409 14.3267 18.5799 14.4077C19.824 17.0256 20.4558 19.0335 20.4558 20.3755C20.4558 25.7311 16.0745 30.089 10.6877 30.089C5.30085 30.089 0.9173 25.7311 0.9173 20.3755C0.9173 15.7132 8.21327 4.90404 10.4503 1.70233C10.5042 1.62594 10.5914 1.58033 10.6854 1.58033C10.7794 1.58033 10.8677 1.62594 10.9205 1.70233C11.6875 2.79921 13.1908 4.9964 14.7938 7.59265L15.0873 7.41478C12.8766 3.83452 10.8459 1.0011 10.8241 0.971458L10.6842 0.776482L10.6854 0.775342Z" fill="#E9082A"/>
</g>
<defs>
<clipPath id="clip0_25_643">
<rect width="24" height="31" fill="white"/>
</clipPath>
</defs>
</svg>
