<svg width="15" height="15" viewBox="0 0 15 15" fill="none" xmlns="http://www.w3.org/2000/svg">
<path d="M5.16543 4.37121L6.74332 2.78643V9.39429C6.74332 9.57703 6.81592 9.75229 6.94514 9.88151C7.07436 10.0107 7.24962 10.0833 7.43236 10.0833C7.61511 10.0833 7.79036 10.0107 7.91958 9.88151C8.0488 9.75229 8.1214 9.57703 8.1214 9.39429V2.78643L9.69929 4.37121C9.76335 4.43579 9.83956 4.48705 9.92352 4.52203C10.0075 4.55702 10.0975 4.57503 10.1885 4.57503C10.2795 4.57503 10.3695 4.55702 10.4535 4.52203C10.5375 4.48705 10.6137 4.43579 10.6777 4.37121C10.7423 4.30716 10.7936 4.23095 10.8285 4.14698C10.8635 4.06302 10.8815 3.97296 10.8815 3.88199C10.8815 3.79103 10.8635 3.70097 10.8285 3.61701C10.7936 3.53304 10.7423 3.45683 10.6777 3.39278L7.92158 0.636631C7.85605 0.573901 7.77878 0.524728 7.6942 0.491934C7.52644 0.423018 7.33828 0.423018 7.17053 0.491934C7.08595 0.524728 7.00867 0.573901 6.94315 0.636631L4.187 3.39278C4.12275 3.45702 4.07179 3.53329 4.03702 3.61723C4.00225 3.70117 3.98436 3.79114 3.98436 3.88199C3.98436 3.97285 4.00225 4.06282 4.03702 4.14676C4.07179 4.2307 4.12275 4.30697 4.187 4.37121C4.25124 4.43546 4.32751 4.48642 4.41145 4.52119C4.49539 4.55596 4.58536 4.57385 4.67621 4.57385C4.76707 4.57385 4.85704 4.55596 4.94098 4.52119C5.02492 4.48642 5.10119 4.43546 5.16543 4.37121ZM13.6337 8.70525C13.4509 8.70525 13.2757 8.77785 13.1465 8.90707C13.0173 9.03629 12.9447 9.21154 12.9447 9.39429V12.1504C12.9447 12.3332 12.8721 12.5084 12.7428 12.6377C12.6136 12.7669 12.4384 12.8395 12.2556 12.8395H2.6091C2.42636 12.8395 2.2511 12.7669 2.12188 12.6377C1.99266 12.5084 1.92007 12.3332 1.92007 12.1504V9.39429C1.92007 9.21154 1.84747 9.03629 1.71825 8.90707C1.58903 8.77785 1.41377 8.70525 1.23103 8.70525C1.04829 8.70525 0.873026 8.77785 0.743806 8.90707C0.614587 9.03629 0.541992 9.21154 0.541992 9.39429V12.1504C0.541992 12.6987 0.759777 13.2244 1.14743 13.6121C1.53509 13.9998 2.06087 14.2175 2.6091 14.2175H12.2556C12.8039 14.2175 13.3296 13.9998 13.7173 13.6121C14.1049 13.2244 14.3227 12.6987 14.3227 12.1504V9.39429C14.3227 9.21154 14.2501 9.03629 14.1209 8.90707C13.9917 8.77785 13.8164 8.70525 13.6337 8.70525Z" fill="black"/>
</svg>
