<svg width="19" height="20" viewBox="0 0 19 20" fill="none" xmlns="http://www.w3.org/2000/svg">
<path d="M16.9647 8.38486C17.0413 8.00206 16.735 7.54271 16.3522 7.54271L11.9883 6.93023L9.99777 2.94913C9.92121 2.79601 9.84465 2.71945 9.69153 2.64289C9.30874 2.41321 8.84938 2.56633 8.6197 2.94913L6.70571 6.93023L2.34181 7.54271C2.11213 7.54271 1.95901 7.61926 1.88245 7.77238C1.57621 8.07862 1.57621 8.53798 1.88245 8.84422L5.0214 11.9066L4.2558 16.2705C4.2558 16.4236 4.2558 16.5767 4.33236 16.7299C4.56204 17.1127 5.0214 17.2658 5.40419 17.0361L9.30874 14.969L13.2133 17.0361C13.2898 17.1127 13.443 17.1127 13.5961 17.1127C13.6726 17.1127 13.6726 17.1127 13.7492 17.1127C14.132 17.0361 14.4382 16.6533 14.3617 16.1939L13.5961 11.83L16.735 8.76766C16.8881 8.6911 16.9647 8.53798 16.9647 8.38486ZM12.218 11.0644C12.0649 11.2176 11.9883 11.5238 11.9883 11.7535L12.5242 14.969L9.61498 13.4378C9.53842 13.3612 9.3853 13.3612 9.23218 13.3612V5.01624L10.6868 7.9255C10.7634 8.15518 10.993 8.3083 11.2993 8.3083L14.5148 8.76766L12.218 11.0644Z" fill="white"/>
</svg>
