<svg width="20" height="20" viewBox="0 0 20 20" fill="none" xmlns="http://www.w3.org/2000/svg">
<path d="M17.6839 8.38486C17.7643 8.00206 17.4427 7.54271 17.0408 7.54271L12.4587 6.93023L10.3686 2.94913C10.2882 2.79601 10.2079 2.71945 10.0471 2.64289C9.64515 2.41321 9.16282 2.56633 8.92166 2.94913L6.91197 6.93023L2.32987 7.54271C2.08871 7.54271 1.92793 7.61926 1.84755 7.77238C1.526 8.07862 1.526 8.53798 1.84755 8.84422L5.14344 11.9066L4.33956 16.2705C4.33956 16.4236 4.33956 16.5767 4.41995 16.7299C4.66111 17.1127 5.14344 17.2658 5.54538 17.0361L9.64515 14.969L13.7449 17.0361C13.8253 17.1127 13.9861 17.1127 14.1469 17.1127C14.2272 17.1127 14.2272 17.1127 14.3076 17.1127C14.7096 17.0361 15.0311 16.6533 14.9507 16.1939L14.1469 11.83L17.4427 8.76766C17.6035 8.6911 17.6839 8.53798 17.6839 8.38486Z" fill="white"/>
</svg>
