<svg width="44" height="42" viewBox="0 0 44 42" fill="none" xmlns="http://www.w3.org/2000/svg">
<g clip-path="url(#clip0_2_41)">
<path d="M31.4124 3.11615H18.1491V4.56014H31.4124V3.11615Z" fill="black"/>
<path d="M39.5472 3.11615H36.656V4.56014H39.5472C41.2154 4.56014 42.5735 5.9329 42.5735 7.62141V11.9823H43.2872C43.6812 11.9823 44.0009 12.3057 44.0009 12.7043V7.62141C44.0009 5.13774 42.0034 3.11615 39.5472 3.11615Z" fill="black"/>
<path d="M43.2863 13.4263H42.5725V37.4947C42.5725 39.1823 41.2154 40.556 39.5462 40.556H10.0143C9.87632 40.556 9.74024 40.5454 9.60796 40.5271V41.9798C9.74214 41.9923 9.87728 41.999 10.0143 41.999H39.5462C42.0015 41.999 44 39.9784 44 37.4938V12.7043C44 13.1028 43.6802 13.4263 43.2863 13.4263Z" fill="black"/>
<path d="M10.0143 3.11614C9.87728 3.11614 9.74119 3.12384 9.60796 3.13539V4.58805C9.74119 4.56976 9.87632 4.55917 10.0143 4.55917H12.9055V3.11517H10.0143V3.11614Z" fill="black"/>
<path d="M43.2863 11.9823H19.0589V13.4263H43.2863C43.6802 13.4263 44 13.1028 44 12.7043C44 12.3057 43.6802 11.9823 43.2863 11.9823Z" fill="black"/>
<path d="M18.1491 1.9157C18.1491 0.859657 17.3002 0 16.2553 0H14.7983C13.7543 0 12.9045 0.859657 12.9045 1.9157V5.76153C12.9045 6.81757 13.7534 7.67723 14.7983 7.67723H16.2553C17.2993 7.67723 18.1491 6.81757 18.1491 5.76153V1.9157ZM16.7216 5.76153C16.7216 6.02145 16.5123 6.23324 16.2553 6.23324H14.7983C14.5414 6.23324 14.332 6.02145 14.332 5.76153V1.9157C14.332 1.65578 14.5414 1.44399 14.7983 1.44399H16.2553C16.5123 1.44399 16.7216 1.65578 16.7216 1.9157V5.76153Z" fill="black"/>
<path d="M36.656 1.9157C36.656 0.859657 35.8072 0 34.7622 0H33.3052C32.2613 0 31.4114 0.859657 31.4114 1.9157V5.76153C31.4114 6.81757 32.2603 7.67723 33.3052 7.67723H34.7622C35.8062 7.67723 36.656 6.81757 36.656 5.76153V1.9157ZM35.2285 5.76153C35.2285 6.02145 35.0192 6.23324 34.7622 6.23324H33.3052C33.0483 6.23324 32.8389 6.02145 32.8389 5.76153V1.9157C32.8389 1.65578 33.0483 1.44399 33.3052 1.44399H34.7622C35.0192 1.44399 35.2285 1.65578 35.2285 1.9157V5.76153Z" fill="black"/>
<path d="M24.7812 23.3946C25.5812 23.3946 26.2296 22.7387 26.2296 21.9295C26.2296 21.1203 25.5812 20.4643 24.7812 20.4643C23.9813 20.4643 23.3328 21.1203 23.3328 21.9295C23.3328 22.7387 23.9813 23.3946 24.7812 23.3946Z" fill="black"/>
<path d="M35.0411 23.3946C35.841 23.3946 36.4895 22.7387 36.4895 21.9295C36.4895 21.1203 35.841 20.4643 35.0411 20.4643C34.2411 20.4643 33.5927 21.1203 33.5927 21.9295C33.5927 22.7387 34.2411 23.3946 35.0411 23.3946Z" fill="black"/>
<path d="M24.7812 33.5189C25.5812 33.5189 26.2296 32.863 26.2296 32.0538C26.2296 31.2446 25.5812 30.5886 24.7812 30.5886C23.9813 30.5886 23.3328 31.2446 23.3328 32.0538C23.3328 32.863 23.9813 33.5189 24.7812 33.5189Z" fill="black"/>
<path d="M35.0411 33.5189C35.841 33.5189 36.4895 32.863 36.4895 32.0538C36.4895 31.2446 35.841 30.5886 35.0411 30.5886C34.2411 30.5886 33.5927 31.2446 33.5927 32.0538C33.5927 32.863 34.2411 33.5189 35.0411 33.5189Z" fill="black"/>
<path d="M15.1885 37.643C15.8347 37.643 16.3571 37.1135 16.3571 36.4608C16.3571 35.8081 15.8337 35.2787 15.1885 35.2787H11.4903V31.6985C14.6765 31.3337 17.4268 29.496 19.0589 26.8766C20.0619 25.268 20.6425 23.3638 20.6425 21.3259C20.6425 20.6732 20.119 20.1437 19.4738 20.1437C19.3273 20.1437 19.1883 20.1716 19.0589 20.2217C18.6183 20.3911 18.3052 20.8214 18.3052 21.3259C18.3052 25.7782 14.7241 29.4016 10.3217 29.4016C10.0809 29.4016 9.84301 29.3891 9.60795 29.3679C5.53961 29.0012 2.33822 25.5356 2.33822 21.3259C2.33822 20.6732 1.81481 20.1437 1.16958 20.1437C1.01922 20.1437 0.876473 20.1736 0.745144 20.2255C0.309284 20.3979 0.000946045 20.8253 0.000946045 21.3268C0.000946045 22.7025 0.265507 24.0155 0.745144 25.2189C2.13457 28.7037 5.33024 31.2625 9.15306 31.7005V35.2806H5.45491C4.80873 35.2806 4.28627 35.8101 4.28627 36.4628C4.28627 37.1154 4.80968 37.6449 5.45491 37.6449H15.1885V37.643Z" fill="black"/>
<path d="M9.60795 27.0903C9.84206 27.1192 10.08 27.1355 10.3217 27.1355C13.564 27.1355 16.202 24.467 16.202 21.1873V14.6527C16.202 11.3729 13.564 8.70441 10.3217 8.70441C10.08 8.70441 9.84206 8.72077 9.60795 8.74965C6.70158 9.1068 4.44139 11.6165 4.44139 14.6517V21.1863C4.44139 24.2216 6.70158 26.7312 9.60795 27.0884V27.0903ZM6.77962 14.6527C6.77962 12.9247 7.99584 11.4778 9.60795 11.1428C9.83825 11.0947 10.0771 11.0697 10.3217 11.0697C12.2745 11.0697 13.8638 12.6773 13.8638 14.6527V21.1873C13.8638 23.1626 12.2745 24.7703 10.3217 24.7703C10.0771 24.7703 9.83921 24.7452 9.60795 24.6971C7.99584 24.3621 6.77962 22.9162 6.77962 21.1873V14.6527Z" fill="black"/>
</g>
<defs>
<clipPath id="clip0_2_41">
<rect width="44" height="42" fill="white"/>
</clipPath>
</defs>
</svg>
