<svg width="26" height="26" viewBox="0 0 26 26" fill="none" xmlns="http://www.w3.org/2000/svg">
<path d="M12.75 0.499939C10.2777 0.499939 7.86099 1.23305 5.80538 2.60657C3.74976 3.98009 2.14761 5.93232 1.20151 8.2164C0.255416 10.5005 0.00787437 13.0138 0.49019 15.4386C0.972505 17.8633 2.16301 20.0906 3.91117 21.8388C5.65933 23.5869 7.88661 24.7774 10.3114 25.2598C12.7361 25.7421 15.2495 25.4945 17.5336 24.5484C19.8176 23.6023 21.7699 22.0002 23.1434 19.9446C24.5169 17.889 25.25 15.4722 25.25 12.9999C25.25 11.3584 24.9267 9.73297 24.2985 8.2164C23.6703 6.69983 22.7496 5.32184 21.5888 4.1611C20.4281 3.00037 19.0501 2.07963 17.5336 1.45144C16.017 0.823261 14.3915 0.499939 12.75 0.499939ZM12.75 22.9999C10.7722 22.9999 8.83879 22.4134 7.1943 21.3146C5.54981 20.2158 4.26809 18.654 3.51121 16.8268C2.75433 14.9995 2.5563 12.9888 2.94215 11.049C3.32801 9.10923 4.28041 7.3274 5.67894 5.92887C7.07746 4.53035 8.85929 3.57794 10.7991 3.19209C12.7389 2.80623 14.7496 3.00427 16.5768 3.76114C18.4041 4.51802 19.9659 5.79975 21.0647 7.44424C22.1635 9.08873 22.75 11.0221 22.75 12.9999C22.75 15.6521 21.6964 18.1956 19.8211 20.071C17.9457 21.9464 15.4022 22.9999 12.75 22.9999ZM14 12.9124V6.74994C14 6.41842 13.8683 6.10048 13.6339 5.86606C13.3995 5.63164 13.0815 5.49994 12.75 5.49994C12.4185 5.49994 12.1005 5.63164 11.8661 5.86606C11.6317 6.10048 11.5 6.41842 11.5 6.74994V12.9999C11.5 12.9999 11.5 13.0874 11.5 13.1374C11.4692 13.3916 11.5172 13.649 11.6375 13.8749L13.5125 17.1249C13.6783 17.4134 13.9518 17.6241 14.273 17.7109C14.5941 17.7976 14.9366 17.7532 15.225 17.5874C15.5134 17.4217 15.7242 17.1481 15.8109 16.827C15.8977 16.5058 15.8533 16.1634 15.6875 15.8749L14 12.9124Z" fill="black"/>
</svg>
